<svg width="96" height="96" viewBox="0 0 96 96" fill="none" xmlns="http://www.w3.org/2000/svg">
<mask id="path-1-inside-1_762:1843" fill="white">
<path fill-rule="evenodd" clip-rule="evenodd" d="M31.4932 47H47.9046H64.4845C64.4227 40.2661 63.7084 33.9382 62.4965 28.3712C53.0329 31.1971 42.9416 31.2128 33.471 28.4182C32.2653 33.9738 31.5549 40.285 31.4932 47ZM64.4836 49H47.9046H31.4941C31.5617 55.7154 32.278 62.0251 33.4896 67.5763C42.9486 64.7891 53.0258 64.8047 62.4779 67.6233C63.6956 62.0607 64.4159 55.7344 64.4836 49ZM29.4932 47C29.5554 40.0922 30.2916 33.5715 31.5563 27.8119C29.0313 26.9572 26.5573 25.899 24.1589 24.6371L18.0706 21.4341C11.9949 28.2676 8.23009 37.1971 8 47H29.4932ZM29.494 49H8.00224C8.25416 58.7968 12.0366 67.7166 18.1258 74.5369L24.1589 71.3629C26.5632 70.0979 29.0434 69.0376 31.5749 68.1818C30.3044 62.4267 29.5622 55.9079 29.494 49ZM66.4837 49H70.2873C68.3094 50.5964 67.1979 52.977 67.3047 55.4345L67.5383 60.8126L65.0138 65.1298C65.9098 60.1607 66.4273 54.7134 66.4837 49ZM73.0298 47H66.4846C66.4221 40.0709 65.6815 33.5313 64.4097 27.7585C66.8804 26.9133 69.3015 25.8729 71.6503 24.6371L77.8532 21.3737C83.963 28.2178 87.75 37.1757 87.9779 47.0123C87.9266 47.0042 87.874 47 87.8203 47H82.7259C82.2958 46.5117 81.7769 46.0866 81.1799 45.7482C79.0029 44.514 76.2291 44.6835 74.1667 46.1768L73.0298 47ZM83.8755 49C84.108 49.7025 84.2043 50.452 84.1482 51.2124C85.2977 50.5336 86.6208 50.2277 87.9204 50.3103C87.946 49.8714 87.9644 49.4306 87.9757 48.988C87.9251 48.9959 87.8732 49 87.8203 49H83.8755ZM62.0435 26.419C52.8785 29.1812 43.0947 29.1968 33.9226 26.466C34.6564 23.4839 35.5373 20.7478 36.539 18.3178C38.0929 14.5483 39.9179 11.5637 41.8932 9.53691C42.3598 9.0582 42.8312 8.63619 43.3065 8.27084C44.8424 8.09197 46.4048 8 47.9888 8C49.5728 8 51.1353 8.09197 52.6713 8.27085C53.1465 8.6362 53.618 9.05821 54.0845 9.53691C56.0598 11.5637 57.8848 14.5483 59.4387 18.3178C60.4352 20.735 61.312 23.4552 62.0435 26.419ZM70.7191 22.8671L76.4317 19.8617C71.0052 14.3805 64.0022 10.4598 56.1578 8.83388C58.1061 11.049 59.8325 14.0253 61.2878 17.5556C62.3085 20.0318 63.2038 22.7998 63.9509 25.8012C66.2594 25.001 68.5222 24.023 70.7191 22.8671ZM25.0901 22.8672C27.3362 24.0489 29.6513 25.0447 32.0135 25.8548C32.7633 22.8327 33.6631 20.0465 34.69 17.5556C36.1453 14.0253 37.8717 11.049 39.82 8.83385C31.9477 10.4655 24.9228 14.4083 19.4883 19.92L25.0901 22.8672ZM19.5475 76.0489L25.0901 73.1329C27.3428 71.9477 29.6649 70.9494 32.0343 70.1381C32.7799 73.1279 33.6726 75.8857 34.69 78.3536C36.1453 81.8838 37.8716 84.8601 39.8199 87.0752C31.9762 85.4494 24.9737 81.5293 19.5475 76.0489ZM33.9435 69.5278C43.1026 66.8053 52.8705 66.8209 62.0226 69.5747C61.9223 69.9787 61.8194 70.3782 61.7138 70.773L56.345 79.9539C55.4346 81.5107 55.1194 83.2504 55.3601 84.9037C54.943 85.438 54.5174 85.9281 54.0845 86.3722C53.618 86.8509 53.1466 87.2729 52.6714 87.6382C51.1354 87.8171 49.5729 87.9091 47.9888 87.9091C46.4048 87.9091 44.8423 87.8171 43.3063 87.6382C42.8311 87.2729 42.3597 86.8509 41.8932 86.3722C39.9179 84.3455 38.0929 81.3608 36.539 77.5913C35.5468 75.1844 34.6731 72.477 33.9435 69.5278ZM69.8638 72.6935L63.4596 83.6451L63.4994 83.6819L63.5526 83.6978L70.8049 73.178L70.7191 73.1329C70.4351 72.9834 70.15 72.837 69.8638 72.6935ZM71.9482 71.5196L76.1857 65.3728C77.0358 64.1398 78.2245 63.151 79.6172 62.5186L84.3416 60.3731C82.4768 60.9506 80.4173 60.7713 78.6915 59.7929C76.9657 58.8145 75.8301 57.1825 75.4934 55.3569L75.7083 60.3026C75.7717 61.7605 75.406 63.2159 74.6529 64.5038L70.8754 70.9636C71.1345 71.0943 71.3929 71.2274 71.6503 71.3629L71.9482 71.5196Z"/>
</mask>
<path d="M31.4932 47L29.4933 46.9816L29.4748 49H31.4932V47ZM64.4845 47V49H66.5029L66.4844 46.9816L64.4845 47ZM62.4965 28.3712L64.4507 27.9457L63.9917 25.8374L61.9242 26.4548L62.4965 28.3712ZM33.471 28.4182L34.037 26.4999L31.973 25.8909L31.5165 27.994L33.471 28.4182ZM64.4836 49L66.4835 49.0201L66.5038 47H64.4836V49ZM31.4941 49V47H29.4739L29.4942 49.0201L31.4941 49ZM33.4896 67.5763L31.5356 68.0028L31.9938 70.1021L34.0549 69.4948L33.4896 67.5763ZM62.4779 67.6233L61.9064 69.5399L63.9709 70.1555L64.4316 68.051L62.4779 67.6233ZM31.5563 27.8119L33.5097 28.2408L33.8938 26.4916L32.1975 25.9175L31.5563 27.8119ZM29.4932 47V49H31.4752L31.4931 47.018L29.4932 47ZM24.1589 24.6371L25.0901 22.8672L24.1589 24.6371ZM18.0706 21.4341L19.0018 19.6641L17.6162 18.9351L16.576 20.1052L18.0706 21.4341ZM8 47L6.00055 46.9531L5.95251 49H8V47ZM8.00224 49V47H5.95015L6.0029 49.0514L8.00224 49ZM29.494 49L31.4939 48.9803L31.4744 47H29.494V49ZM18.1258 74.5369L16.6339 75.8689L17.6744 77.0343L19.057 76.3069L18.1258 74.5369ZM24.1589 71.3629L23.2277 69.5929H23.2277L24.1589 71.3629ZM31.5749 68.1818L32.2153 70.0765L33.9145 69.5021L33.5279 67.7507L31.5749 68.1818ZM66.4837 49V47H64.5034L64.4838 48.9803L66.4837 49ZM70.2873 49L71.5434 50.5563L75.9498 47H70.2873V49ZM67.3047 55.4345L69.3028 55.3477V55.3477L67.3047 55.4345ZM67.5383 60.8126L69.2648 61.8222L69.562 61.314L69.5365 60.7258L67.5383 60.8126ZM65.0138 65.1298L63.0455 64.7749L66.7402 66.1394L65.0138 65.1298ZM73.0298 47V49H73.6779L74.2028 48.6199L73.0298 47ZM66.4846 47L64.4846 47.018L64.5025 49H66.4846V47ZM64.4097 27.7585L63.7624 25.8662L62.0722 26.4444L62.4566 28.1888L64.4097 27.7585ZM71.6503 24.6371L72.5815 26.4071V26.4071L71.6503 24.6371ZM77.8532 21.3737L79.3452 20.0418L78.3047 18.8763L76.922 19.6037L77.8532 21.3737ZM87.9779 47.0123L87.6652 48.9877L90.0329 49.3626L89.9774 46.966L87.9779 47.0123ZM82.7259 47L81.2251 48.3219L81.8223 49H82.7259V47ZM81.1799 45.7482L80.1935 47.488L80.1935 47.488L81.1799 45.7482ZM74.1667 46.1768L75.3397 47.7968L74.1667 46.1768ZM83.8755 49V47H81.1072L81.9768 49.6282L83.8755 49ZM84.1482 51.2124L82.1536 51.0652L81.8721 54.8791L85.1651 52.9346L84.1482 51.2124ZM87.9204 50.3103L87.7936 52.3063L89.8002 52.4338L89.9171 50.4265L87.9204 50.3103ZM87.9757 48.988L89.975 49.0388L90.036 46.6424L87.6674 47.0119L87.9757 48.988ZM33.9226 26.466L31.9805 25.9881L31.5251 27.8389L33.3519 28.3828L33.9226 26.466ZM62.0435 26.419L62.6206 28.3339L64.4408 27.7854L63.9853 25.9398L62.0435 26.419ZM36.539 18.3178L34.69 17.5556L36.539 18.3178ZM41.8932 9.53691L40.4609 8.14098V8.14098L41.8932 9.53691ZM43.3065 8.27084L43.0751 6.28427L42.5259 6.34823L42.0875 6.68524L43.3065 8.27084ZM52.6713 8.27085L53.8903 6.68526L53.4519 6.34825L52.9027 6.28428L52.6713 8.27085ZM54.0845 9.53691L55.5168 8.14099V8.14098L54.0845 9.53691ZM59.4387 18.3178L57.5896 19.0801L57.5897 19.0801L59.4387 18.3178ZM76.4317 19.8617L77.3629 21.6317L79.7533 20.3741L77.853 18.4546L76.4317 19.8617ZM70.7191 22.8671L71.6503 24.6371L70.7191 22.8671ZM56.1578 8.83388L56.5637 6.8755L50.7034 5.66083L54.656 10.1547L56.1578 8.83388ZM61.2878 17.5556L59.4387 18.3178V18.3178L61.2878 17.5556ZM63.9509 25.8012L62.0101 26.2843L62.5387 28.4076L64.606 27.6909L63.9509 25.8012ZM32.0135 25.8548L31.3648 27.7466L33.4291 28.4545L33.9546 26.3364L32.0135 25.8548ZM25.0901 22.8672L26.0213 21.0972L25.0901 22.8672ZM34.69 17.5556L32.8409 16.7933L34.69 17.5556ZM39.82 8.83385L41.3217 10.1547L45.2743 5.66082L39.4141 6.87547L39.82 8.83385ZM19.4883 19.92L18.0642 18.5158L16.1718 20.4351L18.5571 21.69L19.4883 19.92ZM25.0901 73.1329L26.0213 74.9028H26.0213L25.0901 73.1329ZM19.5475 76.0489L18.6162 74.2789L16.2257 75.5366L18.1262 77.456L19.5475 76.0489ZM32.0343 70.1381L33.9749 69.6542L33.4477 67.5402L31.3864 68.2459L32.0343 70.1381ZM34.69 78.3536L32.8409 79.1158L34.69 78.3536ZM39.8199 87.0752L39.414 89.0336L45.2742 90.2482L41.3217 85.7543L39.8199 87.0752ZM62.0226 69.5747L63.9637 70.0564L64.4223 68.2082L62.5989 67.6595L62.0226 69.5747ZM33.9435 69.5278L33.3736 67.6107L31.5435 68.1547L32.002 70.0081L33.9435 69.5278ZM61.7138 70.773L63.4403 71.7826L63.5763 71.55L63.6459 71.2897L61.7138 70.773ZM56.345 79.9539L58.0715 80.9635L58.0715 80.9635L56.345 79.9539ZM55.3601 84.9037L56.9366 86.1345L57.4624 85.461L57.3393 84.6155L55.3601 84.9037ZM54.0845 86.3722L55.5168 87.7682L55.5168 87.7682L54.0845 86.3722ZM52.6714 87.6382L52.9028 89.6248L53.452 89.5608L53.8904 89.2238L52.6714 87.6382ZM43.3063 87.6382L42.0873 89.2238L42.5257 89.5608L43.075 89.6248L43.3063 87.6382ZM41.8932 86.3722L40.4609 87.7682H40.4609L41.8932 86.3722ZM36.539 77.5913L34.69 78.3536V78.3536L36.539 77.5913ZM63.4596 83.6451L61.7331 82.6355L60.9211 84.0241L62.1033 85.115L63.4596 83.6451ZM69.8638 72.6935L70.7602 70.9056L69.0839 70.0652L68.1373 71.6839L69.8638 72.6935ZM63.4994 83.6819L62.1432 85.1518L62.4826 85.465L62.9249 85.5976L63.4994 83.6819ZM63.5526 83.6978L62.9781 85.6136L64.3728 86.0318L65.1992 84.833L63.5526 83.6978ZM70.8049 73.178L72.4515 74.3132L73.7308 72.4575L71.7362 71.408L70.8049 73.178ZM70.7191 73.1329L71.6504 71.3629L71.6503 71.3629L70.7191 73.1329ZM76.1857 65.3728L74.5391 64.2377L74.5391 64.2377L76.1857 65.3728ZM71.9482 71.5196L71.017 73.2896L72.5875 74.1159L73.5948 72.6548L71.9482 71.5196ZM79.6172 62.5186L78.7902 60.6976L79.6172 62.5186ZM84.3416 60.3731L85.1686 62.1941L83.7499 58.4626L84.3416 60.3731ZM78.6915 59.7929L77.7051 61.5327L78.6915 59.7929ZM75.4934 55.3569L77.4603 54.9943L73.4953 55.4437L75.4934 55.3569ZM75.7083 60.3026L73.7102 60.3894L75.7083 60.3026ZM74.6529 64.5038L72.9264 63.4942H72.9264L74.6529 64.5038ZM70.8754 70.9636L69.1489 69.954L68.0748 71.7907L69.9745 72.7492L70.8754 70.9636ZM71.6503 71.3629L70.7191 73.1329H70.7191L71.6503 71.3629ZM47.9046 45H31.4932V49H47.9046V45ZM64.4845 45H47.9046V49H64.4845V45ZM66.4844 46.9816C66.4214 40.1215 65.694 33.6565 64.4507 27.9457L60.5423 28.7966C61.7229 34.2198 62.4239 40.4107 62.4846 47.0184L66.4844 46.9816ZM61.9242 26.4548C52.8319 29.1699 43.1361 29.1849 34.037 26.4999L32.905 30.3364C42.7471 33.2406 53.2338 33.2244 63.0687 30.2876L61.9242 26.4548ZM31.5165 27.994C30.2797 33.6929 29.5561 40.1408 29.4933 46.9816L33.4932 47.0184C33.5536 40.4293 34.2509 34.2546 35.4255 28.8424L31.5165 27.994ZM47.9046 51H64.4836V47H47.9046V51ZM31.4941 51H47.9046V47H31.4941V51ZM29.4942 49.0201C29.563 55.8615 30.2927 62.308 31.5356 68.0028L35.4436 67.1499C34.2634 61.7423 33.5603 55.5694 33.494 48.9799L29.4942 49.0201ZM34.0549 69.4948C43.1428 66.8169 52.8251 66.8319 61.9064 69.5399L63.0494 65.7067C53.2265 62.7775 42.7544 62.7613 32.9243 65.6579L34.0549 69.4948ZM64.4316 68.051C65.6809 62.3443 66.4145 55.8808 66.4835 49.0201L62.4837 48.9799C62.4172 55.588 61.7104 61.7771 60.5241 67.1956L64.4316 68.051ZM29.6028 27.383C28.3062 33.2882 27.5566 39.9473 27.4932 46.982L31.4931 47.018C31.5542 40.2372 32.2771 33.8549 33.5097 28.2408L29.6028 27.383ZM23.2277 26.4071C25.7199 27.7183 28.2909 28.8181 30.915 29.7063L32.1975 25.9175C29.7716 25.0964 27.3947 24.0797 25.0901 22.8672L23.2277 26.4071ZM17.1394 23.2041L23.2277 26.4071L25.0901 22.8672L19.0018 19.6641L17.1394 23.2041ZM9.99945 47.0469C10.218 37.7354 13.7923 29.256 19.5653 22.763L16.576 20.1052C10.1975 27.2792 6.24217 36.6587 6.00055 46.9531L9.99945 47.0469ZM29.4932 45H8V49H29.4932V45ZM8.00224 51H29.494V47H8.00224V51ZM19.6177 73.2049C13.8319 66.7244 10.2409 58.2542 10.0016 48.9486L6.0029 49.0514C6.26746 59.3395 10.2413 68.7087 16.6339 75.8689L19.6177 73.2049ZM23.2277 69.5929L17.1946 72.7669L19.057 76.3069L25.0901 73.1329L23.2277 69.5929ZM30.9344 66.2871C28.3035 67.1765 25.7261 68.2784 23.2277 69.5929L25.0901 73.1329C27.4004 71.9174 29.7833 70.8986 32.2153 70.0765L30.9344 66.2871ZM27.4941 49.0197C27.5636 56.0546 28.3193 62.712 29.6219 68.6129L33.5279 67.7507C32.2896 62.1414 31.5609 55.7612 31.4939 48.9803L27.4941 49.0197ZM66.4837 51H70.2873V47H66.4837V51ZM69.3028 55.3477C69.225 53.556 70.0347 51.774 71.5434 50.5563L69.0312 47.4437C66.5841 49.4187 65.1709 52.3979 65.3066 55.5213L69.3028 55.3477ZM69.5365 60.7258L69.3028 55.3477L65.3066 55.5213L65.5402 60.8994L69.5365 60.7258ZM66.7402 66.1394L69.2648 61.8222L65.8119 59.803L63.2873 64.1202L66.7402 66.1394ZM64.4838 48.9803C64.4285 54.5875 63.9205 59.9223 63.0455 64.7749L66.982 65.4848C67.8991 60.399 68.4262 54.8394 68.4836 49.0197L64.4838 48.9803ZM73.0298 45H66.4846V49H73.0298V45ZM62.4566 28.1888C63.6962 33.8155 64.4234 40.2162 64.4846 47.018L68.4845 46.982C68.4209 39.9255 67.6669 33.247 66.3629 27.3282L62.4566 28.1888ZM70.7191 22.8671C68.4622 24.0545 66.136 25.0542 63.7624 25.8662L65.0571 29.6509C67.6248 28.7725 70.1409 27.6912 72.5815 26.4071L70.7191 22.8671ZM76.922 19.6037L70.7191 22.8671L72.5815 26.4071L78.7844 23.1437L76.922 19.6037ZM89.9774 46.966C89.7381 36.6362 85.7594 27.2269 79.3452 20.0418L76.3613 22.7056C82.1666 29.2087 85.762 37.7151 85.9784 47.0587L89.9774 46.966ZM88.2906 45.0369C88.1362 45.0125 87.979 45 87.8203 45V49C87.7689 49 87.7169 48.9959 87.6652 48.9877L88.2906 45.0369ZM87.8203 45H82.7259V49H87.8203V45ZM80.1935 47.488C80.5973 47.717 80.9423 48.0009 81.2251 48.3219L84.2267 45.6781C83.6493 45.0225 82.9565 44.4563 82.1662 44.0083L80.1935 47.488ZM75.3397 47.7968C76.7822 46.7523 78.713 46.6487 80.1935 47.488L82.1662 44.0083C79.2928 42.3793 75.676 42.6148 72.9938 44.5569L75.3397 47.7968ZM74.2028 48.6199L75.3397 47.7968L72.9938 44.5569L71.8569 45.3801L74.2028 48.6199ZM81.9768 49.6282C82.1275 50.0837 82.1902 50.5699 82.1536 51.0652L86.1428 51.3597C86.2185 50.3342 86.0885 49.3213 85.7743 48.3718L81.9768 49.6282ZM85.1651 52.9346C85.9643 52.4627 86.8879 52.2487 87.7936 52.3063L88.0473 48.3143C86.3536 48.2067 84.6312 48.6046 83.1313 49.4903L85.1651 52.9346ZM89.9171 50.4265C89.9439 49.9658 89.9632 49.5032 89.975 49.0388L85.9763 48.9372C85.9656 49.358 85.9481 49.777 85.9238 50.1941L89.9171 50.4265ZM87.8203 51C87.9768 51 88.1318 50.9878 88.2839 50.9641L87.6674 47.0119C87.7184 47.004 87.7695 47 87.8203 47V51ZM83.8755 51H87.8203V47H83.8755V51ZM33.3519 28.3828C42.8985 31.2252 53.0813 31.2089 62.6206 28.3339L61.4664 24.5041C52.6756 27.1534 43.2909 27.1685 34.4933 24.5492L33.3519 28.3828ZM34.69 17.5556C33.645 20.0904 32.7347 22.9232 31.9805 25.9881L35.8647 26.9439C36.5781 24.0447 37.4296 21.4052 38.3881 19.0801L34.69 17.5556ZM40.4609 8.14098C38.2489 10.4106 36.3029 13.6428 34.69 17.5556L38.3881 19.0801C39.8829 15.4539 41.5868 12.7167 43.3255 10.9328L40.4609 8.14098ZM42.0875 6.68524C41.5293 7.11437 40.9871 7.60111 40.4609 8.14098L43.3255 10.9328C43.7324 10.5153 44.1331 10.158 44.5254 9.85644L42.0875 6.68524ZM47.9888 6C46.3274 6 44.6876 6.09647 43.0751 6.28427L43.5378 10.2574C44.9971 10.0875 46.4823 10 47.9888 10V6ZM52.9027 6.28428C51.2901 6.09647 49.6503 6 47.9888 6V10C49.4953 10 50.9806 10.0875 52.4399 10.2574L52.9027 6.28428ZM55.5168 8.14098C54.9906 7.60111 54.4484 7.11438 53.8903 6.68526L51.4523 9.85645C51.8446 10.158 52.2453 10.5153 52.6523 10.9328L55.5168 8.14098ZM61.2878 17.5556C59.6748 13.6428 57.7288 10.4106 55.5168 8.14099L52.6523 10.9328C54.3909 12.7167 56.0948 15.4539 57.5896 19.0801L61.2878 17.5556ZM63.9853 25.9398C63.2334 22.8934 62.3272 20.0771 61.2878 17.5556L57.5897 19.0801C58.5431 21.3929 59.3907 24.0169 60.1018 26.8982L63.9853 25.9398ZM75.5005 18.0917L69.7879 21.0972L71.6503 24.6371L77.3629 21.6317L75.5005 18.0917ZM55.7519 10.7923C63.2003 12.3361 69.853 16.0594 75.0104 21.2688L77.853 18.4546C72.1574 12.7016 64.8041 8.58351 56.5637 6.8755L55.7519 10.7923ZM63.1368 16.7933C61.6263 13.1291 59.7965 9.94264 57.6595 7.51301L54.656 10.1547C56.4156 12.1553 58.0386 14.9214 59.4387 18.3178L63.1368 16.7933ZM65.8917 25.3181C65.1242 22.2349 64.1999 19.3721 63.1368 16.7933L59.4387 18.3178C60.4172 20.6915 61.2834 23.3647 62.0101 26.2843L65.8917 25.3181ZM69.7879 21.0972C67.6804 22.2059 65.5099 23.144 63.2959 23.9116L64.606 27.6909C67.0088 26.858 69.3639 25.84 71.6503 24.6371L69.7879 21.0972ZM32.6622 23.9629C30.3966 23.186 28.176 22.2308 26.0213 21.0972L24.1589 24.6371C26.4965 25.867 28.906 26.9035 31.3648 27.7466L32.6622 23.9629ZM32.8409 16.7933C31.7716 19.3874 30.8425 22.2689 30.0723 25.3732L33.9546 26.3364C34.684 23.3965 35.5547 20.7056 36.539 18.3178L32.8409 16.7933ZM38.3182 7.51298C36.1812 9.94261 34.3514 13.1291 32.8409 16.7933L36.539 18.3178C37.9391 14.9214 39.5621 12.1553 41.3217 10.1547L38.3182 7.51298ZM20.9125 21.3242C26.0775 16.0858 32.751 12.3415 40.2259 10.7922L39.4141 6.87547C31.1444 8.58951 23.7681 12.7308 18.0642 18.5158L20.9125 21.3242ZM26.0213 21.0972L20.4195 18.15L18.5571 21.69L24.1589 24.6371L26.0213 21.0972ZM24.1589 71.3629L18.6162 74.2789L20.4787 77.8189L26.0213 74.9028L24.1589 71.3629ZM31.3864 68.2459C28.9201 69.0904 26.5033 70.1294 24.1589 71.3629L26.0213 74.9028C28.1823 73.7659 30.4096 72.8084 32.6822 72.0303L31.3864 68.2459ZM36.539 77.5913C35.5638 75.2257 34.7001 72.5624 33.9749 69.6542L30.0938 70.622C30.8597 73.6935 31.7814 76.5457 32.8409 79.1158L36.539 77.5913ZM41.3217 85.7543C39.5621 83.7537 37.9391 80.9877 36.539 77.5913L32.8409 79.1158C34.3514 82.78 36.1812 85.9664 38.3181 88.3961L41.3217 85.7543ZM18.1262 77.456C23.8216 83.2082 31.1743 87.3257 39.414 89.0336L40.2258 85.1168C32.778 83.5731 26.1258 79.8503 20.9687 74.6417L18.1262 77.456ZM62.5989 67.6595C53.0731 64.7933 42.9067 64.777 33.3736 67.6107L34.5134 71.4449C43.2984 68.8335 52.668 68.8485 61.4463 71.4899L62.5989 67.6595ZM63.6459 71.2897C63.7546 70.8831 63.8606 70.4719 63.9637 70.0564L60.0815 69.0931C59.9841 69.4855 59.8841 69.8733 59.7817 70.2562L63.6459 71.2897ZM58.0715 80.9635L63.4403 71.7826L59.9873 69.7634L54.6186 78.9443L58.0715 80.9635ZM57.3393 84.6155C57.1637 83.4101 57.3905 82.1281 58.0715 80.9635L54.6186 78.9443C53.4788 80.8933 53.075 83.0907 53.381 85.1919L57.3393 84.6155ZM55.5168 87.7682C56.0053 87.2669 56.4787 86.721 56.9366 86.1345L53.7837 83.6729C53.4073 84.155 53.0294 84.5893 52.6523 84.9763L55.5168 87.7682ZM53.8904 89.2238C54.4485 88.7947 54.9907 88.308 55.5168 87.7682L52.6523 84.9763C52.2453 85.3938 51.8447 85.7511 51.4524 86.0526L53.8904 89.2238ZM47.9888 89.9091C49.6503 89.9091 51.2902 89.8126 52.9028 89.6248L52.44 85.6516C50.9807 85.8216 49.4954 85.9091 47.9888 85.9091V89.9091ZM43.075 89.6248C44.6876 89.8126 46.3273 89.9091 47.9888 89.9091V85.9091C46.4823 85.9091 44.997 85.8216 43.5377 85.6516L43.075 89.6248ZM40.4609 87.7682C40.9871 88.308 41.5292 88.7947 42.0873 89.2238L44.5253 86.0526C44.1331 85.7511 43.7324 85.3938 43.3255 84.9763L40.4609 87.7682ZM34.69 78.3536C36.3029 82.2663 38.2489 85.4985 40.4609 87.7682L43.3255 84.9763C41.5868 83.1924 39.8829 80.4553 38.3881 76.8291L34.69 78.3536ZM32.002 70.0081C32.752 73.0396 33.6549 75.8427 34.69 78.3536L38.3881 76.8291C37.4387 74.526 36.5942 71.9144 35.885 69.0475L32.002 70.0081ZM65.186 84.6547L71.5902 73.7031L68.1373 71.6839L61.7331 82.6355L65.186 84.6547ZM64.8557 82.212L64.8158 82.1752L62.1033 85.115L62.1432 85.1518L64.8557 82.212ZM64.1271 81.7821L64.0739 81.7662L62.9249 85.5976L62.9781 85.6136L64.1271 81.7821ZM69.1583 72.0428L61.906 82.5627L65.1992 84.833L72.4515 74.3132L69.1583 72.0428ZM69.7878 74.9028L69.8736 74.948L71.7362 71.408L71.6504 71.3629L69.7878 74.9028ZM68.9674 74.4814C69.2419 74.619 69.5154 74.7595 69.7879 74.9028L71.6503 71.3629C71.3547 71.2074 71.058 71.0549 70.7602 70.9056L68.9674 74.4814ZM74.5391 64.2377L70.3016 70.3844L73.5948 72.6548L77.8323 66.508L74.5391 64.2377ZM78.7902 60.6976C77.0746 61.4767 75.5996 62.6993 74.5391 64.2377L77.8323 66.508C78.4719 65.5804 79.3744 64.8254 80.4441 64.3396L78.7902 60.6976ZM83.5146 58.5521L78.7902 60.6976L80.4441 64.3396L85.1686 62.1941L83.5146 58.5521ZM77.7051 61.5327C79.9347 62.7967 82.5681 63.016 84.9332 62.2836L83.7499 58.4626C82.3855 58.8852 80.8999 58.7459 79.6779 58.053L77.7051 61.5327ZM73.5266 55.7196C73.9712 58.1308 75.4688 60.2649 77.7051 61.5327L79.6779 58.053C78.4626 57.3641 77.6889 56.2341 77.4603 54.9943L73.5266 55.7196ZM77.7064 60.2158L77.4916 55.2701L73.4953 55.4437L73.7102 60.3894L77.7064 60.2158ZM76.3793 65.5134C77.3219 63.9016 77.7868 62.0667 77.7064 60.2158L73.7102 60.3894C73.7565 61.4543 73.4901 62.5302 72.9264 63.4942L76.3793 65.5134ZM72.6019 71.9732L76.3793 65.5134L72.9264 63.4942L69.1489 69.954L72.6019 71.9732ZM72.5815 69.5929C72.314 69.4521 72.0456 69.3138 71.7763 69.178L69.9745 72.7492C70.2235 72.8748 70.4717 73.0027 70.7191 73.1329L72.5815 69.5929ZM72.8794 69.7496L72.5815 69.5929L70.7191 73.1329L71.017 73.2896L72.8794 69.7496Z" fill="#F0F0F0" mask="url(#path-1-inside-1_762:1843)"/>
<path d="M71.2737 61.7033L60.1279 80.8427C59.2207 82.4005 59.5009 84.3253 60.8117 85.54L60.8421 85.5682C61.2847 85.9784 61.8215 86.284 62.4115 86.4616L62.452 86.4738C64.199 86.9998 66.1226 86.3296 67.1464 84.8382L79.7259 66.515C80.149 65.8987 80.7409 65.4044 81.4345 65.0881L86.5507 62.755C87.7871 62.1912 88.664 61.0806 88.8902 59.792L89.6177 55.647C89.7658 54.8034 89.3674 53.9693 88.6106 53.5385C87.8273 53.0926 86.8255 53.1724 86.1065 53.7381L84.2456 55.2024C83.3067 55.9411 81.9984 56.0454 80.9754 55.463C79.9524 54.8806 79.4345 53.7368 79.681 52.6039L80.1695 50.3583C80.3582 49.4907 79.9617 48.6149 79.1783 48.1689C78.4216 47.7381 77.4578 47.7967 76.7421 48.3171L73.2252 50.8742C72.1318 51.6691 71.5101 52.9249 71.5663 54.2247L71.799 59.6027C71.8305 60.3319 71.6486 61.0595 71.2737 61.7033Z" fill="#85B0EB" stroke="#F0F0F0" stroke-width="2" stroke-linecap="round" stroke-linejoin="round"/>
</svg>
