<svg width="96" height="96" viewBox="0 0 96 96" fill="none" xmlns="http://www.w3.org/2000/svg">
<path d="M49.0619 50.895L48 49.4212L50.4651 46L52.3072 48.5566C54.4116 51.4772 56.5794 54.3699 59.0473 56.5431H56.4037V59.545C53.5538 57.0353 51.1485 53.7909 49.0619 50.895Z" fill="#F0F0F0"/>
<path d="M48 49.4212L44.914 44.9884C42.8097 42.0679 40.6418 39.1752 38.1739 37.0019L38 34H40.8175C43.6674 36.5097 46.0727 39.7541 48.1593 42.65L50.4651 46L48 49.4212Z" fill="#F0F0F0"/>
<path d="M38 56.5431C40.4678 54.3699 42.6357 51.4772 44.7401 48.5566L46.5822 46L49.0473 49.4212L47.9854 50.895C45.8988 53.7909 43.4935 57.0353 40.6436 59.545V57L38 56.5431Z" fill="#85B0EB"/>
<path d="M49.0619 42.65C51.1485 39.7541 53.5538 36.5097 56.4037 34L59.0473 34.545V37.0019C56.5794 39.1752 54.4116 42.0679 52.3072 44.9884L49.0473 49.4212L46.5822 46L49.0619 42.65Z" fill="#85B0EB"/>
<path d="M28 32C20.268 32 14 38.268 14 46L12 48L10 46C10 36.0589 18.0589 28 28 28C32.2381 28 35.7208 29.9227 38.5963 32.455H35.7788L35.9527 35.4569C33.5105 33.3062 30.9309 32 28 32Z" fill="#F0F0F0"/>
<path d="M68.5963 66C64.3581 66 60.8755 64.0773 58 61.545V58.5431H60.6436C63.0858 60.6938 65.6654 62 68.5963 62C76.3283 62 82.5963 55.732 82.5963 48L84.5963 50L86.5963 48C86.5963 57.9411 78.5374 66 68.5963 66Z" fill="#85B0EB"/>
<path d="M68.5963 28C78.5374 28 86.5963 36.0589 86.5963 46L84.5963 48L82.5963 46C82.5963 38.268 76.3283 32 68.5963 32C65.6654 32 63.0858 33.3062 60.6436 35.4569V33L58 32.455C60.8755 29.9227 64.3581 28 68.5963 28Z" fill="#85B0EB"/>
<path d="M14 48C14 55.732 20.268 62 28 62C30.9309 62 33.5105 60.6938 35.9527 58.5431L38.5963 59V61.545C35.7208 64.0773 32.2382 66 28 66C18.0589 66 10 57.9411 10 48L12 50L14 48Z" fill="#F0F0F0"/>
</svg>
