<svg width="12" height="12" viewBox="0 0 12 12" fill="none" xmlns="http://www.w3.org/2000/svg">
<path d="M1.00003 12C0.802281 12 0.608983 11.9413 0.444573 11.8314C0.280163 11.7215 0.152023 11.5654 0.0763533 11.3827C0.000683263 11.2 -0.01912 10.9989 0.0194476 10.805C0.0580151 10.611 0.153222 10.4329 0.293031 10.293L10.293 0.293017C10.4811 0.108307 10.7345 0.00534721 10.9982 0.00654103C11.2618 0.00773484 11.5142 0.112985 11.7007 0.299392C11.8871 0.485798 11.9923 0.738276 11.9935 1.00189C11.9947 1.26551 11.8917 1.51893 11.707 1.70702L1.70703 11.707C1.6143 11.8 1.5041 11.8738 1.38277 11.9241C1.26144 11.9744 1.13137 12.0002 1.00003 12V12Z" fill="#252835"/>
<path d="M11.0001 12C10.8687 12.0002 10.7387 11.9744 10.6173 11.9241C10.496 11.8738 10.3858 11.8 10.2931 11.707L0.293078 1.70702C0.108368 1.51893 0.00540825 1.26551 0.00660206 1.00189C0.00779588 0.738276 0.113046 0.485798 0.299453 0.299392C0.485859 0.112985 0.738337 0.00773484 1.00195 0.00654103C1.26557 0.00534721 1.51899 0.108307 1.70708 0.293017L11.7071 10.293C11.8469 10.4329 11.9421 10.611 11.9807 10.805C12.0192 10.9989 11.9994 11.2 11.9238 11.3827C11.8481 11.5654 11.7199 11.7215 11.5555 11.8314C11.3911 11.9413 11.1978 12 11.0001 12Z" fill="#252835"/>
</svg>
