<svg width="48" height="48" viewBox="0 0 48 48" fill="none" xmlns="http://www.w3.org/2000/svg">
<path d="M9 36C9 37.6569 10.3431 39 12 39C13.6569 39 15 37.6569 15 36C15 35.2262 14.7071 34.5209 14.226 33.9888C13.6771 33.3816 12.8831 33 12 33C10.3431 33 9 34.3431 9 36Z" fill="#85B0EB"/>
<path d="M14.226 33.9888C14.7071 34.5209 15 35.2262 15 36C15 37.6569 13.6569 39 12 39C10.3431 39 9 37.6569 9 36C9 34.3431 10.3431 33 12 33C12.8831 33 13.6771 33.3816 14.226 33.9888ZM14.226 33.9888L14.3431 33.9471C15.9362 33.3792 17 31.8707 17 30.1793V27" stroke="black" stroke-width="2" stroke-linejoin="round"/>
<mask id="path-3-inside-1" fill="white">
<path fill-rule="evenodd" clip-rule="evenodd" d="M36 28H14C13.4495 28 12.8954 27.9693 12.3453 27.9927C12.2308 27.9975 12.1157 28 12 28C7.58172 28 4 24.4183 4 20C4 15.5817 7.58172 12 12 12C12.1154 12 12.216 11.9196 12.2412 11.8069C13.2409 7.33898 17.2305 4 22 4C25.7345 4 28.9908 6.04709 30.7082 9.08035C31.6784 10.7941 34.0306 12 36 12C40.4183 12 44 15.5817 44 20C44 24.4183 40.4183 28 36 28Z"/>
</mask>
<path fill-rule="evenodd" clip-rule="evenodd" d="M36 28H14C13.4495 28 12.8954 27.9693 12.3453 27.9927C12.2308 27.9975 12.1157 28 12 28C7.58172 28 4 24.4183 4 20C4 15.5817 7.58172 12 12 12C12.1154 12 12.216 11.9196 12.2412 11.8069C13.2409 7.33898 17.2305 4 22 4C25.7345 4 28.9908 6.04709 30.7082 9.08035C31.6784 10.7941 34.0306 12 36 12C40.4183 12 44 15.5817 44 20C44 24.4183 40.4183 28 36 28Z" fill="#F0F0F0"/>
<path d="M30.7082 9.08035L28.9677 10.0657L30.7082 9.08035ZM12.2412 11.8069L14.193 12.2436L12.2412 11.8069ZM12.3453 27.9927L12.2605 25.9945L12.3453 27.9927ZM36 26H14V30H36V26ZM12 30C12.144 30 12.2874 29.9969 12.4302 29.9909L12.2605 25.9945C12.1742 25.9981 12.0874 26 12 26V30ZM2 20C2 25.5228 6.47715 30 12 30V26C8.68629 26 6 23.3137 6 20H2ZM12 10C6.47715 10 2 14.4772 2 20H6C6 16.6863 8.68629 14 12 14V10ZM22 2C16.2741 2 11.4892 6.00831 10.2895 11.3702L14.193 12.2436C14.9927 8.66966 18.1869 6 22 6V2ZM32.4486 8.09499C30.3907 4.46027 26.484 2 22 2V6C24.985 6 27.5909 7.6339 28.9677 10.0657L32.4486 8.09499ZM46 20C46 14.4772 41.5228 10 36 10V14C39.3137 14 42 16.6863 42 20H46ZM36 30C41.5228 30 46 25.5228 46 20H42C42 23.3137 39.3137 26 36 26V30ZM28.9677 10.0657C29.6835 11.3299 30.8342 12.2978 32.0295 12.9429C33.2296 13.5905 34.6338 14 36 14V10C35.3968 10 34.6403 9.80652 33.9293 9.42282C33.2136 9.03656 32.7031 8.54456 32.4486 8.09499L28.9677 10.0657ZM12 14C13.05 14 13.9629 13.2717 14.193 12.2436L10.2895 11.3702C10.4691 10.5674 11.1809 10 12 10V14ZM14 26C13.6164 26 12.8485 25.9695 12.2605 25.9945L12.4302 29.9909C12.9422 29.9691 13.2826 30 14 30V26Z" fill="black" mask="url(#path-3-inside-1)"/>
<path d="M8 20C8 17.7909 9.79086 16 12 16" stroke="black" stroke-width="2" stroke-linecap="round" stroke-linejoin="round"/>
<path d="M38 34.5C38 36.1569 36.6569 37.5 35 37.5C33.3431 37.5 32 36.1569 32 34.5C32 33.5679 32.4251 32.735 33.092 32.1848C33.6106 31.757 34.2753 31.5 35 31.5C36.6569 31.5 38 32.8431 38 34.5Z" fill="#85B0EB"/>
<path d="M33.092 32.1848C32.4251 32.735 32 33.5679 32 34.5C32 36.1569 33.3431 37.5 35 37.5C36.6569 37.5 38 36.1569 38 34.5C38 32.8431 36.6569 31.5 35 31.5C34.2753 31.5 33.6106 31.757 33.092 32.1848ZM33.092 32.1848L32.4911 31.7008C31.5482 30.9415 31 29.7961 31 28.5855V27" stroke="black" stroke-width="2" stroke-linejoin="round"/>
<path d="M27 38C27 39.6569 25.6569 41 24 41C22.3431 41 21 39.6569 21 38C21 36.3431 22.3431 35 24 35C25.6569 35 27 36.3431 27 38Z" fill="#85B0EB"/>
<path d="M24 35C22.3431 35 21 36.3431 21 38C21 39.6569 22.3431 41 24 41C25.6569 41 27 39.6569 27 38C27 36.3431 25.6569 35 24 35ZM24 35V27" stroke="black" stroke-width="2"/>
</svg>
