<svg width="96" height="96" viewBox="0 0 96 96" fill="none" xmlns="http://www.w3.org/2000/svg">
<path d="M17 72C17 75.3137 19.6863 78 23 78C26.3137 78 29 75.3137 29 72C29 70.4525 28.4141 69.0418 27.4521 67.9776C26.3541 66.7631 24.7662 66 23 66C19.6863 66 17 68.6863 17 72Z" fill="#85B0EB"/>
<path d="M27.4521 67.9776C28.4141 69.0418 29 70.4525 29 72C29 75.3137 26.3137 78 23 78C19.6863 78 17 75.3137 17 72C17 68.6863 19.6863 66 23 66C24.7662 66 26.3541 66.7631 27.4521 67.9776ZM27.4521 67.9776L30.3431 66.9471C31.9362 66.3792 33 64.8707 33 63.1793V54" stroke="black" stroke-width="2" stroke-linejoin="round"/>
<path fill-rule="evenodd" clip-rule="evenodd" d="M68.8103 54.1884C69.1407 54.1706 69.472 54.1628 69.8025 54.1797C70.0666 54.1932 70.3325 54.2 70.6 54.2C79.1052 54.2 86 47.3052 86 38.8C86 30.2948 79.1052 23.4 70.6 23.4C70.5108 23.4 70.4219 23.4008 70.3331 23.4023C66.6666 23.4646 62.3052 21.2286 60.5431 18.0128C57.2733 12.0458 50.9341 8 43.65 8C34.4688 8 26.7888 14.4275 24.8644 23.0283C24.8158 23.2452 24.6222 23.4 24.4 23.4V23.4C15.8948 23.4 9 30.2948 9 38.8C9 47.3052 15.8948 54.2 24.4 54.2C24.6675 54.2 24.9334 54.1932 25.1975 54.1797C25.528 54.1628 25.8593 54.1706 26.1897 54.1884C26.3338 54.1961 26.479 54.2 26.625 54.2H68.375C68.521 54.2 68.6662 54.1961 68.8103 54.1884Z" fill="#F0F0F0"/>
<path d="M70.3331 23.4023L70.3161 22.4024L70.3331 23.4023ZM25.1975 54.1797L25.2485 55.1784L25.1975 54.1797ZM26.1897 54.1884L26.1362 55.1869L26.1897 54.1884ZM69.8025 54.1797L69.7515 55.1784L69.8025 54.1797ZM68.8103 54.1884L68.8638 55.1869L68.8103 54.1884ZM69.7515 55.1784C70.0326 55.1927 70.3155 55.2 70.6 55.2V53.2C70.3495 53.2 70.1006 53.1936 69.8534 53.181L69.7515 55.1784ZM70.6 55.2C79.6575 55.2 87 47.8575 87 38.8H85C85 46.7529 78.5529 53.2 70.6 53.2V55.2ZM87 38.8C87 29.7425 79.6575 22.4 70.6 22.4V24.4C78.5529 24.4 85 30.8471 85 38.8H87ZM70.6 22.4C70.5052 22.4 70.4105 22.4008 70.3161 22.4024L70.3501 24.4021C70.4332 24.4007 70.5165 24.4 70.6 24.4V22.4ZM61.42 17.5322C57.9819 11.2578 51.3139 7 43.65 7V9C50.5544 9 56.5648 12.8337 59.6661 18.4933L61.42 17.5322ZM43.65 7C33.9906 7 25.913 13.7622 23.8885 22.81L25.8402 23.2467C27.6647 15.0929 34.947 9 43.65 9V7ZM24.4 22.4C15.3425 22.4 8 29.7425 8 38.8H10C10 30.8471 16.4471 24.4 24.4 24.4V22.4ZM8 38.8C8 47.8575 15.3425 55.2 24.4 55.2V53.2C16.4471 53.2 10 46.7529 10 38.8H8ZM24.4 55.2C24.6845 55.2 24.9674 55.1927 25.2485 55.1784L25.1466 53.181C24.8994 53.1936 24.6505 53.2 24.4 53.2V55.2ZM26.625 53.2C26.4968 53.2 26.3696 53.1966 26.2433 53.1898L26.1362 55.1869C26.2981 55.1956 26.4611 55.2 26.625 55.2V53.2ZM68.375 53.2H26.625V55.2H68.375V53.2ZM68.7567 53.1898C68.6304 53.1966 68.5032 53.2 68.375 53.2V55.2C68.5389 55.2 68.7019 55.1956 68.8638 55.1869L68.7567 53.1898ZM23.8885 22.81C23.9424 22.5691 24.1549 22.4 24.4 22.4V24.4C25.0895 24.4 25.6893 23.9213 25.8402 23.2467L23.8885 22.81ZM70.3161 22.4024C68.6797 22.4302 66.8406 21.9415 65.1983 21.0565C63.5539 20.1704 62.1863 18.9306 61.42 17.5322L59.6661 18.4933C60.662 20.3108 62.3562 21.7969 64.2496 22.8172C66.1451 23.8386 68.3199 24.4366 70.3501 24.4021L70.3161 22.4024ZM25.2485 55.1784C25.5309 55.164 25.8241 55.1702 26.1362 55.1869L26.2433 53.1898C25.8944 53.1711 25.5251 53.1617 25.1466 53.181L25.2485 55.1784ZM69.8534 53.181C69.4749 53.1617 69.1056 53.1711 68.7567 53.1898L68.8638 55.1869C69.1759 55.1702 69.4691 55.164 69.7515 55.1784L69.8534 53.181Z" fill="black"/>
<path d="M15 39C15 34.5817 18.5817 31 23 31" stroke="black" stroke-width="2" stroke-linecap="round" stroke-linejoin="round"/>
<path d="M79 69C79 72.3137 76.3137 75 73 75C69.6863 75 67 72.3137 67 69C67 67.1358 67.8502 65.4701 69.184 64.3696C70.2211 63.514 71.5505 63 73 63C76.3137 63 79 65.6863 79 69Z" fill="#85B0EB"/>
<path d="M69.184 64.3696C67.8502 65.4701 67 67.1358 67 69C67 72.3137 69.6863 75 73 75C76.3137 75 79 72.3137 79 69C79 65.6863 76.3137 63 73 63C71.5505 63 70.2211 63.514 69.184 64.3696ZM69.184 64.3696L66.4911 62.2008C65.5482 61.4415 65 60.2961 65 59.0855V54" stroke="black" stroke-width="2" stroke-linejoin="round"/>
<path d="M54 81C54 84.3137 51.3137 87 48 87C44.6863 87 42 84.3137 42 81C42 77.6863 44.6863 75 48 75C51.3137 75 54 77.6863 54 81Z" fill="#85B0EB"/>
<path d="M48 75C44.6863 75 42 77.6863 42 81C42 84.3137 44.6863 87 48 87C51.3137 87 54 84.3137 54 81C54 77.6863 51.3137 75 48 75ZM48 75V55" stroke="black" stroke-width="2"/>
</svg>
