<svg width="96" height="96" viewBox="0 0 96 96" fill="none" xmlns="http://www.w3.org/2000/svg">
<path d="M16 72C16 75.3137 18.6863 78 22 78C25.3137 78 28 75.3137 28 72C28 70.4525 27.4141 69.0418 26.4521 67.9776C25.3541 66.7631 23.7662 66 22 66C18.6863 66 16 68.6863 16 72Z" fill="#85B0EB"/>
<path d="M26.4521 67.9776C27.4141 69.0418 28 70.4525 28 72C28 75.3137 25.3137 78 22 78C18.6863 78 16 75.3137 16 72C16 68.6863 18.6863 66 22 66C23.7662 66 25.3541 66.7631 26.4521 67.9776ZM26.4521 67.9776L29.3431 66.9471C30.9362 66.3792 32 64.8707 32 63.1793V54" stroke="#F0F0F0" stroke-width="2" stroke-linejoin="round"/>
<path d="M23.8644 23.0283L22.8885 22.81L23.8644 23.0283ZM59.5431 18.0128L58.6661 18.4933L59.5431 18.0128ZM24.1974 54.1797L24.2483 55.1784L24.1974 54.1797ZM25.1897 54.1884L25.1361 55.1869L25.1897 54.1884ZM68.8026 54.1797L68.7517 55.1784L68.8026 54.1797ZM67.8104 54.1884L67.8639 55.1869L67.8104 54.1884ZM68.7517 55.1784C69.0327 55.1927 69.3156 55.2 69.6 55.2V53.2C69.3496 53.2 69.1007 53.1936 68.8536 53.181L68.7517 55.1784ZM69.6 55.2C78.6575 55.2 86 47.8574 86 38.8H84C84 46.7529 77.5529 53.2 69.6 53.2V55.2ZM86 38.8C86 29.7425 78.6575 22.4 69.6 22.4V24.4C77.5529 24.4 84 30.8471 84 38.8H86ZM69.6 22.4C69.5052 22.4 69.4105 22.4008 69.3161 22.4024L69.3501 24.4021C69.4332 24.4007 69.5165 24.4 69.6 24.4V22.4ZM60.42 17.5322C56.9818 11.2578 50.3139 7 42.65 7V9C49.5544 9 55.5648 12.8337 58.6661 18.4933L60.42 17.5322ZM42.65 7C32.9906 7 24.913 13.7622 22.8885 22.81L24.8402 23.2467C26.6647 15.0929 33.947 9 42.65 9V7ZM23.4 22.4C14.3425 22.4 7 29.7425 7 38.8H9C9 30.8471 15.4471 24.4 23.4 24.4V22.4ZM7 38.8C7 47.8574 14.3425 55.2 23.4 55.2V53.2C15.4471 53.2 9 46.7529 9 38.8H7ZM23.4 55.2C23.6844 55.2 23.9673 55.1927 24.2483 55.1784L24.1464 53.181C23.8993 53.1936 23.6504 53.2 23.4 53.2V55.2ZM25.625 53.2C25.4968 53.2 25.3695 53.1966 25.2432 53.1898L25.1361 55.1869C25.2981 55.1956 25.4611 55.2 25.625 55.2V53.2ZM67.375 53.2H25.625V55.2H67.375V53.2ZM67.7568 53.1898C67.6305 53.1966 67.5032 53.2 67.375 53.2V55.2C67.5389 55.2 67.7019 55.1956 67.8639 55.1869L67.7568 53.1898ZM22.8885 22.81C22.9424 22.5691 23.155 22.4 23.4 22.4V24.4C24.0895 24.4 24.6893 23.9212 24.8402 23.2467L22.8885 22.81ZM69.3161 22.4024C67.6797 22.4302 65.8406 21.9414 64.1983 21.0565C62.5539 20.1704 61.1863 18.9306 60.42 17.5322L58.6661 18.4933C59.662 20.3108 61.3562 21.7969 63.2496 22.8171C65.1451 23.8385 67.3199 24.4366 69.3501 24.4021L69.3161 22.4024ZM24.2483 55.1784C24.5308 55.164 24.824 55.1702 25.1361 55.1869L25.2432 53.1898C24.8944 53.1711 24.525 53.1617 24.1464 53.181L24.2483 55.1784ZM68.8536 53.181C68.475 53.1617 68.1056 53.1711 67.7568 53.1898L67.8639 55.1869C68.176 55.1702 68.4692 55.164 68.7517 55.1784L68.8536 53.181Z" fill="#F0F0F0"/>
<path d="M14 39C14 34.5817 17.5817 31 22 31" stroke="#F0F0F0" stroke-width="2" stroke-linecap="round" stroke-linejoin="round"/>
<path d="M78 69C78 72.3137 75.3137 75 72 75C68.6863 75 66 72.3137 66 69C66 67.1358 66.8502 65.4701 68.184 64.3696C69.2211 63.514 70.5505 63 72 63C75.3137 63 78 65.6863 78 69Z" fill="#85B0EB"/>
<path d="M68.184 64.3696C66.8502 65.4701 66 67.1358 66 69C66 72.3137 68.6863 75 72 75C75.3137 75 78 72.3137 78 69C78 65.6863 75.3137 63 72 63C70.5505 63 69.2211 63.514 68.184 64.3696ZM68.184 64.3696L65.4911 62.2008C64.5482 61.4415 64 60.2961 64 59.0855V54" stroke="#F0F0F0" stroke-width="2" stroke-linejoin="round"/>
<path d="M53 81C53 84.3137 50.3137 87 47 87C43.6863 87 41 84.3137 41 81C41 77.6863 43.6863 75 47 75C50.3137 75 53 77.6863 53 81Z" fill="#85B0EB"/>
<path d="M47 75C43.6863 75 41 77.6863 41 81C41 84.3137 43.6863 87 47 87C50.3137 87 53 84.3137 53 81C53 77.6863 50.3137 75 47 75ZM47 75V55" stroke="#F0F0F0" stroke-width="2"/>
</svg>
