<svg width="96" height="96" viewBox="0 0 96 96" fill="none" xmlns="http://www.w3.org/2000/svg">
<line x1="17" y1="30" x2="41" y2="30" stroke="#EB5757" stroke-width="2" stroke-linecap="round"/>
<path d="M22 39H42M54 39H48" stroke="#85B0EB" stroke-width="2" stroke-linecap="round"/>
<line x1="21" y1="65" x2="51" y2="65" stroke="#85B0EB" stroke-width="2" stroke-linecap="round"/>
<line x1="25" y1="47" x2="63" y2="47" stroke="#F2C94C" stroke-width="2" stroke-linecap="round"/>
<line x1="25" y1="56" x2="47" y2="56" stroke="#F2C94C" stroke-width="2" stroke-linecap="round"/>
<path d="M52 56H59H60M72 56H66" stroke="#F2C94C" stroke-width="2" stroke-linecap="round"/>
<line x1="17" y1="73" x2="41" y2="73" stroke="#EB5757" stroke-width="2" stroke-linecap="round"/>
<path d="M86.9466 23V79C86.9466 81.2091 85.1557 83 82.9466 83H13.109C10.8999 83 9.10901 81.2091 9.10901 79L9.10907 28M86.9466 23H34.6842H10.1091C9.55679 23 9.10907 22.5523 9.10907 22V17C9.10907 14.7909 10.8999 13 13.1091 13L82.9466 13C85.1557 13 86.9466 14.7909 86.9466 17V23Z" stroke="#F0F0F0" stroke-width="2" stroke-linecap="round" stroke-linejoin="round"/>
<circle cx="15.5" cy="18.5" r="1.5" fill="#EB5757"/>
<circle cx="20.5" cy="18.5" r="1.5" fill="#F2994A"/>
<circle cx="25.5" cy="18.5" r="1.5" fill="#82D480"/>
</svg>
