<svg width="96" height="96" viewBox="0 0 96 96" fill="none" xmlns="http://www.w3.org/2000/svg">
<path fill-rule="evenodd" clip-rule="evenodd" d="M69.3498 27.7098C69.7418 27.3207 69.7442 26.6876 69.3552 26.2956C68.9661 25.9036 68.333 25.9012 67.941 26.2902L65.2047 29.0058C65.9468 29.0624 66.5757 29.524 66.8708 30.1701L69.3498 27.7098ZM63.0506 33.9614V33H61.1801L58.903 35.2598C58.511 35.6489 58.5086 36.282 58.8977 36.674C59.2867 37.066 59.9199 37.0684 60.3119 36.6794L63.0506 33.9614ZM54.2866 42.6591C54.6786 42.2701 54.681 41.6369 54.292 41.2449C53.9029 40.8529 53.2698 40.8505 52.8778 41.2396L49.8651 44.2294C49.4731 44.6185 49.4707 45.2516 49.8598 45.6436C50.2488 46.0356 50.882 46.038 51.274 45.649L54.2866 42.6591ZM45.2487 51.6288C45.6407 51.2397 45.6431 50.6066 45.254 50.2145C44.865 49.8225 44.2318 49.8201 43.8398 50.2092L40.8272 53.1991C40.4352 53.5881 40.4328 54.2213 40.8218 54.6133C41.2109 55.0053 41.844 55.0077 42.236 54.6186L45.2487 51.6288ZM36.2107 60.5984C36.6027 60.2093 36.6051 59.5762 36.2161 59.1842C35.8271 58.7922 35.1939 58.7898 34.8019 59.1788L33.2956 60.6737C32.9036 61.0628 32.9012 61.6959 33.2902 62.0879C33.6793 62.4799 34.3124 62.4823 34.7044 62.0933L36.2107 60.5984Z" fill="#F0F0F0"/>
<path d="M32 22V60C32 62.2091 33.7909 64 36 64L74 64" stroke="black" stroke-width="2" stroke-linecap="round" stroke-linejoin="round"/>
<path fill-rule="evenodd" clip-rule="evenodd" d="M30 29H22C21.4477 29 21 29.4477 21 30C21 30.5523 21.4477 31 22 31H30V29ZM65 62V34C65 32.3431 63.6569 31 62 31H34V29H62C64.7614 29 67 31.2386 67 34V62H65ZM65 66V74C65 74.5523 65.4477 75 66 75C66.5523 75 67 74.5523 67 74V66H65Z" fill="black"/>
</svg>
