<svg width="96" height="96" viewBox="0 0 96 96" fill="none" xmlns="http://www.w3.org/2000/svg">
<path fill-rule="evenodd" clip-rule="evenodd" d="M74.7071 22.7071C75.0976 22.3166 75.0976 21.6834 74.7071 21.2929C74.3166 20.9024 73.6834 20.9024 73.2929 21.2929L70.4241 24.1617C71.0471 24.4481 71.5552 24.9417 71.8599 25.5543L74.7071 22.7071ZM66.1724 31.2418V29.8888H64.6969L62.3364 32.2494C61.9458 32.6399 61.9458 33.2731 62.3364 33.6636C62.7269 34.0542 63.3601 34.0542 63.7506 33.6636L66.1724 31.2418ZM56.4462 40.968C56.8368 40.5775 56.8368 39.9443 56.4462 39.5538C56.0557 39.1632 55.4225 39.1632 55.032 39.5538L51.3799 43.2059C50.9893 43.5965 50.9893 44.2296 51.3799 44.6202C51.7704 45.0107 52.4035 45.0107 52.7941 44.6202L56.4462 40.968ZM45.4897 51.9245C45.8802 51.534 45.8802 50.9008 45.4897 50.5103C45.0992 50.1198 44.466 50.1198 44.0755 50.5103L40.4233 54.1625C40.0328 54.553 40.0328 55.1861 40.4233 55.5767C40.8139 55.9672 41.447 55.9672 41.8375 55.5767L45.4897 51.9245ZM34.5332 62.881C34.9237 62.4905 34.9237 61.8573 34.5332 61.4668C34.1427 61.0763 33.5095 61.0763 33.119 61.4668L31.2929 63.2929C30.9024 63.6834 30.9024 64.3166 31.2929 64.7071C31.6834 65.0976 32.3166 65.0976 32.7071 64.7071L34.5332 62.881Z" fill="#F0F0F0"/>
<path d="M29 17V62.9999C29 65.2091 30.7909 66.9999 33 66.9999H79" stroke="black" stroke-width="2" stroke-linecap="round" stroke-linejoin="round"/>
<path fill-rule="evenodd" clip-rule="evenodd" d="M26 25H17C16.4477 25 16 25.4477 16 26C16 26.5523 16.4477 27 17 27H26V25ZM69 64V30C69 28.3431 67.6569 27 66 27H32V25H66C68.7614 25 71 27.2386 71 30V64H69ZM69 70V79C69 79.5523 69.4477 80 70 80C70.5523 80 71 79.5523 71 79V70H69Z" fill="black"/>
</svg>
