<svg width="96" height="96" viewBox="0 0 96 96" fill="none" xmlns="http://www.w3.org/2000/svg">
<circle cx="25" cy="73" r="2" fill="#85B0EB"/>
<circle cx="25" cy="54" r="2" fill="#85B0EB"/>
<circle cx="25" cy="36" r="2" fill="#85B0EB"/>
<path fill-rule="evenodd" clip-rule="evenodd" d="M48 14.0588C39.4941 14.0588 31.8258 14.884 26.3122 16.2023C23.5475 16.8633 21.3802 17.6354 19.9282 18.4562C18.5884 19.2135 18.1173 19.8583 18.0202 20.2955H18.1284C18.1284 21.1561 18.6912 22.1617 20.1519 23.2363C21.5925 24.2959 23.741 25.2922 26.4859 26.1463C31.9636 27.8506 39.5923 28.9201 48.0625 28.9201C56.5326 28.9201 64.1613 27.8506 69.6391 26.1463C72.3839 25.2922 74.5325 24.2959 75.973 23.2363C77.3851 22.1976 77.958 21.2233 77.9946 20.382C77.9429 19.9458 77.5031 19.2652 76.0718 18.4562C74.6198 17.6354 72.4525 16.8633 69.6878 16.2023C64.1742 14.884 56.5059 14.0588 48 14.0588ZM79.9947 20.2955C79.9021 18.7642 78.6027 17.5894 77.056 16.7151C75.3705 15.7623 72.998 14.9374 70.1528 14.2571C64.4467 12.8928 56.6149 12.0588 48 12.0588C39.3851 12.0588 31.5533 12.8928 25.8472 14.2571C23.002 14.9374 20.6295 15.7623 18.944 16.7151C17.3389 17.6224 16 18.8534 16 20.4706V37.4118V47.2437V56.4706V74.0168C16 75.753 17.2148 77.1883 18.8735 78.3173C20.5655 79.469 22.9484 80.4665 25.803 81.2883C31.5258 82.9358 39.3733 83.9412 48 83.9412C56.6267 83.9412 64.4742 82.9358 70.197 81.2883C73.0516 80.4665 75.4345 79.469 77.1265 78.3173C78.7852 77.1883 80 75.753 80 74.0168V56.4706V47.2437V37.4118L80 20.4706C80 20.4221 79.9988 20.3739 79.9964 20.3261L79.9965 20.2955H79.9947ZM78 24.1618C77.7378 24.3997 77.456 24.6282 77.1581 24.8473C75.468 26.0906 73.0863 27.1683 70.2332 28.056C64.5151 29.8351 56.6767 30.9201 48.0625 30.9201C39.4482 30.9201 31.6099 29.8351 25.8917 28.056C23.0386 27.1683 20.657 26.0906 18.9668 24.8473C18.6211 24.593 18.2968 24.3259 18 24.0463V37.4118C18 38.2538 18.558 39.2466 20.024 40.3121C21.4681 41.3616 23.622 42.3484 26.3735 43.1942C31.8644 44.8821 39.5107 45.9412 48 45.9412C56.4893 45.9412 64.1356 44.8821 69.6265 43.1942C72.378 42.3484 74.5319 41.3616 75.976 40.3121C77.442 39.2466 78 38.2538 78 37.4118V24.1618ZM78 41.2471C77.7358 41.4843 77.4518 41.712 77.1518 41.93C75.4584 43.1607 73.0725 44.2273 70.2141 45.1059C64.4852 46.867 56.6315 47.9412 48 47.9412C39.3685 47.9412 31.5148 46.867 25.7859 45.1059C22.9275 44.2273 20.5416 43.1607 18.8482 41.93C18.5482 41.712 18.2642 41.4843 18 41.2471V47.2437V56.4706C18 56.9001 18.396 57.619 19.9282 58.4851C21.3802 59.3058 23.5475 60.0779 26.3122 60.7389C31.8258 62.0572 39.4941 62.8824 48 62.8824C56.5059 62.8824 64.1741 62.0572 69.6878 60.7389C72.4525 60.0779 74.6198 59.3058 76.0718 58.4851C77.604 57.619 78 56.9001 78 56.4706V47.2437V41.2471ZM78 59.627C77.7027 59.8407 77.3849 60.0402 77.056 60.2261C75.3705 61.1789 72.998 62.0038 70.1528 62.6841C64.4467 64.0484 56.6149 64.8824 48 64.8824C39.3851 64.8824 31.5533 64.0484 25.8472 62.6841C23.002 62.0038 20.6295 61.1789 18.944 60.2261C18.6151 60.0402 18.2973 59.8407 18 59.627V74.0168C18 74.7451 18.5201 75.6574 19.9988 76.6639C21.4441 77.6476 23.6011 78.5731 26.3563 79.3663C31.8534 80.9488 39.5059 81.9412 48 81.9412C56.4941 81.9412 64.1466 80.9488 69.6437 79.3663C72.3989 78.5731 74.5559 77.6476 76.0012 76.6639C77.4799 75.6574 78 74.7451 78 74.0168V59.627Z" fill="#F0F0F0"/>
</svg>
