<svg width="21" height="24" viewBox="0 0 21 24" fill="none" xmlns="http://www.w3.org/2000/svg">
<path d="M9.06959 20.5029C9.06957 20.3562 9.03729 20.2114 8.97505 20.0786C8.9128 19.9458 8.82211 19.8283 8.7094 19.7345C8.5967 19.6406 8.46473 19.5727 8.32286 19.5356C8.18098 19.4984 8.03267 19.4929 7.88844 19.5195C6.57936 19.7597 4.92653 19.7958 4.48707 18.5615C4.10388 17.6055 3.46914 16.771 2.65016 16.1465C2.59173 16.1147 2.53603 16.0781 2.48366 16.0371C2.41198 15.848 2.28467 15.6851 2.11852 15.5699C1.95237 15.4546 1.75519 15.3925 1.55299 15.3916H1.54811C1.28371 15.3915 1.03004 15.4961 0.842621 15.6827C0.655204 15.8692 0.549308 16.1223 0.54811 16.3867C0.5442 17.2021 1.35911 17.7246 1.68971 17.9014C2.07955 18.2931 2.39286 18.7541 2.61354 19.2607C2.9778 20.2842 4.03639 21.8369 7.07936 21.6367C7.08036 21.6719 7.08131 21.7051 7.0818 21.7354L7.08619 22.0029C7.08619 22.2682 7.19155 22.5225 7.37908 22.71C7.56662 22.8976 7.82097 23.0029 8.08619 23.0029C8.35141 23.0029 8.60576 22.8976 8.7933 22.71C8.98083 22.5225 9.08619 22.2682 9.08619 22.0029L9.08131 21.6846C9.07643 21.4951 9.06959 21.2206 9.06959 20.5029ZM19.7366 5.37688C19.7683 5.25188 19.7996 5.11321 19.8269 4.95696C19.9887 3.84255 19.8477 2.70515 19.4187 1.66396C19.3646 1.52822 19.2814 1.40596 19.1751 1.30576C19.0687 1.20556 18.9417 1.12983 18.803 1.08389C18.447 0.963767 17.1326 0.727437 14.6189 2.33389C12.5295 1.84218 10.3544 1.84218 8.26492 2.33389C5.76149 0.750967 4.45387 0.965767 4.10133 1.07905C3.95919 1.12313 3.82872 1.19845 3.71948 1.29951C3.61023 1.40056 3.52498 1.52477 3.46998 1.66305C3.03228 2.72423 2.89282 3.88482 3.06666 5.01949C3.09108 5.14742 3.11744 5.26559 3.14479 5.37398C2.31636 6.47742 1.8751 7.82334 1.88942 9.20308C1.88672 9.51091 1.9009 9.81866 1.9319 10.1249C2.2659 14.7275 5.2659 16.1093 7.35621 16.5839C7.31276 16.7089 7.27321 16.8427 7.23805 16.9843C7.17539 17.2416 7.21732 17.5133 7.35465 17.7397C7.49198 17.9661 7.71349 18.1289 7.97062 18.1922C8.22775 18.2555 8.4995 18.2143 8.7263 18.0776C8.95309 17.9409 9.1164 17.7198 9.18043 17.4628C9.24406 17.1297 9.40715 16.8236 9.64821 16.5849C9.79397 16.4573 9.8995 16.2901 9.95196 16.1036C10.0044 15.9171 10.0016 15.7194 9.94374 15.5345C9.8859 15.3496 9.77558 15.1855 9.6262 15.0622C9.47681 14.9389 9.2948 14.8616 9.10231 14.8398C5.64821 14.4453 4.14869 13.038 3.92311 9.94137C3.89812 9.69609 3.88687 9.44962 3.88942 9.20309C3.87338 8.21974 4.19825 7.26116 4.80885 6.4902C4.8702 6.40982 4.93555 6.33257 5.00465 6.25875C5.12708 6.12175 5.2094 5.95367 5.24256 5.77295C5.27573 5.59224 5.25846 5.40588 5.19265 5.23434C5.12519 5.05387 5.07324 4.86797 5.03738 4.67867C4.95591 4.14038 4.98263 3.59126 5.11598 3.06343C5.98511 3.3089 6.8031 3.70847 7.53098 4.24311C7.65135 4.32328 7.78755 4.37663 7.93035 4.39955C8.07315 4.42247 8.21921 4.41441 8.35862 4.37593C10.3797 3.82743 12.5105 3.82777 14.5315 4.37693C14.6716 4.41537 14.8185 4.42297 14.9619 4.39919C15.1052 4.37542 15.2418 4.32085 15.362 4.23924C16.0865 3.70238 16.9011 3.29923 17.7673 3.04881C17.9001 3.56396 17.9298 4.10026 17.8547 4.62693C17.8185 4.83446 17.7619 5.03793 17.6858 5.23436C17.62 5.4059 17.6027 5.59226 17.6358 5.77297C17.669 5.95369 17.7513 6.12177 17.8738 6.25877C17.9509 6.34568 18.0281 6.43943 18.0974 6.52732C18.7037 7.28523 19.0231 8.23279 18.9993 9.20308C19.0011 9.46269 18.9885 9.7222 18.9617 9.98042C18.7415 13.0361 17.2361 14.4443 13.7659 14.8398C13.5733 14.8617 13.3913 14.9391 13.2419 15.0626C13.0926 15.186 12.9823 15.3502 12.9245 15.5352C12.8667 15.7202 12.864 15.918 12.9165 16.1045C12.969 16.291 13.0746 16.4583 13.2205 16.5859C13.4691 16.8309 13.6326 17.1492 13.6868 17.4941C13.7544 17.7618 13.7854 18.0374 13.7791 18.3134V20.6474C13.7693 21.2949 13.7693 21.7802 13.7693 22.0029C13.7693 22.2681 13.8746 22.5224 14.0622 22.71C14.2497 22.8975 14.5041 23.0029 14.7693 23.0029C15.0345 23.0029 15.2888 22.8975 15.4764 22.71C15.6639 22.5224 15.7693 22.2681 15.7693 22.0029C15.7693 21.7861 15.7693 21.3105 15.779 20.663V18.3134C15.7871 17.8713 15.735 17.43 15.6243 17.0019C15.5926 16.8614 15.5538 16.7225 15.508 16.5859C17.0293 16.3332 18.4115 15.5488 19.4087 14.3725C20.4058 13.1962 20.9532 11.7042 20.9534 10.1621C20.9863 9.84349 21.0016 9.52334 20.9993 9.20308C21.0215 7.82185 20.5765 6.4736 19.7366 5.3769L19.7366 5.37688Z" fill="#252835"/>
</svg>
