<svg width="22" height="18" viewBox="0 0 22 18" fill="none" xmlns="http://www.w3.org/2000/svg">
<path d="M15.6154 1C13.8556 1 11.9451 2.46662 11 4.06667C10.0549 2.46662 8.14437 1 6.3846 1C3.30567 1 1 2.96536 1 6.26268C1 7.68486 1.5608 9.53195 2.82692 11.0653C4.09295 12.5987 4.84607 13.4153 7.29804 15.0653C8.91573 16.1539 10.0102 16.6482 10.5678 16.8586C10.8482 16.9644 11.1518 16.9644 11.4322 16.8586C11.9898 16.6482 13.0843 16.1539 14.702 15.0653C17.1539 13.4153 17.9071 12.5987 19.1731 11.0653C20.4392 9.53195 21 7.68486 21 6.26268C21 2.96536 18.6943 1 15.6154 1Z" fill="#ED7D7D" stroke="black" stroke-width="2" stroke-linejoin="round"/>
</svg>
