<svg width="96" height="96" viewBox="0 0 96 96" fill="none" xmlns="http://www.w3.org/2000/svg">
<path fill-rule="evenodd" clip-rule="evenodd" d="M13.1091 12C10.3476 12 8.10907 14.2386 8.10907 17V22C8.10907 23.1046 9.0045 24 10.1091 24H34.6842H85.9465V51H87.9465V23V17C87.9465 14.2386 85.708 12 82.9465 12H13.1091ZM60.2933 84L57.1049 82H13.109C11.4522 82 10.109 80.6569 10.109 79L10.1091 28C10.1091 27.4477 9.66136 27 9.10907 27C8.55679 27 8.10907 27.4477 8.10907 28L8.10901 79C8.10901 81.7614 10.3476 84 13.109 84H60.2933ZM85.9465 17V22H34.6842H10.1091V17C10.1091 15.3431 11.4522 14 13.1091 14H82.9465C84.6034 14 85.9465 15.3431 85.9465 17Z" fill="#F0F0F0"/>
<path d="M57 49L59.3333 35" stroke="#F0F0F0" stroke-width="2" stroke-linecap="round" stroke-linejoin="round"/>
<path d="M66 35L73 41.2222L66 49" stroke="#F0F0F0" stroke-width="2" stroke-linecap="round" stroke-linejoin="round"/>
<path d="M24 34L17 40.2222L24 48" stroke="#F0F0F0" stroke-width="2" stroke-linecap="round" stroke-linejoin="round"/>
<path d="M17 18.5C17 19.3284 16.3284 20 15.5 20C14.6716 20 14 19.3284 14 18.5C14 17.6716 14.6716 17 15.5 17C16.3284 17 17 17.6716 17 18.5Z" fill="#EB5757"/>
<circle cx="20.5" cy="18.5" r="1.5" fill="#F2994A"/>
<circle cx="25.5" cy="18.5" r="1.5" fill="#82D480"/>
<circle cx="48" cy="47" r="2" fill="#F0F0F0"/>
<circle cx="40" cy="47" r="2" fill="#F0F0F0"/>
<circle cx="32" cy="47" r="2" fill="#F0F0F0"/>
<path d="M86.0393 78.5482L87.9055 57.0866C87.9563 56.5024 87.4957 56 86.9093 56H74V87.7974L85.6343 79.2681C85.8667 79.0977 86.0143 78.8353 86.0393 78.5482Z" fill="#DF6D3C"/>
<path d="M62.3655 79.2681L74 87.8016V56H61.0907C60.5043 56 60.0437 56.5024 60.0945 57.0866L61.9607 78.5484C61.9857 78.8354 62.1332 79.0977 62.3655 79.2681Z" fill="#D35A37"/>
<path d="M82.5 61H66L66.5 67H81.5L80.5 77L74 81.5L67.5 77L67 74.5" stroke="#F0F0F0" stroke-width="2" stroke-linecap="round" stroke-linejoin="round"/>
</svg>
