<svg xmlns="http://www.w3.org/2000/svg" fill="none" viewBox="0 0 66 66">
  <path fill="url(#paint0_linear)" d="M11 6.242v53.41h13.579V17.559h11.542a5.658 5.658 0 01.544 11.29c5.89-.396 10.546-5.3 10.546-11.29 0-6.25-5.067-11.316-11.316-11.316H11z"/>
  <path fill="url(#paint1_linear)" d="M47.21 17.558c0-6.25-5.066-11.316-11.315-11.316 10 0 18.105 8.106 18.105 18.105C54 33.58 47.09 41.2 38.157 42.313a18.28 18.28 0 01-2.262.14H24.579A13.574 13.574 0 0011 56.032v-13.58c0-7.499 6.08-13.604 13.579-13.604H36.665c5.89-.396 10.546-5.3 10.546-11.29z"/>
  <defs>
    <linearGradient id="paint0_linear" x1="11" x2="51.303" y1="59.653" y2="11.921" gradientUnits="userSpaceOnUse">
      <stop stop-color="#B56A91"/>
      <stop offset="1" stop-color="#4E195B"/>
    </linearGradient>
    <linearGradient id="paint1_linear" x1="1.268" x2="60.333" y1="41.45" y2="10.062" gradientUnits="userSpaceOnUse">
      <stop stop-color="#CA7632"/>
      <stop offset="1" stop-color="#A6DAFA"/>
    </linearGradient>
  </defs>
</svg>
