<svg xmlns="http://www.w3.org/2000/svg" fill="none" viewBox="0 0 66 66">
  <path fill="url(#paint0_linear)" d="M37.273 5.871c-6.477 0-11.728 5.323-11.728 11.89v27.741c0 5.472-4.375 9.908-9.772 9.908C10.375 55.41 6 50.974 6 45.502c0 8.755 7 15.853 15.636 15.853 1.35 0 2.66-.173 3.91-.5 6.743-1.76 11.727-7.966 11.727-15.353V17.76c0-4.4 2.358-8.243 5.863-10.298A11.551 11.551 0 0149 5.872H37.273z"/>
  <path fill="url(#paint1_linear)" fill-rule="evenodd" d="M6 46.097c0-5.363 4.347-9.71 9.71-9.71.631 0 1.25.06 1.847.176-2.839.698-4.954 3.397-4.954 6.62 0 3.755 2.869 6.798 6.408 6.798 3.105 0 5.694-2.342 6.283-5.45a9.77 9.77 0 01.125 1.566c0 5.362-4.347 9.71-9.71 9.71-5.362 0-9.709-4.348-9.709-9.71z" clip-rule="evenodd"/>
  <defs>
    <linearGradient id="paint0_linear" x1="6" x2="46.591" y1="61.355" y2="6.402" gradientUnits="userSpaceOnUse">
      <stop stop-color="#B56A91"/>
      <stop offset="1" stop-color="#4E195B"/>
    </linearGradient>
    <linearGradient id="paint1_linear" x1="28.096" x2="13.329" y1="52.117" y2="32.142" gradientUnits="userSpaceOnUse">
      <stop stop-color="#CA7632"/>
      <stop offset="1" stop-color="#A6DAFA"/>
    </linearGradient>
  </defs>
</svg>
