<svg width="22" height="23" viewBox="0 0 22 23" fill="none" xmlns="http://www.w3.org/2000/svg">
<path d="M16.3488 7.66795C15.4289 7.66755 14.5233 7.89508 13.7128 8.3302C13.6389 8.13541 13.5074 7.96773 13.3359 7.84945C13.1644 7.73116 12.9609 7.66785 12.7526 7.66795H8.6426C8.50764 7.66787 8.374 7.69439 8.2493 7.746C8.1246 7.79761 8.01131 7.87329 7.91588 7.96872C7.82045 8.06415 7.74477 8.17745 7.69316 8.30214C7.64155 8.42684 7.61503 8.56049 7.6151 8.69544V21.0253C7.61503 21.1603 7.64155 21.2939 7.69316 21.4186C7.74477 21.5433 7.82045 21.6566 7.91587 21.7521C8.0113 21.8475 8.1246 21.9232 8.2493 21.9748C8.374 22.0264 8.50764 22.0529 8.6426 22.0528H12.7526C12.8875 22.0529 13.0212 22.0264 13.1459 21.9748C13.2706 21.9232 13.3839 21.8475 13.4793 21.7521C13.5747 21.6566 13.6504 21.5433 13.702 21.4186C13.7536 21.2939 13.7801 21.1603 13.7801 21.0253V15.3741C13.7801 15.1016 13.8883 14.8403 14.081 14.6476C14.2737 14.4549 14.535 14.3466 14.8076 14.3466C15.0801 14.3466 15.3414 14.4549 15.5341 14.6476C15.7268 14.8403 15.835 15.1016 15.835 15.3741V21.0253C15.835 21.1603 15.8615 21.2939 15.9131 21.4186C15.9647 21.5433 16.0404 21.6566 16.1358 21.7521C16.2312 21.8475 16.3445 21.9232 16.4692 21.9748C16.5939 22.0264 16.7276 22.0529 16.8625 22.0528H20.9725C21.1075 22.0529 21.2411 22.0264 21.3658 21.9748C21.4905 21.9232 21.6038 21.8475 21.6992 21.7521C21.7947 21.6566 21.8703 21.5433 21.9219 21.4186C21.9736 21.2939 22.0001 21.1603 22 21.0253V13.3192C21.9981 11.8209 21.4021 10.3846 20.3427 9.3252C19.2833 8.2658 17.847 7.66981 16.3488 7.66795V7.66795ZM19.945 19.9979H17.89V15.3741C17.89 14.5566 17.5653 13.7726 16.9872 13.1945C16.4091 12.6164 15.6251 12.2917 14.8076 12.2917C13.99 12.2917 13.206 12.6164 12.6279 13.1945C12.0498 13.7726 11.7251 14.5566 11.7251 15.3741V19.9979H9.67009V9.72293H11.7251V10.4454C11.7252 10.6583 11.7914 10.8659 11.9146 11.0395C12.0378 11.2132 12.2118 11.3443 12.4127 11.4148C12.6136 11.4853 12.8314 11.4917 13.0361 11.433C13.2408 11.3744 13.4222 11.2537 13.5553 11.0876C14.0164 10.5019 14.6489 10.0749 15.3644 9.86613C16.08 9.65735 16.8429 9.67723 17.5466 9.92299C18.2503 10.1688 18.8597 10.6281 19.2896 11.237C19.7196 11.8458 19.9488 12.5738 19.945 13.3192V19.9979ZM5.56012 7.66795H1.45015C1.3152 7.66787 1.18155 7.69439 1.05685 7.746C0.932158 7.79761 0.818857 7.87329 0.723431 7.96872C0.628004 8.06415 0.552322 8.17745 0.500713 8.30214C0.449104 8.42684 0.42258 8.56049 0.422657 8.69544V21.0253C0.422578 21.1603 0.449102 21.2939 0.50071 21.4186C0.552319 21.5433 0.628001 21.6566 0.723428 21.7521C0.818855 21.8475 0.932156 21.9232 1.05685 21.9748C1.18155 22.0264 1.3152 22.0529 1.45015 22.0528H5.56012C5.69507 22.0529 5.82872 22.0264 5.95342 21.9748C6.07811 21.9232 6.19141 21.8475 6.28684 21.7521C6.38227 21.6566 6.45795 21.5433 6.50956 21.4186C6.56117 21.2939 6.58769 21.1603 6.58761 21.0253V8.69544C6.58769 8.56049 6.56116 8.42684 6.50956 8.30214C6.45795 8.17745 6.38227 8.06415 6.28684 7.96872C6.19141 7.87329 6.07811 7.79761 5.95341 7.746C5.82872 7.69439 5.69507 7.66787 5.56012 7.66795V7.66795ZM4.53263 19.9979H2.47764V9.72293H4.53263V19.9979ZM3.52019 0.00593527C3.07052 -0.0209815 2.62007 0.0438469 2.19624 0.196478C1.77241 0.34911 1.38405 0.586354 1.05479 0.893784C0.725523 1.20121 0.462231 1.5724 0.280923 1.98478C0.0996149 2.39716 0.00407991 2.84211 0.000127845 3.29257C-0.00382422 3.74303 0.0838893 4.18958 0.257934 4.60508C0.431979 5.02057 0.688718 5.39633 1.01254 5.70949C1.33636 6.02265 1.72049 6.26667 2.14158 6.42671C2.56267 6.58676 3.01191 6.65948 3.46198 6.64045H3.49108C3.94194 6.66723 4.39353 6.6018 4.81824 6.44816C5.24296 6.29452 5.63189 6.05589 5.96127 5.74685C6.29065 5.43782 6.55356 5.06487 6.73393 4.6508C6.91431 4.23672 7.00836 3.79022 7.01034 3.33857C7.01232 2.88692 6.92219 2.4396 6.74546 2.02396C6.56872 1.60832 6.30909 1.23308 5.98244 0.92117C5.65578 0.609259 5.26896 0.367227 4.84561 0.209864C4.42225 0.0525006 3.97125 -0.0168888 3.52018 0.00593527H3.52019ZM3.49109 4.58547H3.46198C3.28429 4.60705 3.10404 4.59038 2.93333 4.53659C2.76261 4.4828 2.60536 4.39313 2.47214 4.27359C2.33891 4.15405 2.23279 4.00741 2.16088 3.84349C2.08897 3.67958 2.05294 3.50218 2.05521 3.32321C2.05521 2.55659 2.63016 2.06091 3.52019 2.06091C3.69969 2.03698 3.88223 2.0518 4.05553 2.10436C4.22882 2.15692 4.38884 2.246 4.5248 2.36562C4.66077 2.48523 4.76952 2.63259 4.84374 2.79777C4.91796 2.96295 4.95592 3.14212 4.95506 3.32321C4.95506 4.08981 4.38011 4.58547 3.49109 4.58547Z" fill="#252835"/>
</svg>
