<svg width="50" height="47" viewBox="0 0 50 47" fill="none" xmlns="http://www.w3.org/2000/svg">
<path d="M18.4606 40.6823H19.5712L21.6352 34.4049H29.0242L31.0882 40.6823H32.0632C32.7168 40.6823 33.3112 41.065 33.5836 41.659C33.7862 42.1009 33.7861 42.6107 33.5821 43.052C33.3099 43.6409 32.7204 44.0179 32.0716 44.0179H31.0882H19.5712H18.4533C17.8756 44.0179 17.3392 43.7184 17.0361 43.2266C16.7072 42.6929 16.7071 42.018 17.0341 41.4832C17.3376 40.9867 17.8786 40.6823 18.4606 40.6823Z" fill="#DBE2E9"/>
<path d="M29.0242 34.4049L29.9742 34.0926L29.7481 33.4049H29.0242V34.4049ZM21.6352 34.4049V33.4049H20.9113L20.6852 34.0926L21.6352 34.4049ZM17.0341 41.4832L17.8872 42.0048L17.8872 42.0048L17.0341 41.4832ZM17.0361 43.2266L16.1847 43.7512L16.1847 43.7512L17.0361 43.2266ZM33.5836 41.659L34.4926 41.2422L34.4926 41.2422L33.5836 41.659ZM33.5821 43.052L32.6744 42.6325L32.6744 42.6325L33.5821 43.052ZM18.4606 41.6823H19.5712V39.6823H18.4606V41.6823ZM19.5712 41.6823H25.4928V39.6823H19.5712V41.6823ZM32.0632 39.6823H31.0882V41.6823H32.0632V39.6823ZM31.0882 39.6823H25.4928V41.6823H31.0882V39.6823ZM18.4533 45.0179H19.5712V43.0179H18.4533V45.0179ZM19.5712 45.0179H31.0882V43.0179H19.5712V45.0179ZM31.0882 45.0179H32.0716V43.0179H31.0882V45.0179ZM32.0382 40.37L29.9742 34.0926L28.0743 34.7173L30.1383 40.9947L32.0382 40.37ZM20.5212 40.9947L22.5852 34.7173L20.6852 34.0926L18.6212 40.37L20.5212 40.9947ZM29.0242 33.4049H21.6352V35.4049H29.0242V33.4049ZM16.1809 40.9615C15.6582 41.8165 15.6576 42.8958 16.1847 43.7512L17.8874 42.702C17.7568 42.49 17.756 42.2195 17.8872 42.0048L16.1809 40.9615ZM32.6746 42.0758C32.7559 42.253 32.7554 42.4573 32.6744 42.6325L34.4898 43.4716C34.8168 42.7642 34.8166 41.9488 34.4926 41.2422L32.6746 42.0758ZM18.4533 43.0179C18.2226 43.0179 18.0084 42.8983 17.8874 42.702L16.1847 43.7512C16.6699 44.5385 17.5285 45.0179 18.4533 45.0179V43.0179ZM32.0716 45.0179C33.1102 45.0179 34.0541 44.4143 34.4898 43.4716L32.6744 42.6325C32.5658 42.8675 32.3305 43.0179 32.0716 43.0179V45.0179ZM32.0632 41.6823C32.3244 41.6823 32.5646 41.8359 32.6746 42.0758L34.4926 41.2422C34.0578 40.2941 33.1091 39.6823 32.0632 39.6823V41.6823ZM18.4606 39.6823C17.5291 39.6823 16.6655 40.1689 16.1809 40.9615L17.8872 42.0048C18.0098 41.8044 18.2281 41.6823 18.4606 41.6823V39.6823Z" fill="black"/>
<path d="M45.5 27.5H5.5V29.2586C5.5 31.4677 7.29086 33.2586 9.5 33.2586H26.5H41.5C43.7091 33.2586 45.5 31.4677 45.5 29.2586V27.5Z" fill="#DBE2E9"/>
<path d="M45.5 27.5H46.5C46.5 26.9477 46.0523 26.5 45.5 26.5V27.5ZM44.5 23.5C44.5 24.0523 44.9477 24.5 45.5 24.5C46.0523 24.5 46.5 24.0523 46.5 23.5H44.5ZM9.5 4H41.5V2H9.5V4ZM45.5 26.5H5.5V28.5H45.5V26.5ZM6.5 27.5V7H4.5V27.5H6.5ZM44.5 27.5V29.2586H46.5V27.5H44.5ZM44.5 7V13.5308H46.5V7H44.5ZM44.5 13.5308V23.5H46.5V13.5308H44.5ZM4.5 27.5V29.2586H6.5V27.5H4.5ZM41.5 32.2586H26.5V34.2586H41.5V32.2586ZM26.5 32.2586H9.5V34.2586H26.5V32.2586ZM44.5 29.2586C44.5 30.9154 43.1569 32.2586 41.5 32.2586V34.2586C44.2614 34.2586 46.5 32.02 46.5 29.2586H44.5ZM41.5 4C43.1569 4 44.5 5.34315 44.5 7H46.5C46.5 4.23858 44.2614 2 41.5 2V4ZM4.5 29.2586C4.5 32.02 6.73858 34.2586 9.5 34.2586V32.2586C7.84315 32.2586 6.5 30.9154 6.5 29.2586H4.5ZM9.5 2C6.73858 2 4.5 4.23858 4.5 7H6.5C6.5 5.34315 7.84315 4 9.5 4V2Z" fill="black"/>
<path d="M22.5 35H28L28.5 36H22.1086L22.5 35Z" fill="#A2A9AF"/>
<ellipse cx="25.0614" cy="30.2089" rx="0.561404" ry="0.585617" fill="black"/>
<path d="M5.5 46H45.5" stroke="black" stroke-width="2" stroke-linecap="round"/>
</svg>
