<svg width="98" height="88" viewBox="0 0 98 88" fill="none" xmlns="http://www.w3.org/2000/svg">
<line x1="2" y1="86.5" x2="96" y2="86.5" stroke="black" stroke-width="2" stroke-linecap="round"/>
<path d="M34.045 82.3647H37.739L41.8669 69.8099H56.6451L60.773 82.3647H64.3635C64.6886 82.3647 65.0041 82.4843 65.2484 82.6988C65.8564 83.2329 65.856 84.185 65.2428 84.7132C65.001 84.9214 64.6924 85.036 64.3733 85.036H60.773H37.739H34.0372C33.7806 85.036 33.5293 84.9619 33.3137 84.8226C32.5048 84.3001 32.504 83.1157 33.3083 82.5859C33.5267 82.442 33.7834 82.3647 34.045 82.3647Z" fill="#DBE2E9"/>
<path d="M56.6451 69.8099L57.595 69.4976L57.3689 68.8099H56.6451V69.8099ZM41.8669 69.8099V68.8099H41.1431L40.917 69.4976L41.8669 69.8099ZM33.3083 82.5859L32.7582 81.7508L32.7582 81.7508L33.3083 82.5859ZM33.3137 84.8226L33.8563 83.9826H33.8563L33.3137 84.8226ZM65.2484 82.6988L65.9083 81.9475V81.9475L65.2484 82.6988ZM65.2428 84.7132L64.5902 83.9554L64.5902 83.9555L65.2428 84.7132ZM34.045 83.3647H37.739V81.3647H34.045V83.3647ZM37.739 83.3647H49.5822V81.3647H37.739V83.3647ZM64.3635 81.3647H60.773V83.3647H64.3635V81.3647ZM60.773 81.3647H49.5822V83.3647H60.773V81.3647ZM34.0372 86.036H37.739V84.036H34.0372V86.036ZM37.739 86.036H60.773V84.036H37.739V86.036ZM60.773 86.036H64.3733V84.036H60.773V86.036ZM61.723 82.0524L57.595 69.4976L55.6951 70.1223L59.823 82.6771L61.723 82.0524ZM38.6889 82.6771L42.8169 70.1223L40.917 69.4976L36.789 82.0524L38.6889 82.6771ZM56.6451 68.8099H41.8669V70.8099H56.6451V68.8099ZM32.7582 81.7508C31.3563 82.6743 31.3501 84.7447 32.7711 85.6626L33.8563 83.9826C33.6595 83.8555 33.6518 83.5571 33.8584 83.421L32.7582 81.7508ZM64.5885 83.4502C64.7445 83.5872 64.7388 83.8274 64.5902 83.9554L65.8953 85.4709C66.9732 84.5426 66.9684 82.8786 65.9083 81.9475L64.5885 83.4502ZM34.0372 84.036C33.9731 84.036 33.9102 84.0174 33.8563 83.9826L32.7711 85.6626C33.1485 85.9063 33.5881 86.036 34.0372 86.036V84.036ZM64.3733 86.036C64.9319 86.036 65.472 85.8355 65.8954 85.4709L64.5902 83.9555C64.5299 84.0074 64.4529 84.036 64.3733 84.036V86.036ZM64.3635 83.3647C64.4443 83.3647 64.5256 83.3949 64.5885 83.4502L65.9083 81.9475C65.4826 81.5736 64.9329 81.3647 64.3635 81.3647V83.3647ZM34.045 81.3647C33.5871 81.3647 33.1392 81.4998 32.7582 81.7508L33.8584 83.421C33.9142 83.3842 33.9798 83.3647 34.045 83.3647V81.3647Z" fill="black"/>
<path d="M97 61.3603H1V61.5171C1 65.9354 4.58172 69.5171 9 69.5171H49H89C93.4183 69.5171 97 65.9354 97 61.5171V61.3603Z" fill="#DBE2E9"/>
<path d="M97 61.3603H98C98 60.808 97.5523 60.3603 97 60.3603V61.3603ZM96 57.0728C96 57.6251 96.4477 58.0728 97 58.0728C97.5523 58.0728 98 57.6251 98 57.0728H96ZM9 2H89V0H9V2ZM97 60.3603H1V62.3603H97V60.3603ZM2 61.3603V8.99999H0V61.3603H2ZM96 61.3603V61.5171H98V61.3603H96ZM96 9V26.0616H98V9H96ZM96 26.0616V57.0728H98V26.0616H96ZM0 61.3603V61.5171H2V61.3603H0ZM89 68.5171H49V70.5171H89V68.5171ZM49 68.5171H9V70.5171H49V68.5171ZM96 61.5171C96 65.3831 92.866 68.5171 89 68.5171V70.5171C93.9706 70.5171 98 66.4877 98 61.5171H96ZM89 2C92.866 2 96 5.13401 96 9H98C98 4.02944 93.9706 0 89 0V2ZM0 61.5171C0 66.4877 4.02944 70.5171 9 70.5171V68.5171C5.13401 68.5171 2 65.3831 2 61.5171H0ZM9 0C4.02944 0 0 4.02943 0 8.99999H2C2 5.134 5.13401 2 9 2V0Z" fill="black"/>
<path d="M42.6872 70.6586H55.9219L56.5222 72.6586H42L42.6872 70.6586Z" fill="#A2A9AF"/>
<ellipse cx="49" cy="65.4178" rx="1.12281" ry="1.17123" fill="black"/>
</svg>
