<svg xmlns="http://www.w3.org/2000/svg" fill="none" viewBox="0 0 64 64">
  <g clip-path="url(#clip0)">
    <path fill="#B3CCEE" d="M50 35.333V34l11.667-.292a1.625 1.625 0 110 3.25L50 36.667v-1.334z"/>
    <path stroke="#000" stroke-linecap="round" stroke-linejoin="round" stroke-width="2" d="M40 20v0a2 2 0 012-2h3.409a2 2 0 011.998 1.923l.519 13.487a2 2 0 001.999 1.923H50m0 0V34m0 1.333v1.334m0-4V34m0 4v-1.333M50 34l11.667-.292a1.626 1.626 0 011.666 1.625v0c0 .914-.752 1.648-1.666 1.625L50 36.667"/>
    <path fill="#EAD08C" stroke="#000" stroke-linecap="round" stroke-linejoin="round" stroke-width="2" d="M9.728 20.667h24.939a2 2 0 012 2v22.666a2 2 0 01-2 2H4.395a2.667 2.667 0 110-5.333h9.288a2.666 2.666 0 100-5.333H10.41a2.667 2.667 0 110-5.334h7.033a2.667 2.667 0 100-5.333H9.728a2.667 2.667 0 110-5.333z"/>
    <path fill="#998A62" d="M34.667 20H38v28h-3.333z"/>
    <rect width="6.667" height="28" x="36.667" y="20" fill="#EAD08C" stroke="#000" stroke-linejoin="round" stroke-width="2" rx="2"/>
    <path fill="#899EBA" d="M50.667 34.667h1V36h-1v-1.333z"/>
    <path fill="#998A62" d="M37.333 20.667h1.333v26.667h-1.333z"/>
    <circle cx="2.667" cy="22.667" r="2" fill="#EAD08C" stroke="#000" stroke-width="2"/>
  </g>
  <defs>
    <clipPath id="clip0">
      <path fill="#fff" d="M0 0h64v64H0z"/>
    </clipPath>
  </defs>
</svg>
