<svg width="48" height="48" viewBox="0 0 48 48" fill="none" xmlns="http://www.w3.org/2000/svg">
<path d="M37.7897 31.014C39.4422 31.0778 41.0058 30.1269 41.4217 28.5263C42.2553 25.3175 42.1909 21.9217 41.2077 18.7184C39.9545 14.6354 37.2902 11.131 33.691 8.83149C30.0919 6.532 25.7923 5.58725 21.5607 6.16605C17.329 6.74486 13.4411 8.80951 10.5916 11.9911C7.74212 15.1726 6.11679 19.2637 6.00605 23.5333C5.89531 27.8029 7.30639 31.9728 9.98711 35.2977C12.6678 38.6227 16.4435 40.8861 20.6395 41.6835C23.4942 42.226 26.417 42.0659 29.1633 41.2436C31.2074 40.6316 31.6894 38.1416 30.3597 36.4729V36.4729C28.5075 34.1486 30.2402 30.723 33.2099 30.8375L37.7897 31.014Z" stroke="black" stroke-width="2" stroke-linejoin="round"/>
<circle cx="15" cy="26" r="3" fill="#85B0EB"/>
<circle cx="23" cy="33" r="3" fill="#EB5757"/>
<circle cx="18" cy="16" r="3" fill="#82D580"/>
<circle cx="29" cy="16" r="3" fill="#F2C94C"/>
<circle cx="33" cy="25" r="3" fill="#F2994A"/>
</svg>
