<svg width="96" height="96" viewBox="0 0 96 96" fill="none" xmlns="http://www.w3.org/2000/svg">
<path d="M81.0771 63.3204C82.7296 63.3842 84.2698 62.4304 84.8155 60.8694C87.5509 53.0449 87.7294 44.5259 85.2833 36.5565C82.568 27.7099 76.7955 20.1171 68.9973 15.1349C61.1991 10.1527 51.8833 8.1057 42.7148 9.35978C33.5462 10.6139 25.1224 15.0873 18.9485 21.9806C12.7746 28.8739 9.25305 37.738 9.01312 46.9888C8.77319 56.2396 11.8305 65.2743 17.6387 72.4784C23.447 79.6825 31.6276 84.5866 40.7188 86.3143C48.2704 87.7494 56.0414 86.9152 63.0682 83.9716C65.3346 83.0222 65.8808 80.1718 64.3495 78.2501L56.9848 69.0079C54.8519 66.3312 56.8472 62.3862 60.2672 62.5181L81.0771 63.3204Z" stroke="black" stroke-width="2" stroke-linejoin="round"/>
<circle cx="27" cy="50" r="7" fill="#85B0EB"/>
<circle cx="44" cy="67" r="7" fill="#EB5757"/>
<circle cx="34" cy="28" r="7" fill="#82D580"/>
<circle cx="61" cy="28" r="7" fill="#F2C94C"/>
<circle cx="66" cy="50" r="7" fill="#F2994A"/>
</svg>
