<svg width="48" height="48" viewBox="0 0 48 48" fill="none" xmlns="http://www.w3.org/2000/svg">
<circle cx="24" cy="25.5" r="2" fill="#85B0EB"/>
<path fill-rule="evenodd" clip-rule="evenodd" d="M21 8.5C21 7.94772 20.5523 7.5 20 7.5C19.4477 7.5 19 7.94772 19 8.5V18.6972L16.5392 22.3884C15.4887 23.9641 15.4186 25.9982 16.3583 27.6426L23.1317 39.4961C23.3098 39.8077 23.6411 40 24 40C24.3588 40 24.6902 39.8077 24.8682 39.4961L31.6417 27.6426C32.5813 25.9982 32.5113 23.9641 31.4607 22.3884L29 18.6972V8.5C29 7.94772 28.5523 7.5 28 7.5C27.4477 7.5 27 7.94772 27 8.5V18H21V8.5ZM18.2033 23.4978L20.5352 20H27.4648L29.7966 23.4978C30.4269 24.4432 30.469 25.6637 29.9052 26.6503L25 35.2344V28.3293C24.6872 28.4398 24.3506 28.5 24 28.5C23.6493 28.5 23.3128 28.4398 23 28.3293V35.2344L18.0947 26.6503C17.531 25.6637 17.573 24.4432 18.2033 23.4978Z" fill="black"/>
</svg>
