<svg width="96" height="96" viewBox="0 0 96 96" fill="none" xmlns="http://www.w3.org/2000/svg">
<circle cx="48" cy="51" r="4" fill="#85B0EB"/>
<path fill-rule="evenodd" clip-rule="evenodd" d="M41 17C41 16.4477 40.5523 16 40 16C39.4478 16 39 16.4477 39 17V37.6972L32.5164 47.4227C31.4808 48.976 31.3969 50.9769 32.2988 52.6115L47.1245 79.4831C47.3004 79.802 47.6358 80 48 80C48.3643 80 48.6997 79.802 48.8756 79.4831L63.7013 52.6115C64.6032 50.9769 64.5192 48.976 63.4837 47.4227L57 37.6972V17C57 16.4477 56.5523 16 56 16C55.4478 16 55 16.4477 55 17V37H41V17ZM34.1805 48.5321L40.5352 39H55.4649L61.8196 48.5321C62.4409 49.4641 62.4913 50.6646 61.9501 51.6454L49 75.1174V56.917C48.6748 56.9716 48.3407 57 48 57C47.6593 57 47.3252 56.9716 47 56.917V75.1174L34.0499 51.6454C33.5088 50.6646 33.5592 49.4641 34.1805 48.5321Z" fill="black"/>
</svg>
