<svg xmlns="http://www.w3.org/2000/svg" fill="none" viewBox="0 0 96 60">
  <g clip-path="url(#clip0_859:2803)">
    <path fill="#72EBD2" fill-rule="evenodd" d="M65.479 31.162c.924 8-3.28 16.04-10.98 19.63-8.724 4.068-18.94 1.027-24.116-6.747.639.037 1.48.078 2.415.107 2.027.062 4.587.066 6.472-.197 2.715-.38 6.389-1.384 8.64-2.042a20.235 20.235 0 004.326-1.852 386.12 386.12 0 006.025-3.487c1.674-.997 3.779-2.61 5.427-3.939.685-.551 1.302-1.062 1.79-1.473z" clip-rule="evenodd"/>
    <mask id="a" width="36" height="22" x="31" y="31" maskUnits="userSpaceOnUse" style="mask-type:alpha">
      <path fill="#72EBD2" fill-rule="evenodd" d="M66.347 31.162c.925 8-3.28 16.04-10.98 19.63-8.723 4.069-18.94 1.027-24.116-6.747.639.037 1.48.079 2.415.107 2.027.062 4.587.067 6.472-.197 2.715-.38 6.389-1.384 8.64-2.041a20.24 20.24 0 004.326-1.853 385.665 385.665 0 006.025-3.487c1.674-.997 3.779-2.61 5.427-3.938.685-.552 1.302-1.063 1.79-1.474z" clip-rule="evenodd"/>
    </mask>
    <g mask="url(#a)">
      <path fill="#5ECFC6" d="M47.35 32.597c.54-.252.761-.918.495-1.489-.266-.57-.919-.829-1.458-.578l-12.345 5.757c-1.191.214-1.893-1.291-.964-2.066l12.345-5.757c.54-.251.76-.918.495-1.488-.266-.571-.92-.83-1.458-.578l-7.488 3.491c-1.152.14-1.812-1.274-.963-2.066l7.487-3.492c.54-.251.76-.918.495-1.488-.266-.57-.92-.83-1.459-.578l-4.123 1.922c-1.191.214-1.893-1.29-.963-2.066l4.123-1.923c.54-.251.76-.918.494-1.488s-.919-.83-1.458-.578L31.668 22.3c-1.191.213-1.893-1.292-.964-2.067l8.938-4.167c.539-.252.76-.918.494-1.489-.266-.57-.919-.83-1.458-.578l-19.033 8.876 16.38 35.129 19.034-8.876c.54-.251.76-.918.495-1.488-.266-.571-.92-.83-1.459-.578l-6.834 3.187c-1.192.214-1.893-1.292-.964-2.067l6.835-3.187c.54-.251.76-.918.495-1.488-.267-.57-.92-.83-1.459-.578l-10.914 5.09a1.332 1.332 0 01-.963-2.067l10.914-5.09c.539-.251.76-.917.494-1.488-.266-.57-.919-.83-1.458-.578l-6.26 2.919c-1.19.214-1.892-1.291-.963-2.067l6.26-2.918c.539-.252.76-.918.494-1.489-.266-.57-.919-.83-1.458-.578l-15.675 7.31c-1.191.214-1.893-1.292-.964-2.067l7.376-3.44 8.3-3.87z"/>
    </g>
    <path fill="#65688B" d="M13.264 29.897a2.218 2.218 0 011.326-2.843L68.782 7.33a2.218 2.218 0 011.517 4.168l-7.087 2.58c-1.639 1.045-.714 3.587 1.214 3.334L79.85 11.8a2.218 2.218 0 011.517 4.168L78.45 17.03c-1.578 1.066-.68 3.533 1.214 3.335l10.004-3.641a2.218 2.218 0 111.518 4.168l-20.426 7.435c-1.723 1.016-.76 3.663 1.213 3.335l10.005-3.642a2.218 2.218 0 011.517 4.169L20.132 55.25a2.218 2.218 0 11-1.517-4.169l3.334-1.214c1.91-.945.857-3.838-1.213-3.334L9.064 50.78a2.218 2.218 0 01-1.518-4.169l8.754-3.186c1.64-1.045.714-3.588-1.213-3.335l-4.586 1.67a2.218 2.218 0 01-1.517-4.17l15.84-5.765c1.523-1.083.65-3.484-1.213-3.335l-7.504 2.731a2.218 2.218 0 01-2.843-1.325z"/>
    <path fill="#72EBD2" d="M56.937 33.118c1.503-.895 3.484-2.406 5.126-3.729l.616-.51c.46-.38.834-.855 1.096-1.393.49-1.006.587-2.178.146-3.207a8.86 8.86 0 00-.113-.255c-4.488-9.623-15.927-13.787-25.55-9.3-8.617 4.018-12.856 13.61-10.428 22.48.223.813.726 1.515 1.375 2.053a4.485 4.485 0 002.663 1.036c.322.014.663.027 1.018.038 2.017.061 4.384.057 6.031-.174 2.507-.35 6.016-1.303 8.271-1.962 2.509-.996 1.424-.562 3.769-1.616 1.68-.955 4.124-2.356 5.98-3.46z"/>
    <mask id="b" width="38" height="29" x="27" y="12" maskUnits="userSpaceOnUse" style="mask-type:alpha">
      <path fill="#72EBD2" d="M56.937 33.118c1.503-.895 3.484-2.406 5.126-3.73l.616-.509c.46-.38.834-.856 1.096-1.393.49-1.006.587-2.178.146-3.207a8.739 8.739 0 00-.113-.255c-4.488-9.624-15.927-13.787-25.55-9.3-8.617 4.018-12.856 13.609-10.428 22.48.223.813.726 1.515 1.375 2.053a4.485 4.485 0 002.663 1.036c.322.014.663.026 1.018.037 2.017.062 4.384.057 6.031-.173 2.507-.351 6.016-1.303 8.271-1.962 2.509-.996 1.424-.562 3.769-1.616a383.04 383.04 0 005.98-3.461z"/>
    </mask>
    <g mask="url(#b)">
      <path fill="#5ECFC6" d="M45.607 34.957c.54-.251.76-.918.495-1.488-.266-.57-.92-.83-1.458-.578l-9.198 4.289c-1.191.214-1.893-1.292-.964-2.067l13.919-6.49c.539-.251.76-.918.494-1.488s-.919-.83-1.458-.578l-9.061 4.225c-1.152.14-1.812-1.274-.964-2.067l6.308-2.94c.539-.252.76-.919.494-1.49-.266-.57-.919-.829-1.458-.577l-2.943 1.372c-1.191.214-1.893-1.291-.963-2.066l6.09-2.84c.539-.251.76-.918.494-1.488-.266-.571-.919-.83-1.458-.578l-10.117 4.718c-1.192.213-1.894-1.292-.964-2.067l4.217-1.966c.539-.252.76-.918.494-1.489-.266-.57-.919-.83-1.458-.578l-15.1 7.042L37.43 58.897l19.034-8.876c.54-.252.76-.918.495-1.489-.267-.57-.92-.829-1.459-.577l-6.834 3.187c-1.192.213-1.894-1.292-.964-2.067l6.835-3.187c.539-.251.76-.918.494-1.488-.266-.571-.919-.83-1.458-.578l-10.914 5.09a1.332 1.332 0 01-.964-2.067l10.915-5.09c.539-.251.76-.918.494-1.488s-.919-.83-1.458-.578l-6.26 2.919c-1.19.214-1.893-1.292-.963-2.067l6.26-2.918c.539-.252.76-.918.494-1.489-.266-.57-.919-.83-1.458-.578l-15.675 7.31c-1.192.213-1.894-1.292-.964-2.067l7.376-3.44 5.152-2.402z"/>
    </g>
  </g>
  <defs>
    <clipPath id="clip0_859:2803">
      <path fill="#fff" d="M0 0h96v58.086H0z" transform="translate(0 .957)"/>
    </clipPath>
  </defs>
</svg>
