<svg width="96" height="96" viewBox="0 0 96 96" fill="none" xmlns="http://www.w3.org/2000/svg">
<path d="M34 22H26C23.7909 22 22 23.7909 22 26V34V44V54V72.5323C22 73.4306 23.0925 73.8733 23.7179 73.2284L38 58.5V26C38 23.7909 36.2091 22 34 22Z" fill="#DAB6C2"/>
<path d="M22 34V26C22 23.7909 23.7909 22 26 22H34C36.2091 22 38 23.7909 38 26V58.5L23.7179 73.2284C23.0925 73.8733 22 73.4306 22 72.5323V54M22 34H28M22 34V44M22 44H30M22 44V54M22 54H28" stroke="black" stroke-width="2" stroke-linecap="round" stroke-linejoin="round"/>
<path fill-rule="evenodd" clip-rule="evenodd" d="M23 58H22C21.4477 58 21 58.4477 21 59V74C21 75.1046 21.8954 76 23 76H42.0002H52.0002H62.0002H70C72.7615 76 75 73.7614 75 71V63C75 60.2386 72.7615 58 70 58H38.5V58.5L37.0909 60H70C71.6569 60 73 61.3431 73 63V71C73 72.6569 71.6569 74 70 74H63.0002V69C63.0002 68.4477 62.5524 68 62.0002 68C61.4479 68 61.0002 68.4477 61.0002 69V74H53.0002V67C53.0002 66.4477 52.5524 66 52.0002 66C51.4479 66 51.0002 66.4477 51.0002 67V74H43.0002V69C43.0002 68.4477 42.5524 68 42.0002 68C41.4479 68 41.0002 68.4477 41.0002 69V74H23V72.4749V60V58Z" fill="black"/>
</svg>
