<svg width="96" height="96" viewBox="0 0 96 96" fill="none" xmlns="http://www.w3.org/2000/svg">
<path d="M38 58L57 39M57 39V47M57 39H49" stroke="#F0F0F0" stroke-width="2" stroke-linecap="round" stroke-linejoin="round"/>
<path fill-rule="evenodd" clip-rule="evenodd" d="M44.3432 46H21C18.2386 46 16 48.2386 16 51V76C16 78.7614 18.2386 81 21 81H46C48.7614 81 51 78.7614 51 76V51C51 50.8884 50.9963 50.7776 50.9891 50.6677L49 52.6569V76C49 77.6569 47.6569 79 46 79H21C19.3431 79 18 77.6569 18 76V51C18 49.3431 19.3431 48 21 48H42.3432L44.3432 46Z" fill="black"/>
<path fill-rule="evenodd" clip-rule="evenodd" d="M37 16C34.2386 16 32 18.2386 32 21V39.0666H34V21C34 19.3431 35.3431 18 37 18H75C76.6568 18 78 19.3431 78 21V59C78 60.6569 76.6568 62 75 62H57.4171V64H75C77.7614 64 80 61.7614 80 59V21C80 18.2386 77.7614 16 75 16H37Z" fill="black"/>
</svg>
