<svg width="64" height="64" viewBox="0 0 64 64" fill="none" xmlns="http://www.w3.org/2000/svg">
<path d="M45 20C45 18.2928 44.6508 16.6023 43.9724 15.0251C43.2939 13.4479 42.2995 12.0148 41.0459 10.8076C39.7923 9.60045 38.3041 8.64288 36.6662 7.98957C35.0283 7.33625 33.2728 7 31.5 7C29.7272 7 27.9717 7.33626 26.3338 7.98957C24.6959 8.64288 23.2076 9.60045 21.9541 10.8076C20.7005 12.0148 19.7061 13.4479 19.0276 15.0251C18.3492 16.6023 18 18.2928 18 20L31.5 20H45Z" fill="#F0F0F0"/>
<path d="M45 20V21C45.5523 21 46 20.5523 46 20H45ZM18 20L17 20C17 20.2652 17.1054 20.5196 17.2929 20.7071C17.4804 20.8946 17.7348 21 18 21L18 20ZM31.5 20L31.5 19L31.5 19L31.5 20ZM46 20C46 18.1561 45.6228 16.3313 44.891 14.63L43.0538 15.4203C43.6788 16.8734 44 18.4295 44 20H46ZM44.891 14.63C44.1592 12.9288 43.0877 11.3855 41.7396 10.0873L40.3523 11.5279C41.5113 12.644 42.4286 13.967 43.0538 15.4203L44.891 14.63ZM41.7396 10.0873C40.3915 8.78916 38.7932 7.76133 37.0367 7.06073L36.2957 8.9184C37.8151 9.52442 39.1932 10.4117 40.3523 11.5279L41.7396 10.0873ZM37.0367 7.06073C35.2803 6.36015 33.399 6 31.5 6L31.5 8C33.1467 8 34.7764 8.31236 36.2957 8.9184L37.0367 7.06073ZM31.5 6C29.601 6 27.7197 6.36015 25.9633 7.06073L26.7043 8.9184C28.2236 8.31236 29.8533 8 31.5 8L31.5 6ZM25.9633 7.06073C24.2068 7.76133 22.6085 8.78916 21.2604 10.0873L22.6477 11.5279C23.8068 10.4117 25.1849 9.52442 26.7043 8.9184L25.9633 7.06073ZM21.2604 10.0873C19.9123 11.3855 18.8408 12.9288 18.109 14.63L19.9462 15.4203C20.5714 13.967 21.4887 12.644 22.6477 11.5279L21.2604 10.0873ZM18.109 14.63C17.3772 16.3313 17 18.1561 17 20L19 20C19 18.4295 19.3212 16.8734 19.9462 15.4203L18.109 14.63ZM18 21L31.5 21L31.5 19L18 19L18 21ZM31.5 21H45V19H31.5V21Z" fill="black"/>
<path fill-rule="evenodd" clip-rule="evenodd" d="M11 26.375C11 29.3522 15.3334 31.8782 21.7453 33.1934C23.3548 33.5235 25.0953 33.7774 26.931 33.9429C28.5544 34.0893 30.2523 34.1667 32 34.1667C33.6182 34.1667 35.1937 34.1004 36.7069 33.9743C38.6315 33.814 40.4553 33.5571 42.1379 33.2171C48.614 31.9088 53 29.3703 53 26.375C53 23.8517 49.8873 21.4545 45.0345 20H18.9655C14.1127 21.4545 11 23.8517 11 26.375ZM26.2069 26.375C26.2069 27.1574 25.5585 27.7917 24.7586 27.7917C23.9588 27.7917 23.3103 27.1574 23.3103 26.375C23.3103 25.5926 23.9588 24.9583 24.7586 24.9583C25.5585 24.9583 26.2069 25.5926 26.2069 26.375ZM32 27.7917C32.7999 27.7917 33.4483 27.1574 33.4483 26.375C33.4483 25.5926 32.7999 24.9583 32 24.9583C31.2001 24.9583 30.5517 25.5926 30.5517 26.375C30.5517 27.1574 31.2001 27.7917 32 27.7917ZM40.6897 26.375C40.6897 27.1574 40.0412 27.7917 39.2414 27.7917C38.4415 27.7917 37.7931 27.1574 37.7931 26.375C37.7931 25.5926 38.4415 24.9583 39.2414 24.9583C40.0412 24.9583 40.6897 25.5926 40.6897 26.375Z" fill="#F0F0F0"/>
<path d="M18.9655 20V19H18.8189L18.6784 19.0421L18.9655 20ZM45.0345 20L45.3216 19.0421L45.1811 19H45.0345V20ZM21.7453 33.1934L21.9463 32.2138L21.7453 33.1934ZM18.4835 36.4639C18.1874 36.9301 18.3252 37.548 18.7914 37.8441C19.2576 38.1402 19.8756 38.0023 20.1717 37.5361L18.4835 36.4639ZM42.1379 33.2171L41.9399 32.237L41.9399 32.237L42.1379 33.2171ZM44.2405 37.608C44.5763 38.0465 45.2039 38.1297 45.6424 37.794C46.0809 37.4582 46.1642 36.8305 45.8285 36.392L44.2405 37.608ZM26.931 33.9429L26.8412 34.9389L26.931 33.9429ZM36.7069 33.9743L36.6239 32.9778L36.7069 33.9743ZM12 26.375C12 25.5485 12.5141 24.5761 13.7838 23.5707C15.0381 22.5775 16.9023 21.6623 19.2526 20.9579L18.6784 19.0421C16.176 19.7921 14.0575 20.8029 12.5422 22.0027C11.0423 23.1904 10 24.6782 10 26.375H12ZM54 26.375C54 24.6782 52.9577 23.1904 51.4578 22.0027C49.9425 20.8029 47.824 19.7921 45.3216 19.0421L44.7474 20.9579C47.0977 21.6623 48.9619 22.5775 50.2162 23.5707C51.4859 24.5761 52 25.5485 52 26.375H54ZM11 27.375H23.3103V25.375H11V27.375ZM25.2069 26.375C25.2069 26.5844 25.0271 26.7917 24.7586 26.7917V28.7917C26.0898 28.7917 27.2069 27.7304 27.2069 26.375H25.2069ZM24.7586 26.7917C24.4901 26.7917 24.3103 26.5844 24.3103 26.375H22.3103C22.3103 27.7304 23.4274 28.7917 24.7586 28.7917V26.7917ZM24.3103 26.375C24.3103 26.1656 24.4901 25.9583 24.7586 25.9583V23.9583C23.4274 23.9583 22.3103 25.0196 22.3103 26.375H24.3103ZM24.7586 25.9583C25.0271 25.9583 25.2069 26.1656 25.2069 26.375H27.2069C27.2069 25.0196 26.0898 23.9583 24.7586 23.9583V25.9583ZM32.4483 26.375C32.4483 26.5844 32.2685 26.7917 32 26.7917V28.7917C33.3312 28.7917 34.4483 27.7304 34.4483 26.375H32.4483ZM32 26.7917C31.7315 26.7917 31.5517 26.5844 31.5517 26.375H29.5517C29.5517 27.7304 30.6688 28.7917 32 28.7917V26.7917ZM31.5517 26.375C31.5517 26.1656 31.7315 25.9583 32 25.9583V23.9583C30.6688 23.9583 29.5517 25.0196 29.5517 26.375H31.5517ZM32 25.9583C32.2685 25.9583 32.4483 26.1656 32.4483 26.375H34.4483C34.4483 25.0196 33.3312 23.9583 32 23.9583V25.9583ZM39.6897 26.375C39.6897 26.5844 39.5099 26.7917 39.2414 26.7917V28.7917C40.5726 28.7917 41.6897 27.7304 41.6897 26.375H39.6897ZM39.2414 26.7917C38.9729 26.7917 38.7931 26.5844 38.7931 26.375H36.7931C36.7931 27.7304 37.9102 28.7917 39.2414 28.7917V26.7917ZM38.7931 26.375C38.7931 26.1656 38.9729 25.9583 39.2414 25.9583V23.9583C37.9102 23.9583 36.7931 25.0196 36.7931 26.375H38.7931ZM39.2414 25.9583C39.5099 25.9583 39.6897 26.1656 39.6897 26.375H41.6897C41.6897 25.0196 40.5726 23.9583 39.2414 23.9583V25.9583ZM18.9655 21H45.0345V19H18.9655V21ZM26.2069 27.375H30.5517V25.375H26.2069V27.375ZM33.4483 27.375H37.7931V25.375H33.4483V27.375ZM40.6897 27.375H53V25.375H40.6897V27.375ZM21.9463 32.2138C18.8051 31.5695 16.2436 30.6411 14.4949 29.5574C12.7086 28.4505 12 27.3371 12 26.375H10C10 28.3901 11.458 30.0284 13.4414 31.2575C15.4625 32.5099 18.2736 33.5021 21.5444 34.173L21.9463 32.2138ZM20.9012 32.6572L18.4835 36.4639L20.1717 37.5361L22.5894 33.7295L20.9012 32.6572ZM42.336 34.1973C45.6389 33.53 48.4791 32.5368 50.5215 31.2804C52.5248 30.0479 54 28.4022 54 26.375H52C52 27.3431 51.2821 28.4642 49.4735 29.5769C47.7038 30.6656 45.113 31.5959 41.9399 32.237L42.336 34.1973ZM41.344 33.8251L44.2405 37.608L45.8285 36.392L42.9319 32.6092L41.344 33.8251ZM32 33.1667C30.2816 33.1667 28.6137 33.0906 27.0209 32.947L26.8412 34.9389C28.4951 35.088 30.2229 35.1667 32 35.1667V33.1667ZM27.0209 32.947C25.2193 32.7845 23.5161 32.5358 21.9463 32.2138L21.5444 34.173C23.1935 34.5112 24.9712 34.7702 26.8412 34.9389L27.0209 32.947ZM32 35.1667C33.6454 35.1667 35.2486 35.0992 36.7899 34.9709L36.6239 32.9778C35.1389 33.1015 33.5911 33.1667 32 33.1667V35.1667ZM36.7899 34.9709C38.7499 34.8076 40.6123 34.5456 42.336 34.1973L41.9399 32.237C40.2982 32.5686 38.513 32.8204 36.6239 32.9778L36.7899 34.9709Z" fill="black"/>
<path d="M32.258 34.9847L27.2414 34.7583L19.4839 51.4983C21.0645 49.8282 26.3168 48.601 32.258 48.601C38.1288 48.601 43.0836 49.7993 44.6454 51.4392L36.9162 34.7901L32.258 34.9847Z" fill="#4EB2D1"/>
<path d="M32.258 56.4841C39.3822 56.4841 45.1576 54.7194 45.1576 52.5425C45.1576 52.1595 44.9788 51.7893 44.6454 51.4392C43.0836 49.7993 38.1288 48.601 32.258 48.601C26.3168 48.601 21.0645 49.8282 19.4839 51.4983C19.1691 51.8309 19 52.181 19 52.5425C19 54.7194 25.1337 56.4841 32.258 56.4841Z" fill="#4EB2D1"/>
<path d="M32.258 34.9847L32.2129 35.9837L32.2563 35.9857L32.2997 35.9838L32.258 34.9847ZM22.2555 33.0107C21.7092 32.93 21.2008 33.3075 21.1201 33.8538C21.0394 34.4002 21.4168 34.9085 21.9632 34.9893L22.2555 33.0107ZM42.4321 35.014C42.9789 34.9361 43.3589 34.4297 43.281 33.8829C43.2031 33.3362 42.6967 32.9561 42.1499 33.0341L42.4321 35.014ZM32.303 33.9857L27.2865 33.7594L27.1964 35.7573L32.2129 35.9837L32.303 33.9857ZM27.3876 33.7691L22.2555 33.0107L21.9632 34.9893L27.0953 35.7476L27.3876 33.7691ZM32.2997 35.9838L36.9579 35.7892L36.8744 33.791L32.2162 33.9856L32.2997 35.9838ZM37.0573 35.7801L42.4321 35.014L42.1499 33.0341L36.7751 33.8001L37.0573 35.7801ZM44.1576 52.5425C44.1576 52.6103 44.1095 52.868 43.5583 53.2662C43.0301 53.6477 42.2013 54.0329 41.0872 54.3733C38.8713 55.0504 35.7494 55.4841 32.258 55.4841V57.4841C35.8907 57.4841 39.2187 57.0355 41.6716 56.286C42.8918 55.9131 43.9521 55.4489 44.7295 54.8874C45.4838 54.3424 46.1576 53.5632 46.1576 52.5425H44.1576ZM32.258 55.4841C28.7667 55.4841 25.551 55.0504 23.2397 54.3703C22.0774 54.0283 21.2001 53.6401 20.636 53.2526C20.0378 52.8416 20 52.5844 20 52.5425H18C18 53.5891 18.7289 54.3689 19.5034 54.901C20.312 55.4565 21.4134 55.9177 22.6751 56.289C25.2117 57.0354 28.6249 57.4841 32.258 57.4841V55.4841ZM32.258 49.601C35.1307 49.601 37.7596 49.8947 39.8409 50.3791C40.8817 50.6214 41.7682 50.9074 42.4723 51.2185C43.188 51.5349 43.658 51.8525 43.9212 52.1288L45.3695 50.7495C44.8518 50.206 44.1168 49.7588 43.2808 49.3893C42.4331 49.0146 41.4212 48.6935 40.2943 48.4312C38.0399 47.9065 35.256 47.601 32.258 47.601V49.601ZM43.9212 52.1288C44.1391 52.3576 44.1576 52.4935 44.1576 52.5425H46.1576C46.1576 51.8256 45.8185 51.221 45.3695 50.7495L43.9212 52.1288ZM20 52.5425C20 52.5152 20.0086 52.3987 20.2102 52.1857L18.7576 50.811C18.3297 51.2631 18 51.8469 18 52.5425H20ZM20.2102 52.1857C20.4728 51.9082 20.9583 51.5838 21.7088 51.2586C22.4451 50.9396 23.3737 50.6465 24.4587 50.3982C26.6282 49.9018 29.3506 49.601 32.258 49.601V47.601C29.2241 47.601 26.3498 47.9138 24.0127 48.4486C22.8444 48.7159 21.7923 49.0427 20.9136 49.4235C20.049 49.7981 19.2853 50.2534 18.7576 50.811L20.2102 52.1857ZM20.3912 51.9188L28.1487 35.1788L26.3341 34.3379L18.5766 51.0779L20.3912 51.9188ZM36.0091 35.2112L43.7383 51.8603L45.5524 51.0181L37.8232 34.369L36.0091 35.2112Z" fill="black"/>
<path d="M36 35.9841H32V47.5914C36.728 47.5914 42.5 48.9841 42.5 48.9841L39.75 43.4841L36.5 36.4841L36 35.9841Z" fill="#317185"/>
<path d="M44.441 52.6328C44.441 52.3194 44.3861 52.1597 43.7244 51.5578C42.8008 50.7177 39.0662 49.7662 38.3496 49.7662C40.571 50.8769 40.4373 54.0909 38.1313 55.0134L36.9163 55.4994C40.7545 54.9565 44.441 53.8652 44.441 52.6328Z" fill="#317185"/>
</svg>
