<svg width="96" height="96" viewBox="0 0 96 96" fill="none" xmlns="http://www.w3.org/2000/svg">
<path d="M67 35C67 32.6362 66.5215 30.2956 65.5918 28.1117C64.6621 25.9278 63.2994 23.9435 61.5815 22.2721C59.8636 20.6006 57.8242 19.2748 55.5796 18.3702C53.3351 17.4656 50.9295 17 48.5 17C46.0705 17 43.6649 17.4656 41.4204 18.3702C39.1758 19.2748 37.1364 20.6006 35.4185 22.2721C33.7006 23.9435 32.3379 25.9278 31.4082 28.1117C30.4785 30.2956 30 32.6362 30 35L48.5 35H67Z" fill="#F0F0F0"/>
<path d="M67 35V36C67.5523 36 68 35.5523 68 35H67ZM30 35H29C29 35.2652 29.1054 35.5196 29.2929 35.7071C29.4804 35.8946 29.7348 36 30 36L30 35ZM48.5 35V34V35ZM68 35C68 32.501 67.4941 30.0272 66.5119 27.72L64.6717 28.5034C65.5489 30.5639 66 32.7714 66 35H68ZM66.5119 27.72C65.5297 25.4129 64.0908 23.3184 62.2788 21.5554L60.8841 22.9888C62.5079 24.5687 63.7944 26.4428 64.6717 28.5034L66.5119 27.72ZM62.2788 21.5554C60.4669 19.7924 58.3173 18.3953 55.9534 17.4427L55.2058 19.2977C57.331 20.1542 59.2603 21.4089 60.8841 22.9888L62.2788 21.5554ZM55.9534 17.4427C53.5896 16.49 51.057 16 48.5 16V18C50.8019 18 53.0806 18.4412 55.2058 19.2977L55.9534 17.4427ZM48.5 16C45.943 16 43.4104 16.49 41.0466 17.4427L41.7942 19.2977C43.9194 18.4412 46.1981 18 48.5 18V16ZM41.0466 17.4427C38.6827 18.3953 36.5331 19.7924 34.7212 21.5554L36.1159 22.9888C37.7397 21.4089 39.669 20.1542 41.7942 19.2977L41.0466 17.4427ZM34.7212 21.5554C32.9092 23.3184 31.4703 25.4129 30.4881 27.72L32.3283 28.5034C33.2056 26.4428 34.4921 24.5687 36.1159 22.9888L34.7212 21.5554ZM30.4881 27.72C29.5059 30.0272 29 32.501 29 35H31C31 32.7714 31.4511 30.5639 32.3283 28.5034L30.4881 27.72ZM30 36L48.5 36V34L30 34L30 36ZM48.5 36H67V34H48.5V36Z" fill="black"/>
<path fill-rule="evenodd" clip-rule="evenodd" d="M19.5 44C19.5 48.2031 25.4842 51.7692 34.3388 53.6259C36.5614 54.092 38.9649 54.4504 41.5 54.6841C43.7418 54.8908 46.0865 55 48.5 55C50.7347 55 52.9104 54.9064 55 54.7285C57.6578 54.5021 60.1763 54.1394 62.5 53.6595C71.4431 51.8124 77.5 48.2286 77.5 44C77.5 40.4377 73.2014 37.0534 66.5 35H30.5C23.7986 37.0534 19.5 40.4377 19.5 44ZM40.5 44C40.5 45.1046 39.6046 46 38.5 46C37.3954 46 36.5 45.1046 36.5 44C36.5 42.8954 37.3954 42 38.5 42C39.6046 42 40.5 42.8954 40.5 44ZM48.5 46C49.6046 46 50.5 45.1046 50.5 44C50.5 42.8954 49.6046 42 48.5 42C47.3954 42 46.5 42.8954 46.5 44C46.5 45.1046 47.3954 46 48.5 46ZM60.5 44C60.5 45.1046 59.6046 46 58.5 46C57.3954 46 56.5 45.1046 56.5 44C56.5 42.8954 57.3954 42 58.5 42C59.6046 42 60.5 42.8954 60.5 44Z" fill="#F0F0F0"/>
<path d="M30.5 35V34H30.3502L30.207 34.0439L30.5 35ZM66.5 35L66.793 34.0439L66.6498 34H66.5V35ZM34.3388 53.6259L34.544 52.6472L34.3388 53.6259ZM30.1506 58.4723C29.8591 58.9414 30.0032 59.558 30.4723 59.8494C30.9414 60.1409 31.558 59.9968 31.8494 59.5277L30.1506 58.4723ZM62.5 53.6595L62.2977 52.6802L62.5 53.6595ZM65.6996 59.5995C66.0307 60.0415 66.6574 60.1315 67.0995 59.8004C67.5415 59.4693 67.6315 58.8426 67.3004 58.4005L65.6996 59.5995ZM41.5 54.6841L41.4082 55.6799L41.5 54.6841ZM55 54.7285L54.9152 53.7321L55 54.7285ZM20.5 44C20.5 42.6446 21.3212 41.1644 23.1161 39.7114C24.898 38.2689 27.52 36.959 30.793 35.9561L30.207 34.0439C26.7785 35.0944 23.9005 36.5033 21.8578 38.1569C19.8281 39.7999 18.5 41.7931 18.5 44H20.5ZM78.5 44C78.5 41.7931 77.1719 39.7999 75.1422 38.1569C73.0995 36.5033 70.2215 35.0944 66.793 34.0439L66.207 35.9561C69.48 36.959 72.102 38.2689 73.8839 39.7114C75.6788 41.1644 76.5 42.6446 76.5 44H78.5ZM19.5 45H36.5V43H19.5V45ZM39.5 44C39.5 44.5523 39.0523 45 38.5 45V47C40.1569 47 41.5 45.6569 41.5 44H39.5ZM38.5 45C37.9477 45 37.5 44.5523 37.5 44H35.5C35.5 45.6569 36.8431 47 38.5 47V45ZM37.5 44C37.5 43.4477 37.9477 43 38.5 43V41C36.8431 41 35.5 42.3431 35.5 44H37.5ZM38.5 43C39.0523 43 39.5 43.4477 39.5 44H41.5C41.5 42.3431 40.1569 41 38.5 41V43ZM49.5 44C49.5 44.5523 49.0523 45 48.5 45V47C50.1569 47 51.5 45.6569 51.5 44H49.5ZM48.5 45C47.9477 45 47.5 44.5523 47.5 44H45.5C45.5 45.6569 46.8431 47 48.5 47V45ZM47.5 44C47.5 43.4477 47.9477 43 48.5 43V41C46.8431 41 45.5 42.3431 45.5 44H47.5ZM48.5 43C49.0523 43 49.5 43.4477 49.5 44H51.5C51.5 42.3431 50.1569 41 48.5 41V43ZM59.5 44C59.5 44.5523 59.0523 45 58.5 45V47C60.1569 47 61.5 45.6569 61.5 44H59.5ZM58.5 45C57.9477 45 57.5 44.5523 57.5 44H55.5C55.5 45.6569 56.8431 47 58.5 47V45ZM57.5 44C57.5 43.4477 57.9477 43 58.5 43V41C56.8431 41 55.5 42.3431 55.5 44H57.5ZM58.5 43C59.0523 43 59.5 43.4477 59.5 44H61.5C61.5 42.3431 60.1569 41 58.5 41V43ZM30.5 36H66.5V34H30.5V36ZM40.5 45H46.5V43H40.5V45ZM50.5 45H56.5V43H50.5V45ZM60.5 45H77.5V43H60.5V45ZM34.544 52.6472C30.1832 51.7328 26.5998 50.4103 24.1341 48.8481C21.6353 47.2651 20.5 45.5858 20.5 44H18.5C18.5 46.6174 20.3568 48.8227 23.0637 50.5376C25.8037 52.2735 29.6398 53.6623 34.1335 54.6047L34.544 52.6472ZM33.4894 53.0982L30.1506 58.4723L31.8494 59.5277L35.1882 54.1537L33.4894 53.0982ZM62.7023 54.6388C67.2404 53.7015 71.1167 52.311 73.8861 50.5693C76.6212 48.8491 78.5 46.6331 78.5 44H76.5C76.5 45.5955 75.3504 47.2857 72.8213 48.8763C70.3264 50.4454 66.7027 51.7703 62.2977 52.6802L62.7023 54.6388ZM61.6996 54.259L65.6996 59.5995L67.3004 58.4005L63.3004 53.06L61.6996 54.259ZM48.5 54C46.1164 54 43.8024 53.8921 41.5918 53.6883L41.4082 55.6799C43.6812 55.8895 46.0565 56 48.5 56V54ZM41.5918 53.6883C39.0917 53.4578 36.7263 53.1048 34.544 52.6472L34.1335 54.6047C36.3966 55.0792 38.8381 55.4429 41.4082 55.6799L41.5918 53.6883ZM48.5 56C50.7625 56 52.9665 55.9052 55.0848 55.7248L54.9152 53.7321C52.8543 53.9075 50.7069 54 48.5 54V56ZM55.0848 55.7248C57.7788 55.4955 60.3368 55.1274 62.7023 54.6388L62.2977 52.6802C60.0159 53.1515 57.5367 53.5088 54.9152 53.7321L55.0848 55.7248Z" fill="black"/>
<path d="M48.5 55.3741L41.5 55.0582L30.6752 78.417C32.8808 76.0866 40.2097 74.3741 48.5 74.3741C56.6921 74.3741 63.606 76.0462 65.7853 78.3344L55 55.1025L48.5 55.3741Z" fill="#4EB2D1"/>
<path d="M48.5 85.3741C58.4411 85.3741 66.5 82.9116 66.5 79.8741C66.5 79.3396 66.2505 78.823 65.7853 78.3344C63.606 76.0462 56.6921 74.3741 48.5 74.3741C40.2097 74.3741 32.8808 76.0866 30.6752 78.417C30.236 78.8811 30 79.3696 30 79.8741C30 82.9116 38.5589 85.3741 48.5 85.3741Z" fill="#4EB2D1"/>
<path d="M48.5 55.3741L48.4549 56.373L48.4983 56.375L48.5417 56.3732L48.5 55.3741ZM34.485 53.0107C33.9386 52.93 33.4302 53.3075 33.3495 53.8538C33.2688 54.4002 33.6462 54.9085 34.1926 54.9893L34.485 53.0107ZM62.6411 55.0235C63.1879 54.9456 63.5679 54.4392 63.49 53.8925C63.4121 53.3457 62.9057 52.9656 62.3589 53.0436L62.6411 55.0235ZM48.5451 54.3751L41.5451 54.0592L41.4549 56.0572L48.4549 56.373L48.5451 54.3751ZM41.6462 54.0689L34.485 53.0107L34.1926 54.9893L41.3538 56.0474L41.6462 54.0689ZM48.5417 56.3732L55.0417 56.1016L54.9583 54.1034L48.4583 54.3749L48.5417 56.3732ZM55.1411 56.0925L62.6411 55.0235L62.3589 53.0436L54.8589 54.1125L55.1411 56.0925ZM65.5 79.8741C65.5 80.157 65.3092 80.6197 64.4999 81.2043C63.7136 81.7723 62.5113 82.3253 60.9357 82.8068C57.7968 83.7659 53.3999 84.3741 48.5 84.3741V86.3741C53.5412 86.3741 58.1443 85.751 61.5201 84.7195C63.2019 84.2056 64.6357 83.5735 65.6711 82.8255C66.6835 82.0941 67.5 81.1099 67.5 79.8741H65.5ZM48.5 84.3741C43.6003 84.3741 39.0741 83.766 35.8044 82.8038C34.1629 82.3208 32.8944 81.7647 32.0589 81.1907C31.1894 80.5932 31 80.1311 31 79.8741H29C29 81.1358 29.8805 82.1205 30.9264 82.8391C32.0063 83.5811 33.4989 84.2102 35.2398 84.7225C38.7348 85.7509 43.4585 86.3741 48.5 86.3741V84.3741ZM48.5 75.3741C52.5334 75.3741 56.2324 75.7862 59.1707 76.4701C60.6401 76.8121 61.902 77.2181 62.9128 77.6649C63.9353 78.1169 64.6435 78.5856 65.0611 79.0241L66.5094 77.6448C65.8373 76.9391 64.8641 76.3408 63.7213 75.8357C62.5669 75.3254 61.1796 74.8843 59.6241 74.5222C56.5127 73.798 52.6587 73.3741 48.5 73.3741V75.3741ZM65.0611 79.0241C65.4109 79.3913 65.5 79.6736 65.5 79.8741H67.5C67.5 79.0057 67.0902 78.2547 66.5094 77.6448L65.0611 79.0241ZM31 79.8741C31 79.7038 31.0755 79.4488 31.4015 79.1044L29.9489 77.7296C29.3965 78.3133 29 79.0355 29 79.8741H31ZM31.4015 79.1044C31.8204 78.6618 32.5528 78.1832 33.6226 77.7197C34.6782 77.2623 35.9984 76.8466 37.5289 76.4964C40.5892 75.7962 44.4181 75.3741 48.5 75.3741V73.3741C44.2916 73.3741 40.3109 73.8082 37.0828 74.5468C35.4691 74.916 34.0254 75.3655 32.8274 75.8846C31.6436 76.3975 30.6328 77.007 29.9489 77.7296L31.4015 79.1044ZM31.5825 78.8374L42.4073 55.4786L40.5927 54.6377L29.7679 77.9965L31.5825 78.8374ZM54.093 55.5236L64.8782 78.7555L66.6923 77.9134L55.907 54.6814L54.093 55.5236Z" fill="black"/>
<path d="M54.5 56L48 56.3567V73.4146C54.5792 73.4146 63 75.5 63 75.5L63.3071 75.5714L54.5 56Z" fill="#317185"/>
<path d="M65.5 80C65.5 79.5627 65.4233 79.3398 64.5 78.5C63.2112 77.3277 58 76 57 76C60.0998 77.5499 59.9133 82.0347 56.6954 83.3218L55 84C60.3558 83.2425 65.5 81.7197 65.5 80Z" fill="#317185"/>
</svg>
