<svg width="96" height="96" viewBox="0 0 96 96" fill="none" xmlns="http://www.w3.org/2000/svg">
<path d="M74 72V48.2562C74 48.0881 73.9591 47.9248 73.869 47.7829C73.3396 46.9492 71.2116 44 67.6 44C63.3939 44 61.2 47.1111 61.2 47.1111M74 64C74 68.4183 70.4183 72 66 72C61.5817 72 58 68.4183 58 64C58 59.5817 61.5817 56 66 56C70.4183 56 74 59.5817 74 64Z" stroke="black" stroke-width="2" stroke-linecap="round" stroke-linejoin="round"/>
<path d="M23.2 72L28 48.7273M44 48.7273L48.8 72H45.6H52M44 48.7273L39.3027 25.9525C39.2382 25.6396 39.028 25.3764 38.7371 25.2441L36.4138 24.1881C36.1509 24.0686 35.8491 24.0686 35.5862 24.1881L33.2629 25.2441C32.972 25.3764 32.7618 25.6396 32.6973 25.9525L28 48.7273M44 48.7273H28M26.4 72H20" stroke="black" stroke-width="2" stroke-linecap="round" stroke-linejoin="round"/>
</svg>
