<svg width="96" height="96" viewBox="0 0 96 96" fill="none" xmlns="http://www.w3.org/2000/svg">
<circle cx="19" cy="69" r="7" fill="#85B0EB" stroke="black" stroke-width="2"/>
<circle cx="77" cy="69" r="7" fill="#85B0EB" stroke="black" stroke-width="2"/>
<circle cx="48" cy="33" r="7" fill="#85B0EB" stroke="black" stroke-width="2"/>
<path fill-rule="evenodd" clip-rule="evenodd" d="M55.999 33.125C55.9997 33.0834 56 33.0417 56 33C56 32.3031 55.9109 31.6271 55.7435 30.9827C57.1441 31.344 58.5209 31.8037 59.8632 32.3597C63.6243 33.9176 67.0417 36.201 69.9203 39.0797C72.7989 41.9583 75.0824 45.3757 76.6403 49.1368C78.1982 52.8979 79 56.929 79 61C79 61.5522 78.5523 62 78 62C77.4477 62 77 61.5522 77 61C77 57.1916 76.2499 53.4206 74.7925 49.9021C73.3351 46.3837 71.199 43.1868 68.5061 40.4939C65.8132 37.801 62.6163 35.6648 59.0978 34.2075C58.0841 33.7876 57.0495 33.4264 55.999 33.125ZM40.001 33.125C38.9505 33.4264 37.9159 33.7876 36.9022 34.2075C33.3837 35.6648 30.1868 37.801 27.4939 40.4939C24.801 43.1868 22.6649 46.3837 21.2075 49.9021C19.7501 53.4206 19 57.1916 19 61C19 61.5523 18.5523 62 18 62C17.4477 62 17 61.5523 17 61C17 56.929 17.8018 52.8979 19.3597 49.1368C20.9176 45.3757 23.2011 41.9583 26.0797 39.0797C28.9583 36.201 32.3757 33.9176 36.1368 32.3597C37.4791 31.8037 38.8559 31.344 40.2565 30.9827C40.0891 31.6271 40 32.3031 40 33C40 33.0417 40.0003 33.0834 40.001 33.125Z" fill="black"/>
<path fill-rule="evenodd" clip-rule="evenodd" d="M56 33L83 33C83.5523 33 84 32.5523 84 32C84 31.4477 83.5523 31 83 31H55.748C55.9125 31.6392 56 32.3094 56 33ZM40.252 31C40.0875 31.6392 40 32.3094 40 33L13 33C12.4477 33 12 32.5523 12 32C12 31.4477 12.4477 31 13 31H40.252Z" fill="black"/>
<path d="M48 48L54 58.3923L48 56.6603L42 58.3923L48 48Z" fill="black"/>
</svg>
