<svg width="48" height="48" viewBox="0 0 48 48" fill="none" xmlns="http://www.w3.org/2000/svg">
<circle cx="13" cy="31" r="3" fill="#85B0EB" stroke="black" stroke-width="2"/>
<circle cx="35" cy="31" r="3" fill="#85B0EB" stroke="black" stroke-width="2"/>
<circle cx="24" cy="16" r="3" fill="#85B0EB" stroke="black" stroke-width="2"/>
<path fill-rule="evenodd" clip-rule="evenodd" d="M27.603 17.7394C27.8574 17.2135 28 16.6234 28 16C28 15.9126 27.9972 15.8259 27.9917 15.7399C28.2036 15.8209 28.4135 15.9083 28.6213 16.0022C30.0831 16.6627 31.4055 17.6283 32.5153 18.839C33.625 20.0496 34.5012 21.4821 35.0976 23.0528C35.6939 24.6235 36 26.3043 36 28C36 28.5523 35.5523 29 35 29C34.4477 29 34 28.5523 34 28C34 26.544 33.737 25.1039 33.2278 23.7628C32.7186 22.4217 31.9742 21.2085 31.041 20.1905C30.108 19.1726 29.0051 18.3703 27.7977 17.8247C27.7331 17.7955 27.6682 17.7671 27.603 17.7394ZM20.397 17.7394C20.3318 17.7671 20.2669 17.7955 20.2023 17.8247C18.9949 18.3703 17.892 19.1726 16.959 20.1905C16.0258 21.2085 15.2814 22.4217 14.7722 23.7628C14.263 25.1039 14 26.544 14 28C14 28.5523 13.5523 29 13 29C12.4477 29 12 28.5523 12 28C12 26.3043 12.3061 24.6235 12.9024 23.0528C13.4988 21.4821 14.375 20.0496 15.4847 18.839C16.5945 17.6283 17.9169 16.6627 19.3787 16.0022C19.5865 15.9083 19.7964 15.8209 20.0083 15.7399C20.0028 15.8259 20 15.9126 20 16C20 16.6234 20.1426 17.2135 20.397 17.7394Z" fill="black"/>
<path fill-rule="evenodd" clip-rule="evenodd" d="M27.874 17C27.9562 16.6804 28 16.3453 28 16C28 15.6547 27.9562 15.3196 27.874 15H39C39.5523 15 40 15.4477 40 16C40 16.5523 39.5523 17 39 17H27.874ZM20.126 17H9C8.44772 17 8 16.5523 8 16C8 15.4477 8.44772 15 9 15H20.126C20.0438 15.3196 20 15.6547 20 16C20 16.3453 20.0438 16.6804 20.126 17Z" fill="black"/>
<path d="M24 24L27 29.1962L24 28.3301L21 29.1962L24 24Z" fill="black"/>
</svg>
