<svg width="96" height="96" viewBox="0 0 96 96" fill="none" xmlns="http://www.w3.org/2000/svg">
<path d="M17 67.3333V75C17 77.2091 18.7909 79 21 79H49C51.2091 79 53 77.2091 53 75V50.6667M17 67.3333V43C17 40.7909 18.7909 39 21 39H49C51.2091 39 53 40.7909 53 43V50.6667M17 67.3333L24.5206 60.1709C26.1523 58.6168 28.745 58.7167 30.2524 60.3916L33.6654 64.1837C35.2038 65.8931 37.8632 65.9563 39.4812 64.3221L53 50.6667" stroke="black" stroke-width="2" stroke-linejoin="round"/>
<path d="M37 21C37 18.7909 38.7909 17 41 17H75C77.2091 17 79 18.7909 79 21V25C79 27.2091 77.2091 29 75 29H41C38.7909 29 37 27.2091 37 25V21Z" stroke="black" stroke-width="2" stroke-linejoin="round"/>
<line x1="60" y1="39" x2="79" y2="39" stroke="black" stroke-width="2" stroke-linecap="round"/>
<line x1="60" y1="47" x2="79" y2="47" stroke="black" stroke-width="2" stroke-linecap="round"/>
<line x1="60" y1="55" x2="79" y2="55" stroke="black" stroke-width="2" stroke-linecap="round"/>
<line x1="60" y1="63" x2="79" y2="63" stroke="black" stroke-width="2" stroke-linecap="round"/>
<line x1="60" y1="71" x2="79" y2="71" stroke="black" stroke-width="2" stroke-linecap="round"/>
<line x1="60" y1="79" x2="79" y2="79" stroke="black" stroke-width="2" stroke-linecap="round"/>
<circle cx="24" cy="24" r="7" fill="#EB5757" stroke="black" stroke-width="2" stroke-linejoin="round"/>
</svg>
