<svg width="333" height="141" viewBox="0 0 333 141" fill="none" xmlns="http://www.w3.org/2000/svg">
<path d="M332 100.878L324.622 95.3583C315.4 91.6788 300.644 80.6404 284.044 80.6404C269.289 80.6404 252.689 91.6788 237.933 82.4801C221.333 75.1212 204.733 47.5251 189.978 42.0059C173.378 34.6469 158.622 47.5251 142.022 58.5635C127.267 67.7622 110.667 75.1212 94.0667 76.9609C79.3111 80.6404 62.7111 80.6404 47.9556 75.1212C31.3556 67.7622 16.6 54.884 7.37779 47.5251L9.05991e-06 42.0059" stroke="#ABC7D8" stroke-width="2" stroke-linecap="round"/>
<path d="M332 62.0362L324.622 56.517C315.4 52.8375 300.644 41.7991 284.044 41.7991C269.289 41.7991 252.689 52.8375 237.933 43.6388C221.333 36.2799 204.733 8.68378 189.978 3.16456C173.378 -4.19439 158.622 8.68378 142.022 19.7222C127.267 28.9209 110.667 36.2799 94.0667 38.1196C79.3111 41.7991 62.7111 41.7991 47.9556 36.2799C31.3556 28.9209 16.6 16.0427 7.37779 8.68378L9.05991e-06 3.16456" stroke="#ABC7D8" stroke-width="2" stroke-linecap="round"/>
<path d="M332 139.719L324.622 134.199C315.4 130.52 300.644 119.481 284.044 119.481C269.289 119.481 252.689 130.52 237.933 121.321C221.333 113.962 204.733 86.3662 189.978 80.8469C173.378 73.488 158.622 86.3662 142.022 97.4046C127.267 106.603 110.667 113.962 94.0667 115.802C79.3111 119.481 62.7111 119.481 47.9556 113.962C31.3556 106.603 16.6 93.7251 7.37779 86.3662L9.05991e-06 80.8469" stroke="#ABC7D8" stroke-width="2" stroke-linecap="round"/>
</svg>
