<svg width="319" height="273" viewBox="0 0 319 273" fill="none" xmlns="http://www.w3.org/2000/svg">
<path d="M123 55C126.286 46.8408 131.678 39.6602 138.647 34.1631C145.615 28.666 153.921 25.0413 162.749 23.645C171.577 22.2486 180.623 23.1285 189 26.1983" stroke="#8D8D8D" stroke-width="4" stroke-linecap="round"/>
<path d="M45.2022 178C38.3566 178 31.6139 176.356 25.5554 173.209C19.4969 170.063 14.3046 165.509 10.4263 159.939C6.54802 154.37 4.10014 147.953 3.2938 141.241C2.48747 134.53 3.3469 127.725 5.79795 121.415C8.249 115.104 12.2181 109.477 17.3629 105.018C22.5077 100.56 28.6738 97.404 35.3294 95.8229C41.985 94.2418 48.9302 94.2829 55.5661 95.9427C62.202 97.6024 68.3293 100.831 73.4196 105.35C69.1326 110.057 61.8625 110.18 55.8874 107.984C54.8547 107.605 53.7995 107.28 52.7259 107.011C47.9085 105.806 42.8666 105.777 38.035 106.924C33.2033 108.072 28.727 110.363 24.9921 113.6C21.2571 116.837 18.3757 120.922 16.5964 125.503C14.817 130.084 14.1931 135.024 14.7785 139.896C15.3638 144.769 17.1409 149.427 19.9564 153.47C22.7719 157.513 26.5412 160.82 30.9394 163.104C31.9501 163.629 32.987 164.096 34.045 164.504C39.9255 166.775 45.2022 171.694 45.2022 178Z" fill="#5B5A5A"/>
<path d="M100.873 82.2063C99.1611 70.2835 100.614 58.1253 105.091 46.9255C109.567 35.7256 116.912 25.869 126.406 18.3233C135.899 10.7775 147.214 5.80207 159.24 3.88532C171.266 1.96856 183.589 3.17639 195 7.39025L188.265 25.2151C179.981 22.1558 171.034 21.279 162.303 22.6705C153.572 24.0621 145.358 27.6743 138.466 33.1525C131.573 38.6307 126.241 45.7866 122.991 53.9177C122.141 56.0439 121.441 58.2177 120.894 60.4236C118.334 70.7322 111.387 80.7305 100.873 82.2063Z" fill="#5B5A5A"/>
<path d="M52.6947 93.2416C53.9583 87.357 56.6291 81.8857 60.4675 77.3189C64.3059 72.7521 69.1918 69.2327 74.6864 67.0765C80.1811 64.9204 86.1127 64.195 91.9487 64.9654C97.7848 65.7359 103.343 67.9781 108.124 71.4908L106.284 79.1111L104.952 80.1782C101.03 83.3202 95.4891 83.0481 90.5387 82.186C90.2917 82.143 90.0437 82.105 89.7947 82.0722C86.7249 81.6669 83.6049 82.0485 80.7147 83.1826C77.8245 84.3167 75.2546 86.1679 73.2356 88.5701C71.2166 90.9722 69.189 96.2936 68.5244 99.3889L60.7503 95.5L52.6947 93.2416Z" fill="#5B5A5A"/>
<path d="M146.304 261.923C146.304 266.825 142.328 270.798 137.424 270.798C132.519 270.798 128.544 266.825 128.544 261.923C128.544 257.021 132.519 253.048 137.424 253.048C142.328 253.048 146.304 257.021 146.304 261.923Z" fill="#B5CADA"/>
<path d="M100.474 245.667C100.474 250.569 96.4984 254.542 91.594 254.542C86.6896 254.542 82.7137 250.569 82.7137 245.667C82.7137 240.766 86.6896 236.792 91.594 236.792C94.6462 236.792 97.3388 238.331 98.9372 240.675C99.9072 242.097 100.474 243.816 100.474 245.667Z" fill="#B5CADA"/>
<path d="M68.0469 218.74C68.0469 223.641 64.0711 227.615 59.1667 227.615C54.2622 227.615 50.2864 223.641 50.2864 218.74C50.2864 213.838 54.2622 209.864 59.1667 209.864C62.2189 209.864 64.9115 211.403 66.5099 213.747C67.4799 215.17 68.0469 216.889 68.0469 218.74Z" fill="#B5CADA"/>
<path d="M44.7362 178.951V176.951C44.7421 176.951 44.7479 176.951 44.7538 176.951L44.7362 178.951ZM235.384 43.8803L236.484 45.5508C235.996 45.8724 235.391 45.964 234.829 45.8016C234.267 45.6393 233.804 45.2391 233.563 44.7065L235.384 43.8803ZM99.4883 66.0685L101.478 66.2686C101.417 66.8813 101.076 67.4315 100.555 67.7601C100.034 68.0887 99.3913 68.159 98.8118 67.9507L99.4883 66.0685ZM261.46 85.1432C260.576 85.8049 259.323 85.6243 258.661 84.7399C257.999 83.8555 258.18 82.6021 259.064 81.9404L261.46 85.1432ZM68.5578 98.3861C69.4924 98.9748 69.7728 100.21 69.1841 101.144C68.5954 102.079 67.3605 102.359 66.4259 101.771L68.5578 98.3861ZM68.7526 211.987L67.5178 210.414L68.7526 211.987ZM4 136.239C4 158.723 22.2372 176.951 44.7362 176.951V180.951C20.0301 180.951 0 160.934 0 136.239H4ZM44.7362 95.5265C22.2372 95.5265 4 113.755 4 136.239H0C0 111.544 20.0301 91.5265 44.7362 91.5265V95.5265ZM51.6164 96.1044C49.3811 95.7245 47.0826 95.5265 44.7362 95.5265V91.5265C47.3081 91.5265 49.8308 91.7436 52.2865 92.1609L51.6164 96.1044ZM233.563 44.7065C222.671 20.6941 198.533 4 170.447 4V0C200.163 0 225.69 17.6672 237.206 43.0541L233.563 44.7065ZM170.447 4C134.531 4 104.993 31.3011 101.478 66.2686L97.4983 65.8685C101.217 28.8759 132.458 0 170.447 0V4ZM255.642 40.0559C248.118 40.0559 242.257 41.7503 236.484 45.5508L234.285 42.2098C240.762 37.9454 247.4 36.0559 255.642 36.0559V40.0559ZM292.223 73.2172C290.624 54.3849 274.958 40.0559 255.642 40.0559V36.0559C276.997 36.0559 294.43 51.9373 296.209 72.8787L292.223 73.2172ZM98.8118 67.9507C95.2545 66.6721 91.5733 66.1271 87.4725 66.1271V62.1271C91.9431 62.1271 96.0951 62.7237 100.165 64.1864L98.8118 67.9507ZM87.4725 66.1271C70.5158 66.1271 56.5546 78.2752 53.9256 94.4535L49.9773 93.8119C52.9201 75.7029 68.5488 62.1271 87.4725 62.1271V66.1271ZM294.216 75.048C282.672 75.048 269.906 78.824 261.46 85.1432L259.064 81.9404C268.312 75.0214 281.957 71.048 294.216 71.048V75.048ZM66.4259 101.771C61.992 98.9776 56.983 97.0164 51.6164 96.1044L52.2865 92.1609C58.184 93.1631 63.6882 95.3187 68.5578 98.3861L66.4259 101.771ZM139.424 178.951V253.048H135.424V178.951H139.424ZM148.304 261.923C148.304 267.93 143.432 272.798 137.424 272.798V268.798C141.225 268.798 144.304 265.719 144.304 261.923H148.304ZM137.424 272.798C131.416 272.798 126.544 267.93 126.544 261.923H130.544C130.544 265.719 133.623 268.798 137.424 268.798V272.798ZM126.544 261.923C126.544 255.916 131.416 251.048 137.424 251.048V255.048C133.623 255.048 130.544 258.127 130.544 261.923H126.544ZM137.424 251.048C143.432 251.048 148.304 255.916 148.304 261.923H144.304C144.304 258.127 141.225 255.048 137.424 255.048V251.048ZM102.474 245.667C102.474 251.674 97.602 256.542 91.594 256.542V252.542C95.3949 252.542 98.4743 249.463 98.4743 245.667H102.474ZM91.594 256.542C85.5861 256.542 80.7137 251.675 80.7137 245.667H84.7137C84.7137 249.463 87.7931 252.542 91.594 252.542V256.542ZM80.7137 245.667C80.7137 239.66 85.5861 234.792 91.594 234.792V238.792C87.7931 238.792 84.7137 241.871 84.7137 245.667H80.7137ZM91.594 234.792C95.335 234.792 98.6343 236.681 100.59 239.548L97.2849 241.802C96.0433 239.981 93.9575 238.792 91.594 238.792V234.792ZM100.59 239.548C101.779 241.292 102.474 243.401 102.474 245.667H98.4743C98.4743 244.231 98.0356 242.903 97.2849 241.802L100.59 239.548ZM110.832 179.121V223.182H106.832V179.121H110.832ZM102.415 240.488L100.172 242.248L97.7024 239.102L99.9452 237.341L102.415 240.488ZM70.0469 218.74C70.0469 224.747 65.1746 229.615 59.1667 229.615V225.615C62.9676 225.615 66.0469 222.536 66.0469 218.74H70.0469ZM59.1667 229.615C53.1587 229.615 48.2864 224.747 48.2864 218.74H52.2864C52.2864 222.536 55.3657 225.615 59.1667 225.615V229.615ZM48.2864 218.74C48.2864 212.732 53.1587 207.864 59.1667 207.864V211.864C55.3657 211.864 52.2864 214.944 52.2864 218.74H48.2864ZM59.1667 207.864C62.9076 207.864 66.207 209.753 68.1622 212.621L64.8575 214.874C63.6159 213.053 61.5301 211.864 59.1667 211.864V207.864ZM68.1622 212.621C69.3515 214.364 70.0469 216.474 70.0469 218.74H66.0469C66.0469 217.303 65.6082 215.975 64.8575 214.874L68.1622 212.621ZM69.9874 213.56L67.7447 215.321L65.2751 212.174L67.5178 210.414L69.9874 213.56ZM44.7538 176.951L76.4221 177.229L76.387 181.228L44.7187 180.951L44.7538 176.951ZM76.3979 177.229L160.173 176.951L160.186 180.951L76.4112 181.229L76.3979 177.229ZM74.4045 196.254V179.229H78.4045V196.254H74.4045ZM316.537 81.2794C309.843 77.6005 302.234 75.3798 294.134 75.0463L294.298 71.0497C303.031 71.4093 311.241 73.8046 318.463 77.774L316.537 81.2794ZM67.5178 210.414C71.8655 207.002 74.4045 201.781 74.4045 196.254H78.4045C78.4045 203.009 75.3013 209.39 69.9874 213.56L67.5178 210.414ZM110.832 223.182C110.832 229.937 107.729 236.317 102.415 240.488L99.9452 237.341C104.293 233.929 106.832 228.709 106.832 223.182H110.832Z" fill="#8D8D8D"/>
</svg>
