<svg width="430" height="370" viewBox="0 0 430 370" fill="none" xmlns="http://www.w3.org/2000/svg">
<path d="M346.261 285.271C345.923 285.131 331.509 279.265 306.994 289.445C282.185 299.746 309.173 306.794 285.527 311.419C276.362 313.212 286.529 300.416 259.075 302.18C231.622 303.944 228.309 334.86 228.309 334.86C228.309 334.86 225.226 304.984 198.589 298.271C171.951 291.558 187.475 315.86 162.392 306.262C137.31 296.664 175.153 288.479 152.613 275.422C132.86 263.979 111.452 277.755 111.452 277.755C111.452 277.755 124.809 257.197 122.12 248.769C115.124 226.848 92.3625 248.307 83.7755 226.334C75.1884 204.36 101.044 227.477 96.934 204.661C95.7311 197.983 90.8305 192.938 84.5 189.143L96.3108 167.5C101.416 164.546 105.366 160.77 107.103 155.941C108.809 151.198 109.028 147.684 108.361 145L121.5 122.126C123.434 121.316 125.254 120.139 126.869 118.418C132.06 112.887 133.704 105.949 133.497 99L141.341 85.5C149.285 90.6492 159.188 93.8719 169.656 89.5827C194.415 79.4382 182.309 68.463 193.109 65.9732C202.209 63.8754 192.013 78.8689 219.56 75.2124C247.108 71.5559 250.832 54.7515 250.832 54.7515C250.832 54.7515 251.313 71.5598 278.022 77.9208C304.732 84.2818 310.635 62.1712 319.905 68.9742C334.604 79.7614 309.641 82.9158 331.631 96.9786C351.543 109.713 364.881 102.308 367.224 100.795C367.463 100.629 367.593 100.543 367.593 100.543C367.593 100.543 367.468 100.637 367.224 100.795C363.997 103.04 341.021 119.98 354.649 138.329C369.284 158.034 387.474 140.137 390.889 152.694C393.853 163.592 365.858 156.926 370.094 179.421C374.105 200.727 395.726 201.714 398.002 201.759C398.129 201.759 398.196 201.761 398.196 201.761C398.196 201.761 398.129 201.761 398.002 201.759C395.738 201.755 374.279 202.273 367.562 223.087C360.467 245.07 383.64 240.65 379.822 249.612C375.391 260.01 364.681 242.265 347.795 260.609C331.104 278.742 345.917 285.126 346.261 285.271Z" fill="#AFBDC7"/>
<path d="M108.968 283.049C108.968 283.049 102.537 287.376 88.8992 312.778C88.5273 313.47 88.2712 314.214 87.7992 314.778C80.8763 323.061 74.3722 331.144 68.8184 325.135C62.1846 317.958 69.8943 310.821 79.4121 303C88.8156 295.272 108.968 283.049 108.968 283.049H108.968Z" fill="#AFBDC7"/>
<path d="M375.806 94.9151C375.806 94.9151 381.395 89.4743 393.645 75.6371C400.993 67.3365 407.674 54.726 422.986 50.5659C433.919 47.5954 432.328 53.355 416.403 71.7729C400.477 90.1908 375.806 94.9151 375.806 94.9151V94.9151Z" fill="#AFBDC7"/>
<path d="M252.683 45.3736C252.683 45.3736 254.109 35.8352 252.958 30.8089C249.73 16.7121 252.269 5.13556 259.878 0.741398C267.822 -3.84668 265.581 14.0276 263.346 22.3053C261.103 30.6111 252.683 45.3736 252.683 45.3736Z" fill="#AFBDC7"/>
<path d="M351.049 288.438C351.049 288.438 359.273 293.453 364.344 294.338C378.567 296.82 388.235 303.652 389.33 312.381C390.472 321.496 374.894 312.499 368.143 307.226C361.37 301.935 351.049 288.438 351.049 288.438Z" fill="#AFBDC7"/>
<path d="M399.56 147.222C401 147.222 402.167 146.287 402.167 145.133C402.167 143.979 401 143.044 399.56 143.044C398.121 143.044 396.954 143.979 396.954 145.133C396.954 146.287 398.121 147.222 399.56 147.222Z" fill="#AFBDC7"/>
<path d="M298.459 317.66C300.187 317.66 301.587 316.195 301.587 314.388C301.587 312.582 300.187 311.117 298.459 311.117C296.732 311.117 295.331 312.582 295.331 314.388C295.331 316.195 296.732 317.66 298.459 317.66Z" fill="#AFBDC7"/>
<path d="M288.343 318.689C289.529 318.689 290.49 317.726 290.49 316.538C290.49 315.35 289.529 314.387 288.343 314.387C287.157 314.387 286.196 315.35 286.196 316.538C286.196 317.726 287.157 318.689 288.343 318.689Z" fill="#AFBDC7"/>
<path d="M292.654 323.709C293.444 323.709 294.085 323.067 294.085 322.275C294.085 321.483 293.444 320.841 292.654 320.841C291.863 320.841 291.222 321.483 291.222 322.275C291.222 323.067 291.863 323.709 292.654 323.709Z" fill="#AFBDC7"/>
<path d="M232.51 341.924C233.301 341.924 233.942 341.282 233.942 340.49C233.942 339.698 233.301 339.056 232.51 339.056C231.72 339.056 231.079 339.698 231.079 340.49C231.079 341.282 231.72 341.924 232.51 341.924Z" fill="#AFBDC7"/>
<path d="M396.809 157.026C397.521 157.026 398.098 156.448 398.098 155.735C398.098 155.022 397.521 154.443 396.809 154.443C396.097 154.443 395.52 155.022 395.52 155.735C395.52 156.448 396.097 157.026 396.809 157.026Z" fill="#AFBDC7"/>
<path d="M201.137 64.0489C201.991 64.0489 202.684 63.3552 202.684 62.4993C202.684 61.6435 201.991 60.9497 201.137 60.9497C200.283 60.9497 199.59 61.6435 199.59 62.4993C199.59 63.3552 200.283 64.0489 201.137 64.0489Z" fill="#AFBDC7"/>
<path d="M186.957 61.9821C187.954 61.9821 188.762 61.2883 188.762 60.4324C188.762 59.5766 187.954 58.8828 186.957 58.8828C185.961 58.8828 185.153 59.5766 185.153 60.4324C185.153 61.2883 185.961 61.9821 186.957 61.9821Z" fill="#AFBDC7"/>
<path d="M78.1647 213.329C78.8766 213.329 79.4538 212.867 79.4538 212.296C79.4538 211.726 78.8766 211.263 78.1647 211.263C77.4528 211.263 76.8757 211.726 76.8757 212.296C76.8757 212.867 77.4528 213.329 78.1647 213.329Z" fill="#AFBDC7"/>
<path d="M74.2975 219.527C75.4366 219.527 76.36 218.718 76.36 217.719C76.36 216.721 75.4366 215.911 74.2975 215.911C73.1585 215.911 72.2351 216.721 72.2351 217.719C72.2351 218.718 73.1585 219.527 74.2975 219.527Z" fill="#AFBDC7"/>
<path d="M361.748 91.9418C362.46 91.9418 363.038 91.7105 363.038 91.4252C363.038 91.14 362.46 90.9087 361.748 90.9087C361.037 90.9087 360.459 91.14 360.459 91.4252C360.459 91.7105 361.037 91.9418 361.748 91.9418Z" fill="#AFBDC7"/>
<path d="M358.31 97.0335C358.966 97.0335 359.497 96.5602 359.497 95.9765C359.497 95.3927 358.966 94.9194 358.31 94.9194C357.655 94.9194 357.124 95.3927 357.124 95.9765C357.124 96.5602 357.655 97.0335 358.31 97.0335Z" fill="#AFBDC7"/>
<path d="M147.775 309.983C149.276 309.983 150.493 308.763 150.493 307.26C150.493 305.756 149.276 304.537 147.775 304.537C146.274 304.537 145.057 305.756 145.057 307.26C145.057 308.763 146.274 309.983 147.775 309.983Z" fill="#AFBDC7"/>
<path d="M384.099 252.822C384.987 252.822 385.707 252.191 385.707 251.413C385.707 250.634 384.987 250.003 384.099 250.003C383.211 250.003 382.491 250.634 382.491 251.413C382.491 252.191 383.211 252.822 384.099 252.822Z" fill="#AFBDC7"/>
<path d="M79.5971 227.452C80.8182 227.452 81.8081 226.641 81.8081 225.64C81.8081 224.639 80.8182 223.828 79.5971 223.828C78.3761 223.828 77.3862 224.639 77.3862 225.64C77.3862 226.641 78.3761 227.452 79.5971 227.452Z" fill="#AFBDC7"/>
<path d="M228.484 339.838C228.484 339.838 228.119 346.145 229.096 349.36C231.837 358.375 230.898 366.076 226.457 369.379C221.821 372.828 222.239 361.034 223.168 355.504C224.101 349.955 228.484 339.838 228.484 339.838V339.838Z" fill="#AFBDC7"/>
<path d="M270.5 69.5V239.5C270.5 241.709 268.709 243.5 266.5 243.5H55L150.365 67.5936C151.064 66.3035 152.414 65.5 153.881 65.5H266.5C268.709 65.5 270.5 67.2909 270.5 69.5Z" fill="#D9BDC7" stroke="black" stroke-width="2" stroke-linecap="round" stroke-dasharray="10 10"/>
<path d="M193 148.708C193 152.735 196.265 156 200.292 156H249C253.418 156 257 152.418 257 148V138.5L252.618 132.863C249.575 128.949 243.742 128.716 240.398 132.375L230.199 143.53C227.489 146.493 223.003 146.989 219.712 144.689L214.49 141.04C211.863 139.205 208.395 139.113 205.676 140.808L193 148.708V148.708Z" fill="#DAB6C2"/>
<path d="M193 148.708V148.708C193 152.735 196.265 156 200.292 156H249C253.418 156 257 152.418 257 148V138.5M193 148.708V129C193 124.582 196.582 121 201 121H249C253.418 121 257 124.582 257 129V138.5M193 148.708L205.676 140.808C208.395 139.113 211.863 139.205 214.49 141.04L219.712 144.689C223.003 146.989 227.489 146.493 230.199 143.53L240.398 132.375C243.742 128.716 249.575 128.949 252.618 132.863L257 138.5" stroke="black" stroke-width="2" stroke-linejoin="round"/>
<path d="M175 121L123 121" stroke="black" stroke-width="2" stroke-linecap="round"/>
<path d="M175 133L123 133" stroke="black" stroke-width="2" stroke-linecap="round"/>
<path d="M175 145L123 145" stroke="black" stroke-width="2" stroke-linecap="round"/>
<path d="M175 157L123 157" stroke="black" stroke-width="2" stroke-linecap="round"/>
<path d="M123 177C123 172.582 126.582 169 131 169H249C253.418 169 257 172.582 257 177V222.541C257 226.959 253.418 230.541 249 230.541H131C126.582 230.541 123 226.959 123 222.541V177Z" fill="#DAB6C2" stroke="black" stroke-width="2" stroke-linejoin="round"/>
<ellipse cx="155" cy="200" rx="18" ry="18" fill="#EFD8E0"/>
<path d="M190 182H243" stroke="black" stroke-width="2" stroke-linecap="round"/>
<path d="M190 193H243" stroke="black" stroke-width="2" stroke-linecap="round"/>
<path d="M190 204H243" stroke="black" stroke-width="2" stroke-linecap="round"/>
<path d="M190 215H243" stroke="black" stroke-width="2" stroke-linecap="round"/>
<path d="M105 222.541V177C105 172.582 101.418 169 97 169H95.5775L62 230.541H97C101.418 230.541 105 226.959 105 222.541Z" stroke="black" stroke-width="2" stroke-linejoin="round"/>
<path d="M91 193H82.5" stroke="black" stroke-width="2" stroke-linecap="round"/>
<path d="M91 204H76.5" stroke="black" stroke-width="2" stroke-linecap="round"/>
<path d="M91 215H70.5" stroke="black" stroke-width="2" stroke-linecap="round"/>
<path d="M283 342H2" stroke="black" stroke-width="4" stroke-linecap="round"/>
<path d="M60.6158 329.877H73.8824L88.5882 287H141.235L155.941 329.877H168.861C169.939 329.877 170.986 330.261 171.81 330.955C173.983 332.785 173.982 336.15 171.791 337.958C170.975 338.632 169.951 339 168.893 339H155.941H73.8824H60.5901C59.7429 339 58.9125 338.764 58.1923 338.318C55.3315 336.546 55.3288 332.381 58.1738 330.585C58.9038 330.124 59.7524 329.877 60.6158 329.877Z" fill="#DBE2E9"/>
<path d="M141.235 287L143.127 286.351L142.664 285H141.235V287ZM88.5882 287V285H87.1598L86.6964 286.351L88.5882 287ZM58.1738 330.585L57.1059 328.894L57.1059 328.894L58.1738 330.585ZM58.1923 338.318L57.1394 340.018L57.1394 340.018L58.1923 338.318ZM171.81 330.955L170.522 332.485L170.522 332.485L171.81 330.955ZM171.791 337.958L173.064 339.501L173.064 339.501L171.791 337.958ZM60.6158 331.877H73.8824V327.877H60.6158V331.877ZM73.8824 331.877H116.074V327.877H73.8824V331.877ZM168.861 327.877H155.941V331.877H168.861V327.877ZM155.941 327.877H116.074V331.877H155.941V327.877ZM60.5901 341H73.8824V337H60.5901V341ZM73.8824 341H155.941V337H73.8824V341ZM155.941 341H168.893V337H155.941V341ZM157.833 329.228L143.127 286.351L139.343 287.649L154.049 330.526L157.833 329.228ZM75.7742 330.526L90.4801 287.649L86.6964 286.351L71.9905 329.228L75.7742 330.526ZM141.235 285H88.5882V289H141.235V285ZM57.1059 328.894C53.0228 331.472 53.0111 337.462 57.1394 340.018L59.2452 336.617C57.6519 335.631 57.6348 333.29 59.2417 332.276L57.1059 328.894ZM170.522 332.485C171.749 333.519 171.737 335.41 170.518 336.416L173.064 339.501C176.227 336.889 176.218 332.052 173.098 329.426L170.522 332.485ZM60.5901 337C60.1149 337 59.6492 336.867 59.2452 336.617L57.1394 340.018C58.1759 340.66 59.3709 341 60.5901 341V337ZM168.893 341C170.416 341 171.89 340.47 173.064 339.501L170.518 336.416C170.06 336.794 169.486 337 168.893 337V341ZM168.861 331.877C169.465 331.877 170.056 332.093 170.522 332.485L173.098 329.426C171.915 328.43 170.413 327.877 168.861 327.877V331.877ZM60.6158 327.877C59.3729 327.877 58.1543 328.232 57.1059 328.894L59.2417 332.276C59.6534 332.016 60.1319 331.877 60.6158 331.877V327.877Z" fill="black"/>
<path d="M285 278V258.143H47.5L32.5 286H277C281.418 286 285 282.418 285 278Z" fill="#DBE2E9"/>
<path d="M285 258.143H287C287 257.038 286.105 256.143 285 256.143V258.143ZM283 243.5C283 244.605 283.895 245.5 285 245.5C286.105 245.5 287 244.605 287 243.5H283ZM47.5 258.143L45.7408 257.191L45.7391 257.195L47.5 258.143ZM156.732 56.194L154.972 55.2425L154.972 55.2425L156.732 56.194ZM32.5 286L30.7391 285.052C30.4053 285.672 30.422 286.421 30.783 287.026C31.1439 287.63 31.7961 288 32.5 288V286ZM283 258.143V278H287V258.143H283ZM283 60V137.591H287V60H283ZM283 137.591V243.5H287V137.591H283ZM163.768 54H277V50H163.768V54ZM285 256.143H47.5V260.143H285V256.143ZM154.972 55.2425L45.7408 257.191L49.2592 259.094L158.491 57.1455L154.972 55.2425ZM277 284H32.5V288H277V284ZM45.7391 257.195L30.7391 285.052L34.2609 286.948L49.2609 259.091L45.7391 257.195ZM283 278C283 281.314 280.314 284 277 284V288C282.523 288 287 283.523 287 278H283ZM163.768 50C160.096 50 156.719 52.0126 154.972 55.2425L158.491 57.1455C159.539 55.2075 161.565 54 163.768 54V50ZM287 60C287 54.4772 282.523 50 277 50V54C280.314 54 283 56.6863 283 60H287Z" fill="black"/>
<path d="M90.0001 289H140L142.5 297H87.29L90.0001 289Z" fill="#A2A9AF"/>
<ellipse cx="114" cy="272" rx="4.00002" ry="3.99998" fill="black"/>
<path d="M155 97C155 92.5817 158.582 89 163 89H179.206H221C225.418 89 229 92.5817 229 97V101C229 105.418 225.418 109 221 109H171.488H163C158.582 109 155 105.418 155 101V97Z" stroke="black" stroke-width="2" stroke-linejoin="round"/>
<path d="M257 107L252.784 102.05M252.784 102.05C254.748 100.743 256.028 98.6098 256.028 96.2C256.028 92.2235 252.544 89 248.247 89C243.95 89 240.467 92.2235 240.467 96.2C240.467 100.176 243.95 103.4 248.247 103.4C249.94 103.4 251.507 102.9 252.784 102.05Z" stroke="black" stroke-width="2" stroke-linecap="round" stroke-linejoin="round"/>
</svg>
