<svg width="287" height="294" viewBox="0 0 287 294" fill="none" xmlns="http://www.w3.org/2000/svg">
<path d="M270.5 19.5V189.5C270.5 191.709 268.709 193.5 266.5 193.5H55L150.365 17.5936C151.064 16.3035 152.414 15.5 153.881 15.5H266.5C268.709 15.5 270.5 17.2909 270.5 19.5Z" fill="#D9BDC7" stroke="black" stroke-width="2" stroke-linecap="round" stroke-dasharray="10 10"/>
<path d="M193 98.7083C193 102.735 196.265 106 200.292 106H249C253.418 106 257 102.418 257 98V88.5L252.618 82.8628C249.575 78.9491 243.742 78.716 240.398 82.3745L230.199 93.5296C227.489 96.4929 223.003 96.9889 219.712 94.6891L214.49 91.0399C211.863 89.2046 208.395 89.1134 205.676 90.8081L193 98.7083V98.7083Z" fill="#DAB6C2"/>
<path d="M193 98.7083V98.7083C193 102.735 196.265 106 200.292 106H249C253.418 106 257 102.418 257 98V88.5M193 98.7083V79C193 74.5817 196.582 71 201 71H249C253.418 71 257 74.5817 257 79V88.5M193 98.7083L205.676 90.8081C208.395 89.1134 211.863 89.2046 214.49 91.0399L219.712 94.6891C223.003 96.9889 227.489 96.4929 230.199 93.5296L240.398 82.3745C243.742 78.716 249.575 78.9491 252.618 82.8628L257 88.5" stroke="black" stroke-width="2" stroke-linejoin="round"/>
<path d="M175 71L123 71" stroke="black" stroke-width="2" stroke-linecap="round"/>
<path d="M175 83L123 83" stroke="black" stroke-width="2" stroke-linecap="round"/>
<path d="M175 95L123 95" stroke="black" stroke-width="2" stroke-linecap="round"/>
<path d="M175 107L123 107" stroke="black" stroke-width="2" stroke-linecap="round"/>
<path d="M123 127C123 122.582 126.582 119 131 119H249C253.418 119 257 122.582 257 127V172.541C257 176.959 253.418 180.541 249 180.541H131C126.582 180.541 123 176.959 123 172.541V127Z" fill="#DAB6C2" stroke="black" stroke-width="2" stroke-linejoin="round"/>
<ellipse cx="155" cy="150" rx="18" ry="18" fill="#EFD8E0"/>
<path d="M190 132H243" stroke="black" stroke-width="2" stroke-linecap="round"/>
<path d="M190 143H243" stroke="black" stroke-width="2" stroke-linecap="round"/>
<path d="M190 154H243" stroke="black" stroke-width="2" stroke-linecap="round"/>
<path d="M190 165H243" stroke="black" stroke-width="2" stroke-linecap="round"/>
<path d="M105 172.541V127C105 122.582 101.418 119 97 119H95.5775L62 180.541H97C101.418 180.541 105 176.959 105 172.541Z" stroke="black" stroke-width="2" stroke-linejoin="round"/>
<path d="M91 143H82.5" stroke="black" stroke-width="2" stroke-linecap="round"/>
<path d="M91 154H76.5" stroke="black" stroke-width="2" stroke-linecap="round"/>
<path d="M91 165H70.5" stroke="black" stroke-width="2" stroke-linecap="round"/>
<path d="M283 292H2" stroke="black" stroke-width="4" stroke-linecap="round"/>
<path d="M60.6158 279.877H73.8824L88.5882 237H141.235L155.941 279.877H168.861C169.939 279.877 170.986 280.261 171.81 280.955C173.983 282.785 173.982 286.15 171.791 287.958C170.975 288.632 169.951 289 168.893 289H155.941H73.8824H60.5901C59.7429 289 58.9125 288.764 58.1923 288.318C55.3315 286.546 55.3288 282.381 58.1738 280.585C58.9038 280.124 59.7524 279.877 60.6158 279.877Z" fill="#DBE2E9"/>
<path d="M141.235 237L143.127 236.351L142.664 235H141.235V237ZM88.5882 237V235H87.1598L86.6964 236.351L88.5882 237ZM58.1738 280.585L57.1059 278.894L57.1059 278.894L58.1738 280.585ZM58.1923 288.318L57.1394 290.018L57.1394 290.018L58.1923 288.318ZM171.81 280.955L170.522 282.485L170.522 282.485L171.81 280.955ZM171.791 287.958L173.064 289.501L173.064 289.501L171.791 287.958ZM60.6158 281.877H73.8824V277.877H60.6158V281.877ZM73.8824 281.877H116.074V277.877H73.8824V281.877ZM168.861 277.877H155.941V281.877H168.861V277.877ZM155.941 277.877H116.074V281.877H155.941V277.877ZM60.5901 291H73.8824V287H60.5901V291ZM73.8824 291H155.941V287H73.8824V291ZM155.941 291H168.893V287H155.941V291ZM157.833 279.228L143.127 236.351L139.343 237.649L154.049 280.526L157.833 279.228ZM75.7742 280.526L90.4801 237.649L86.6964 236.351L71.9905 279.228L75.7742 280.526ZM141.235 235H88.5882V239H141.235V235ZM57.1059 278.894C53.0228 281.472 53.0111 287.462 57.1394 290.018L59.2452 286.617C57.6519 285.631 57.6348 283.29 59.2417 282.276L57.1059 278.894ZM170.522 282.485C171.749 283.519 171.737 285.41 170.518 286.416L173.064 289.501C176.227 286.889 176.218 282.052 173.098 279.426L170.522 282.485ZM60.5901 287C60.1149 287 59.6492 286.867 59.2452 286.617L57.1394 290.018C58.1759 290.66 59.3709 291 60.5901 291V287ZM168.893 291C170.416 291 171.89 290.47 173.064 289.501L170.518 286.416C170.06 286.794 169.486 287 168.893 287V291ZM168.861 281.877C169.465 281.877 170.056 282.093 170.522 282.485L173.098 279.426C171.915 278.43 170.413 277.877 168.861 277.877V281.877ZM60.6158 277.877C59.3729 277.877 58.1543 278.232 57.1059 278.894L59.2417 282.276C59.6534 282.016 60.1319 281.877 60.6158 281.877V277.877Z" fill="black"/>
<path d="M285 228V208.143H47.5L32.5 236H277C281.418 236 285 232.418 285 228Z" fill="#DBE2E9"/>
<path d="M285 208.143H287C287 207.038 286.105 206.143 285 206.143V208.143ZM283 193.5C283 194.605 283.895 195.5 285 195.5C286.105 195.5 287 194.605 287 193.5H283ZM47.5 208.143L45.7408 207.191L45.7391 207.195L47.5 208.143ZM32.5 236L30.7391 235.052C30.4053 235.672 30.422 236.421 30.783 237.026C31.1439 237.63 31.7961 238 32.5 238V236ZM156.732 6.19398L154.972 5.24247L154.972 5.24247L156.732 6.19398ZM103.25 105.071L105.009 106.023L105.009 106.023L103.25 105.071ZM283 208.143V228H287V208.143H283ZM283 10V87.5906H287V10H283ZM283 87.5906V193.5H287V87.5906H283ZM163.768 4H277V0H163.768V4ZM285 206.143H47.5V210.143H285V206.143ZM277 234H32.5V238H277V234ZM45.7391 207.195L30.7391 235.052L34.2609 236.948L49.2609 209.091L45.7391 207.195ZM154.972 5.24247L101.491 104.12L105.009 106.023L158.491 7.14548L154.972 5.24247ZM101.491 104.12L45.7408 207.191L49.2592 209.094L105.009 106.023L101.491 104.12ZM283 228C283 231.314 280.314 234 277 234V238C282.523 238 287 233.523 287 228H283ZM163.768 0C160.096 0 156.719 2.01258 154.972 5.24247L158.491 7.14548C159.539 5.20755 161.565 4 163.768 4V0ZM287 10C287 4.47715 282.523 0 277 0V4C280.314 4 283 6.68629 283 10H287Z" fill="black"/>
<path d="M90 239H140L142.5 247H87.2899L90 239Z" fill="#A2A9AF"/>
<ellipse cx="114" cy="222" rx="4.00002" ry="3.99998" fill="black"/>
<path d="M155 47C155 42.5817 158.582 39 163 39H179.206H221C225.418 39 229 42.5817 229 47V51C229 55.4183 225.418 59 221 59H171.488H163C158.582 59 155 55.4183 155 51V47Z" stroke="black" stroke-width="2" stroke-linejoin="round"/>
<path d="M257 57L252.784 52.05M252.784 52.05C254.748 50.7431 256.028 48.6098 256.028 46.2C256.028 42.2235 252.544 39 248.247 39C243.95 39 240.467 42.2235 240.467 46.2C240.467 50.1765 243.95 53.4 248.247 53.4C249.94 53.4 251.507 52.8996 252.784 52.05Z" stroke="black" stroke-width="2" stroke-linecap="round" stroke-linejoin="round"/>
</svg>
