<svg width="124" height="48" viewBox="0 0 124 48" fill="none" xmlns="http://www.w3.org/2000/svg">
<path d="M25.3557 2.00004L38.6347 15.279C40.1968 16.8411 42.7294 16.8411 44.2915 15.279L54.7421 4.82846C56.3042 3.26637 58.8368 3.26637 60.3989 4.82847L70.8494 15.279C72.4115 16.8411 74.9442 16.8411 76.5063 15.279L86.9568 4.82846C88.5189 3.26637 91.0516 3.26637 92.6137 4.82847L103.064 15.279C104.626 16.8411 107.159 16.8411 108.721 15.279L122 2.00004" stroke="#DAB6C2" stroke-width="4" stroke-linecap="round" stroke-linejoin="round"/>
<path d="M2 45.4897L15.279 32.2107C16.8411 30.6487 19.3737 30.6487 20.9358 32.2108L31.3863 42.6613C32.9484 44.2234 35.4811 44.2234 37.0432 42.6613L47.4937 32.2107C49.0558 30.6487 51.5885 30.6487 53.1506 32.2108L63.6011 42.6613C65.1632 44.2234 67.6959 44.2234 69.258 42.6613L79.7085 32.2107C81.2706 30.6487 83.8032 30.6487 85.3653 32.2108L98.6443 45.4897" stroke="#DAB6C2" stroke-width="4" stroke-linecap="round" stroke-linejoin="round"/>
</svg>
