<svg width="112" height="242" viewBox="0 0 112 242" fill="none" xmlns="http://www.w3.org/2000/svg">
<path d="M118.184 59.3671C110.46 59.3671 102.811 60.8884 95.6755 63.8442C88.5396 66.8 82.0557 71.1324 76.5941 76.594C71.1325 82.0556 66.8001 88.5395 63.8443 95.6754C60.8885 102.811 59.3672 110.46 59.3672 118.183C59.3672 125.907 60.8885 133.556 63.8443 140.691C66.8001 147.827 71.1325 154.311 76.5941 159.773C82.0557 165.234 88.5396 169.567 95.6755 172.523C102.811 175.478 110.46 177 118.184 177L118.184 118.183V59.3671Z" fill="#ABC7D8"/>
<path d="M119.082 0.999824C103.575 0.999824 88.2201 4.0541 73.8937 9.98825C59.5674 15.9224 46.5502 24.6202 35.5853 35.5851C24.6204 46.55 15.9226 59.5673 9.98843 73.8936C4.05427 88.2199 0.999999 103.575 1 119.081C1 134.588 4.05427 149.943 9.98843 164.269C15.9226 178.596 24.6204 191.613 35.5853 202.578C46.5502 213.543 59.5674 222.241 73.8938 228.175C88.2201 234.109 103.575 237.163 119.082 237.163" stroke="#ABC7D8" stroke-width="2"/>
<circle cx="61" cy="217" r="25" fill="#EDE3E6"/>
</svg>
