<svg width="1440" height="420" viewBox="0 0 1440 420" fill="none" xmlns="http://www.w3.org/2000/svg">
<path fill-rule="evenodd" clip-rule="evenodd" d="M0 80.7692L39.6 150.769C80.4 220.769 159.6 253.077 240 244.327C320.4 235.577 399.6 69.1026 480 51.6026C560.4 34.1026 639.6 156.603 720 156.603C800.4 156.603 879.6 34.1026 960 34.1026C1040.4 34.1026 1119.6 156.603 1200 165.353C1280.4 174.103 1359.6 105 1400.4 52.5L1440 0V420H1400.4C1359.6 420 1280.4 420 1200 420C1119.6 420 1040.4 420 960 420C879.6 420 800.4 420 720 420C639.6 420 560.4 420 480 420C399.6 420 320.4 420 240 420C159.6 420 80.4 420 39.6 420H0V80.7692Z" fill="url(#paint0_linear_915_1725)"/>
<defs>
<linearGradient id="paint0_linear_915_1725" x1="719.295" y1="-1.3924e-09" x2="719.354" y2="420" gradientUnits="userSpaceOnUse">
<stop stop-color="#F5F5F5"/>
<stop offset="0.979234" stop-color="#D9BDC7"/>
</linearGradient>
</defs>
</svg>
