<svg width="492" height="370" viewBox="0 0 492 370" fill="none" xmlns="http://www.w3.org/2000/svg">
<path d="M408.261 285.271C407.923 285.131 393.509 279.265 368.994 289.445C344.185 299.746 371.173 306.794 347.527 311.419C338.362 313.212 348.529 300.416 321.075 302.18C293.622 303.944 290.309 334.86 290.309 334.86C290.309 334.86 287.226 304.984 260.589 298.271C233.951 291.558 249.475 315.86 224.392 306.262C199.31 296.664 237.153 288.479 214.613 275.422C194.86 263.979 173.452 277.755 173.452 277.755C173.452 277.755 186.809 257.197 184.12 248.769C177.124 226.848 154.363 248.307 145.775 226.334C137.188 204.36 163.044 227.477 158.934 204.661C157.731 197.983 152.831 192.938 146.5 189.143L158.311 167.5C163.416 164.546 167.366 160.77 169.103 155.941C170.809 151.198 171.028 147.684 170.361 145L183.5 122.126C185.434 121.316 187.254 120.139 188.869 118.418C194.06 112.887 195.704 105.949 195.497 99L203.341 85.5C211.285 90.6492 221.188 93.8719 231.656 89.5827C256.415 79.4382 244.309 68.463 255.109 65.9732C264.209 63.8754 254.013 78.8689 281.56 75.2124C309.108 71.5559 312.832 54.7515 312.832 54.7515C312.832 54.7515 313.313 71.5598 340.022 77.9208C366.732 84.2818 372.635 62.1712 381.905 68.9742C396.604 79.7614 371.641 82.9158 393.631 96.9786C413.543 109.713 426.881 102.308 429.224 100.795C429.463 100.629 429.593 100.543 429.593 100.543C429.593 100.543 429.468 100.637 429.224 100.795C425.997 103.04 403.021 119.98 416.649 138.329C431.284 158.034 449.474 140.137 452.889 152.694C455.853 163.592 427.858 156.926 432.094 179.421C436.105 200.727 457.726 201.714 460.002 201.759C460.129 201.759 460.196 201.761 460.196 201.761C460.196 201.761 460.129 201.761 460.002 201.759C457.738 201.755 436.279 202.273 429.562 223.087C422.467 245.07 445.64 240.65 441.822 249.612C437.391 260.01 426.681 242.265 409.795 260.609C393.104 278.742 407.917 285.126 408.261 285.271Z" fill="#AFBDC7"/>
<path d="M170.968 283.049C170.968 283.049 164.537 287.376 150.899 312.778C150.527 313.47 150.271 314.214 149.799 314.778C142.876 323.061 136.372 331.144 130.818 325.135C124.185 317.958 131.894 310.821 141.412 303C150.816 295.272 170.968 283.049 170.968 283.049H170.968Z" fill="#AFBDC7"/>
<path d="M437.806 94.9151C437.806 94.9151 443.394 89.4743 455.645 75.6371C462.993 67.3365 469.674 54.726 484.985 50.5659C495.918 47.5954 494.328 53.355 478.402 71.7729C462.477 90.1908 437.806 94.9151 437.806 94.9151Z" fill="#AFBDC7"/>
<path d="M314.683 45.3736C314.683 45.3736 316.109 35.8352 314.958 30.8089C311.73 16.7121 314.269 5.13556 321.878 0.741398C329.822 -3.84668 327.581 14.0276 325.346 22.3053C323.103 30.6111 314.683 45.3736 314.683 45.3736Z" fill="#AFBDC7"/>
<path d="M413.049 288.438C413.049 288.438 421.273 293.453 426.344 294.338C440.567 296.82 450.235 303.652 451.329 312.381C452.472 321.496 436.893 312.499 430.143 307.226C423.37 301.935 413.049 288.438 413.049 288.438Z" fill="#AFBDC7"/>
<path d="M461.56 147.222C463 147.222 464.167 146.287 464.167 145.133C464.167 143.979 463 143.044 461.56 143.044C460.121 143.044 458.954 143.979 458.954 145.133C458.954 146.287 460.121 147.222 461.56 147.222Z" fill="#AFBDC7"/>
<path d="M360.459 317.66C362.186 317.66 363.587 316.195 363.587 314.388C363.587 312.582 362.186 311.117 360.459 311.117C358.731 311.117 357.331 312.582 357.331 314.388C357.331 316.195 358.731 317.66 360.459 317.66Z" fill="#AFBDC7"/>
<path d="M350.343 318.689C351.529 318.689 352.491 317.726 352.491 316.538C352.491 315.35 351.529 314.387 350.343 314.387C349.158 314.387 348.196 315.35 348.196 316.538C348.196 317.726 349.158 318.689 350.343 318.689Z" fill="#AFBDC7"/>
<path d="M354.654 323.709C355.444 323.709 356.085 323.067 356.085 322.275C356.085 321.483 355.444 320.841 354.654 320.841C353.863 320.841 353.222 321.483 353.222 322.275C353.222 323.067 353.863 323.709 354.654 323.709Z" fill="#AFBDC7"/>
<path d="M294.51 341.924C295.301 341.924 295.942 341.282 295.942 340.49C295.942 339.698 295.301 339.056 294.51 339.056C293.72 339.056 293.079 339.698 293.079 340.49C293.079 341.282 293.72 341.924 294.51 341.924Z" fill="#AFBDC7"/>
<path d="M458.809 157.026C459.521 157.026 460.098 156.448 460.098 155.735C460.098 155.022 459.521 154.443 458.809 154.443C458.097 154.443 457.52 155.022 457.52 155.735C457.52 156.448 458.097 157.026 458.809 157.026Z" fill="#AFBDC7"/>
<path d="M263.137 64.0489C263.991 64.0489 264.684 63.3552 264.684 62.4993C264.684 61.6435 263.991 60.9497 263.137 60.9497C262.283 60.9497 261.59 61.6435 261.59 62.4993C261.59 63.3552 262.283 64.0489 263.137 64.0489Z" fill="#AFBDC7"/>
<path d="M248.957 61.9821C249.954 61.9821 250.762 61.2883 250.762 60.4324C250.762 59.5766 249.954 58.8828 248.957 58.8828C247.961 58.8828 247.153 59.5766 247.153 60.4324C247.153 61.2883 247.961 61.9821 248.957 61.9821Z" fill="#AFBDC7"/>
<path d="M140.165 213.329C140.876 213.329 141.454 212.867 141.454 212.296C141.454 211.726 140.876 211.263 140.165 211.263C139.453 211.263 138.875 211.726 138.875 212.296C138.875 212.867 139.453 213.329 140.165 213.329Z" fill="#AFBDC7"/>
<path d="M136.297 219.527C137.436 219.527 138.36 218.718 138.36 217.719C138.36 216.721 137.436 215.911 136.297 215.911C135.158 215.911 134.235 216.721 134.235 217.719C134.235 218.718 135.158 219.527 136.297 219.527Z" fill="#AFBDC7"/>
<path d="M423.748 91.9418C424.46 91.9418 425.038 91.7105 425.038 91.4252C425.038 91.14 424.46 90.9087 423.748 90.9087C423.037 90.9087 422.459 91.14 422.459 91.4252C422.459 91.7105 423.037 91.9418 423.748 91.9418Z" fill="#AFBDC7"/>
<path d="M420.31 97.0335C420.966 97.0335 421.497 96.5602 421.497 95.9765C421.497 95.3927 420.966 94.9194 420.31 94.9194C419.655 94.9194 419.124 95.3927 419.124 95.9765C419.124 96.5602 419.655 97.0335 420.31 97.0335Z" fill="#AFBDC7"/>
<path d="M209.775 309.983C211.276 309.983 212.493 308.763 212.493 307.26C212.493 305.756 211.276 304.537 209.775 304.537C208.274 304.537 207.057 305.756 207.057 307.26C207.057 308.763 208.274 309.983 209.775 309.983Z" fill="#AFBDC7"/>
<path d="M446.099 252.822C446.987 252.822 447.707 252.191 447.707 251.413C447.707 250.634 446.987 250.003 446.099 250.003C445.211 250.003 444.491 250.634 444.491 251.413C444.491 252.191 445.211 252.822 446.099 252.822Z" fill="#AFBDC7"/>
<path d="M141.597 227.452C142.818 227.452 143.808 226.641 143.808 225.64C143.808 224.639 142.818 223.828 141.597 223.828C140.376 223.828 139.386 224.639 139.386 225.64C139.386 226.641 140.376 227.452 141.597 227.452Z" fill="#AFBDC7"/>
<path d="M290.484 339.838C290.484 339.838 290.119 346.145 291.096 349.36C293.837 358.375 292.898 366.076 288.457 369.379C283.821 372.828 284.239 361.034 285.168 355.504C286.101 349.955 290.484 339.838 290.484 339.838Z" fill="#AFBDC7"/>
<path d="M325.5 260.5H20C17.7909 260.5 16 258.709 16 256.5V86.5C16 84.2909 17.7909 82.5 20 82.5H325.5C327.709 82.5 329.5 84.2909 329.5 86.5V256.5C329.5 258.709 327.709 260.5 325.5 260.5Z" fill="#D9BDC7" stroke="black" stroke-width="2" stroke-linecap="round" stroke-dasharray="10 10"/>
<path d="M252 165.708C252 169.735 255.265 173 259.292 173H308C312.418 173 316 169.418 316 165V155.5L311.618 149.863C308.575 145.949 302.742 145.716 299.398 149.375L289.199 160.53C286.489 163.493 282.003 163.989 278.712 161.689L273.49 158.04C270.863 156.205 267.395 156.113 264.676 157.808L252 165.708Z" fill="#DAB6C2"/>
<path d="M252 165.708V165.708C252 169.735 255.265 173 259.292 173H308C312.418 173 316 169.418 316 165V155.5M252 165.708V146C252 141.582 255.582 138 260 138H308C312.418 138 316 141.582 316 146V155.5M252 165.708L264.676 157.808C267.395 156.113 270.863 156.205 273.49 158.04L278.712 161.689C282.003 163.989 286.489 163.493 289.199 160.53L299.398 149.375C302.742 145.716 308.575 145.949 311.618 149.863L316 155.5" stroke="black" stroke-width="2" stroke-linejoin="round"/>
<path d="M234 138L182 138" stroke="black" stroke-width="2" stroke-linecap="round"/>
<path d="M234 150L182 150" stroke="black" stroke-width="2" stroke-linecap="round"/>
<path d="M234 162L182 162" stroke="black" stroke-width="2" stroke-linecap="round"/>
<path d="M234 174L182 174" stroke="black" stroke-width="2" stroke-linecap="round"/>
<path d="M182 194C182 189.582 185.582 186 190 186H308C312.418 186 316 189.582 316 194V239.541C316 243.959 312.418 247.541 308 247.541H190C185.582 247.541 182 243.959 182 239.541V194Z" fill="#DAB6C2" stroke="black" stroke-width="2" stroke-linejoin="round"/>
<circle cx="214" cy="217" r="18" fill="#EFD8E0"/>
<path d="M249 199H302" stroke="black" stroke-width="2" stroke-linecap="round"/>
<path d="M249 210H302" stroke="black" stroke-width="2" stroke-linecap="round"/>
<path d="M249 221H302" stroke="black" stroke-width="2" stroke-linecap="round"/>
<path d="M249 232H302" stroke="black" stroke-width="2" stroke-linecap="round"/>
<rect x="30" y="186" width="134" height="61.5407" rx="8" fill="#DAB6C2" stroke="black" stroke-width="2" stroke-linejoin="round"/>
<circle cx="62" cy="217" r="18" fill="#EFD8E0"/>
<path d="M97 199H150" stroke="black" stroke-width="2" stroke-linecap="round"/>
<path d="M97 210H150" stroke="black" stroke-width="2" stroke-linecap="round"/>
<path d="M97 221H150" stroke="black" stroke-width="2" stroke-linecap="round"/>
<path d="M97 232H150" stroke="black" stroke-width="2" stroke-linecap="round"/>
<circle cx="40" cy="116" r="10" stroke="#040404" stroke-width="2"/>
<line x1="4" y1="359" x2="342" y2="359" stroke="black" stroke-width="4" stroke-linecap="round"/>
<path d="M119.616 346.877H132.882L147.588 304H200.235L214.941 346.877H227.861C228.939 346.877 229.986 347.262 230.81 347.956C232.983 349.785 232.982 353.15 230.791 354.958C229.975 355.632 228.951 356 227.893 356H214.941H132.882H119.59C118.743 356 117.913 355.764 117.192 355.318C114.332 353.546 114.329 349.381 117.174 347.585C117.904 347.124 118.752 346.877 119.616 346.877Z" fill="#DBE2E9"/>
<path d="M200.235 304L202.127 303.351L201.664 302H200.235V304ZM147.588 304V302H146.16L145.696 303.351L147.588 304ZM117.174 347.585L116.106 345.894H116.106L117.174 347.585ZM117.192 355.318L116.139 357.018L116.139 357.018L117.192 355.318ZM230.81 347.956L229.522 349.485L229.522 349.485L230.81 347.956ZM230.791 354.958L232.064 356.501L230.791 354.958ZM119.616 348.877H132.882V344.877H119.616V348.877ZM132.882 348.877H175.074V344.877H132.882V348.877ZM227.861 344.877H214.941V348.877H227.861V344.877ZM214.941 344.877H175.074V348.877H214.941V344.877ZM119.59 358H132.882V354H119.59V358ZM132.882 358H214.941V354H132.882V358ZM214.941 358H227.893V354H214.941V358ZM216.833 346.228L202.127 303.351L198.343 304.649L213.049 347.526L216.833 346.228ZM134.774 347.526L149.48 304.649L145.696 303.351L130.991 346.228L134.774 347.526ZM200.235 302H147.588V306H200.235V302ZM116.106 345.894C112.023 348.472 112.011 354.462 116.139 357.018L118.245 353.617C116.652 352.631 116.635 350.29 118.242 349.276L116.106 345.894ZM229.522 349.485C230.749 350.519 230.737 352.41 229.518 353.416L232.064 356.501C235.227 353.889 235.218 349.052 232.098 346.426L229.522 349.485ZM119.59 354C119.115 354 118.649 353.867 118.245 353.617L116.139 357.018C117.176 357.66 118.371 358 119.59 358V354ZM227.893 358C229.416 358 230.89 357.47 232.064 356.501L229.518 353.416C229.061 353.794 228.486 354 227.893 354V358ZM227.861 348.877C228.465 348.877 229.056 349.093 229.522 349.485L232.098 346.426C230.915 345.43 229.413 344.877 227.861 344.877V348.877ZM119.616 344.877C118.373 344.877 117.154 345.232 116.106 345.894L118.242 349.276C118.653 349.016 119.132 348.877 119.616 348.877V344.877Z" fill="black"/>
<path d="M344 275.143H2V295C2 299.418 5.58173 303 10 303H336C340.418 303 344 299.418 344 295V275.143Z" fill="#DBE2E9"/>
<path d="M344 275.143H346C346 274.038 345.105 273.143 344 273.143V275.143ZM342 260.5C342 261.605 342.895 262.5 344 262.5C345.105 262.5 346 261.605 346 260.5H342ZM10 71H336V67H10V71ZM344 273.143H2V277.143H344V273.143ZM4 275.143V77H0V275.143H4ZM342 275.143V295H346V275.143H342ZM336 301H10V305H336V301ZM342 77V154.591H346V77H342ZM342 154.591V260.5H346V154.591H342ZM0 275.143V295H4V275.143H0ZM342 295C342 298.314 339.314 301 336 301V305C341.523 305 346 300.523 346 295H342ZM336 71C339.314 71 342 73.6863 342 77H346C346 71.4771 341.523 67 336 67V71ZM10 301C6.6863 301 4 298.314 4 295H0C0 300.523 4.47717 305 10 305V301ZM10 67C4.47716 67 0 71.4771 0 77H4C4 73.6863 6.68629 71 10 71V67Z" fill="black"/>
<path d="M149 306H199L201.5 314H146.29L149 306Z" fill="#A2A9AF"/>
<circle cx="173" cy="289" r="4" fill="black"/>
<path d="M214 114C214 109.582 217.582 106 222 106H238.206H280C284.418 106 288 109.582 288 114V118C288 122.418 284.418 126 280 126H230.488H222C217.582 126 214 122.418 214 118V114Z" stroke="black" stroke-width="2" stroke-linejoin="round"/>
<path d="M316 124L311.784 119.05M311.784 119.05C313.748 117.743 315.028 115.61 315.028 113.2C315.028 109.224 311.544 106 307.247 106C302.95 106 299.467 109.224 299.467 113.2C299.467 117.176 302.95 120.4 307.247 120.4C308.94 120.4 310.507 119.9 311.784 119.05Z" stroke="black" stroke-width="2" stroke-linecap="round" stroke-linejoin="round"/>
<circle cx="30" cy="94" r="4" fill="#EB5757"/>
<circle cx="46" cy="94" r="4" fill="#F2994A"/>
<circle cx="62" cy="94" r="4" fill="#82D480"/>
<path d="M30 138H164" stroke="black" stroke-width="2" stroke-linecap="round"/>
<path d="M30 150H164" stroke="black" stroke-width="2" stroke-linecap="round"/>
<path d="M30 162H164" stroke="black" stroke-width="2" stroke-linecap="round"/>
<path d="M30 174H164" stroke="black" stroke-width="2" stroke-linecap="round"/>
</svg>
