<svg width="161" height="128" viewBox="0 0 161 128" fill="none" xmlns="http://www.w3.org/2000/svg">
<path d="M74.6365 100V107.273V127.273H101.909V107.273V100V72.7273C91.8144 72.7273 83.0007 78.2118 78.2851 86.3636C75.9646 90.3751 74.6365 95.0324 74.6365 100Z" fill="url(#paint0_linear)"/>
<path d="M74.6365 100V107.273V127.273H101.909V107.273V100V72.7273C91.8144 72.7273 83.0007 78.2118 78.2851 86.3636C75.9646 90.3751 74.6365 95.0324 74.6365 100Z" fill="black" fill-opacity="0.2"/>
<path d="M74.6365 0V72.7273C74.6365 57.665 86.8469 45.4028 101.909 45.4028V22.7273H125.091C131.367 22.7273 136.455 27.8149 136.455 34.0909C136.455 39.9985 131.947 44.8532 126.183 45.4028C138.014 44.6077 147.364 34.7594 147.364 22.7273C147.364 10.1753 137.188 0 124.636 0H74.6365Z" fill="url(#paint1_linear)"/>
<path d="M74.6365 0V72.7273C74.6365 57.665 86.8469 45.4028 101.909 45.4028V22.7273H125.091C131.367 22.7273 136.455 27.8149 136.455 34.0909C136.455 39.9985 131.947 44.8532 126.183 45.4028C138.014 44.6077 147.364 34.7594 147.364 22.7273C147.364 10.1753 137.188 0 124.636 0H74.6365Z" fill="black" fill-opacity="0.2"/>
<path d="M124.636 45.4545C137.188 45.4545 147.364 35.2792 147.364 22.7273C147.364 10.1753 137.188 0 124.636 0C144.72 0 161 16.2806 161 36.3636C161 54.9078 147.119 70.2099 129.181 72.4461C127.692 72.6317 126.175 72.7273 124.636 72.7273H101.909C91.8144 72.7273 83.0007 78.2118 78.2851 86.3636C75.9646 90.3751 74.6365 95.0324 74.6365 100V72.7273C74.6365 61.8544 80.999 52.4677 90.204 48.0871C93.7509 46.3992 97.7197 45.4545 101.909 45.4545H124.636Z" fill="url(#paint2_linear)"/>
<path d="M23.2273 68.1816C10.6753 68.1816 0.5 78.357 0.5 90.9089C0.5 103.461 10.6753 113.636 23.2273 113.636C35.7792 113.636 45.9545 103.461 45.9545 90.9089C45.9545 89.6606 46.1482 88.4662 45.9545 87.2725C44.5758 94.5494 38.2215 99.9998 30.9545 99.9998C22.6703 99.9998 15.9545 92.8771 15.9545 84.0907C15.9545 76.5456 20.9069 70.2272 27.5522 68.5927C26.1521 68.3229 24.7062 68.1816 23.2273 68.1816Z" fill="url(#paint3_linear)"/>
<path d="M73.2273 0C58.165 0 45.9545 12.2104 45.9545 27.2727V55.6911V90.9091C45.9545 103.461 35.7792 113.636 23.2273 113.636C10.6753 113.636 0.5 103.461 0.5 90.9091C0.5 110.992 16.7806 127.273 36.8636 127.273C40.0027 127.273 43.0489 126.875 45.9545 126.127C61.6384 122.09 73.2273 107.853 73.2273 90.9091V54.5455V27.2727C73.2273 17.178 78.7118 8.36419 86.8636 3.64861C90.8751 1.32811 95.5324 5.31023e-06 100.5 5.31023e-06L73.2273 0Z" fill="url(#paint4_linear)"/>
<path d="M73.2273 0C58.165 0 45.9545 12.2104 45.9545 27.2727V55.6911V90.9091C45.9545 103.461 35.7792 113.636 23.2273 113.636C10.6753 113.636 0.5 103.461 0.5 90.9091C0.5 110.992 16.7806 127.273 36.8636 127.273C40.0027 127.273 43.0489 126.875 45.9545 126.127C61.6384 122.09 73.2273 107.853 73.2273 90.9091V54.5455V27.2727C73.2273 17.178 78.7118 8.36419 86.8636 3.64861C90.8751 1.32811 95.5324 5.31023e-06 100.5 5.31023e-06L73.2273 0Z" fill="black" fill-opacity="0.2"/>
<defs>
<linearGradient id="paint0_linear" x1="69.1819" y1="-10.9091" x2="117.818" y2="128.182" gradientUnits="userSpaceOnUse">
<stop stop-color="#F6B4B3"/>
<stop offset="1" stop-color="#B56A91"/>
</linearGradient>
<linearGradient id="paint1_linear" x1="69.1819" y1="-10.9091" x2="117.818" y2="128.182" gradientUnits="userSpaceOnUse">
<stop stop-color="#F6B4B3"/>
<stop offset="1" stop-color="#B56A91"/>
</linearGradient>
<linearGradient id="paint2_linear" x1="117.776" y1="-3.31524e-10" x2="117.832" y2="100" gradientUnits="userSpaceOnUse">
<stop stop-color="#F5F5F5"/>
<stop offset="0.377107" stop-color="#D9BDC7"/>
</linearGradient>
<linearGradient id="paint3_linear" x1="23.248" y1="68.1816" x2="23.2701" y2="113.636" gradientUnits="userSpaceOnUse">
<stop stop-color="#F5F5F5"/>
<stop offset="0.377107" stop-color="#D9BDC7"/>
</linearGradient>
<linearGradient id="paint4_linear" x1="-5.81579" y1="-10.9091" x2="37.3845" y2="132.143" gradientUnits="userSpaceOnUse">
<stop stop-color="#F6B4B3"/>
<stop offset="1" stop-color="#B56A91"/>
</linearGradient>
</defs>
</svg>
