<svg width="686" height="676" viewBox="0 0 686 676" fill="none" xmlns="http://www.w3.org/2000/svg">
<path d="M528.261 412.271C527.923 412.131 513.509 406.265 488.994 416.445C464.185 426.746 491.173 433.794 467.527 438.419C458.362 440.212 468.529 427.416 441.075 429.18C413.622 430.944 410.309 461.86 410.309 461.86C410.309 461.86 407.226 431.984 380.589 425.271C353.951 418.558 369.475 442.86 344.392 433.262C319.31 423.664 357.153 415.479 334.613 402.422C314.86 390.979 293.452 404.755 293.452 404.755C293.452 404.755 306.809 384.197 304.12 375.769C297.124 353.848 274.363 375.307 265.775 353.334C257.188 331.36 283.044 354.477 278.934 331.661C277.731 324.983 272.831 319.938 266.5 316.143L278.311 294.5C283.416 291.546 287.366 287.77 289.103 282.941C290.809 278.198 291.028 274.684 290.361 272L303.5 249.126C305.434 248.316 307.254 247.139 308.869 245.418C314.06 239.887 315.704 232.949 315.497 226L323.341 212.5C331.285 217.649 341.188 220.872 351.656 216.583C376.415 206.438 364.309 195.463 375.109 192.973C384.209 190.875 374.013 205.869 401.56 202.212C429.108 198.556 432.832 181.751 432.832 181.751C432.832 181.751 433.313 198.56 460.022 204.921C486.732 211.282 492.635 189.171 501.905 195.974C516.604 206.761 491.641 209.916 513.631 223.979C533.543 236.713 546.881 229.308 549.224 227.795C549.463 227.629 549.593 227.543 549.593 227.543C549.593 227.543 549.468 227.637 549.224 227.795C545.997 230.04 523.021 246.98 536.649 265.329C551.284 285.034 569.474 267.137 572.889 279.694C575.853 290.592 547.858 283.926 552.094 306.421C556.105 327.727 577.726 328.714 580.002 328.759C580.129 328.759 580.196 328.761 580.196 328.761C580.196 328.761 580.129 328.761 580.002 328.759C577.738 328.755 556.279 329.273 549.562 350.087C542.467 372.07 565.64 367.65 561.822 376.612C557.391 387.01 546.681 369.265 529.795 387.609C513.104 405.742 527.917 412.126 528.261 412.271Z" fill="#AFBDC7"/>
<path d="M290.968 410.049C290.968 410.049 284.537 414.376 270.899 439.778C270.527 440.47 270.271 441.214 269.799 441.778C262.876 450.061 256.372 458.144 250.818 452.135C244.185 444.958 251.894 437.821 261.412 430C270.816 422.272 290.968 410.049 290.968 410.049H290.968Z" fill="#AFBDC7"/>
<path d="M557.806 221.915C557.806 221.915 563.395 216.474 575.645 202.637C582.993 194.337 589.674 181.726 604.986 177.566C615.919 174.595 614.328 180.355 598.403 198.773C582.477 217.191 557.806 221.915 557.806 221.915Z" fill="#AFBDC7"/>
<path d="M434.683 172.374C434.683 172.374 436.109 162.835 434.958 157.809C431.73 143.712 434.269 132.136 441.878 127.741C449.822 123.153 447.581 141.028 445.346 149.305C443.103 157.611 434.683 172.374 434.683 172.374Z" fill="#AFBDC7"/>
<path d="M533.049 415.438C533.049 415.438 541.273 420.453 546.344 421.338C560.567 423.82 570.235 430.652 571.33 439.381C572.472 448.496 556.894 439.499 550.143 434.226C543.37 428.935 533.049 415.438 533.049 415.438Z" fill="#AFBDC7"/>
<path d="M581.56 274.222C583 274.222 584.167 273.287 584.167 272.133C584.167 270.979 583 270.044 581.56 270.044C580.121 270.044 578.954 270.979 578.954 272.133C578.954 273.287 580.121 274.222 581.56 274.222Z" fill="#AFBDC7"/>
<path d="M480.459 444.66C482.187 444.66 483.587 443.195 483.587 441.388C483.587 439.582 482.187 438.117 480.459 438.117C478.732 438.117 477.331 439.582 477.331 441.388C477.331 443.195 478.732 444.66 480.459 444.66Z" fill="#AFBDC7"/>
<path d="M470.343 445.689C471.529 445.689 472.49 444.726 472.49 443.538C472.49 442.35 471.529 441.387 470.343 441.387C469.157 441.387 468.196 442.35 468.196 443.538C468.196 444.726 469.157 445.689 470.343 445.689Z" fill="#AFBDC7"/>
<path d="M474.654 450.709C475.444 450.709 476.085 450.067 476.085 449.275C476.085 448.483 475.444 447.841 474.654 447.841C473.863 447.841 473.222 448.483 473.222 449.275C473.222 450.067 473.863 450.709 474.654 450.709Z" fill="#AFBDC7"/>
<path d="M414.51 468.924C415.301 468.924 415.942 468.282 415.942 467.49C415.942 466.698 415.301 466.056 414.51 466.056C413.72 466.056 413.079 466.698 413.079 467.49C413.079 468.282 413.72 468.924 414.51 468.924Z" fill="#AFBDC7"/>
<path d="M578.809 284.026C579.521 284.026 580.098 283.448 580.098 282.735C580.098 282.022 579.521 281.443 578.809 281.443C578.097 281.443 577.52 282.022 577.52 282.735C577.52 283.448 578.097 284.026 578.809 284.026Z" fill="#AFBDC7"/>
<path d="M383.137 191.049C383.991 191.049 384.684 190.355 384.684 189.499C384.684 188.643 383.991 187.95 383.137 187.95C382.283 187.95 381.59 188.643 381.59 189.499C381.59 190.355 382.283 191.049 383.137 191.049Z" fill="#AFBDC7"/>
<path d="M368.957 188.982C369.954 188.982 370.762 188.288 370.762 187.432C370.762 186.577 369.954 185.883 368.957 185.883C367.961 185.883 367.153 186.577 367.153 187.432C367.153 188.288 367.961 188.982 368.957 188.982Z" fill="#AFBDC7"/>
<path d="M260.165 340.329C260.877 340.329 261.454 339.867 261.454 339.296C261.454 338.726 260.877 338.263 260.165 338.263C259.453 338.263 258.876 338.726 258.876 339.296C258.876 339.867 259.453 340.329 260.165 340.329Z" fill="#AFBDC7"/>
<path d="M256.298 346.527C257.437 346.527 258.36 345.718 258.36 344.719C258.36 343.721 257.437 342.911 256.298 342.911C255.158 342.911 254.235 343.721 254.235 344.719C254.235 345.718 255.158 346.527 256.298 346.527Z" fill="#AFBDC7"/>
<path d="M543.748 218.942C544.46 218.942 545.038 218.711 545.038 218.425C545.038 218.14 544.46 217.909 543.748 217.909C543.037 217.909 542.459 218.14 542.459 218.425C542.459 218.711 543.037 218.942 543.748 218.942Z" fill="#AFBDC7"/>
<path d="M540.31 224.033C540.966 224.033 541.497 223.56 541.497 222.976C541.497 222.393 540.966 221.919 540.31 221.919C539.655 221.919 539.124 222.393 539.124 222.976C539.124 223.56 539.655 224.033 540.31 224.033Z" fill="#AFBDC7"/>
<path d="M329.775 436.983C331.276 436.983 332.493 435.763 332.493 434.26C332.493 432.756 331.276 431.537 329.775 431.537C328.274 431.537 327.057 432.756 327.057 434.26C327.057 435.763 328.274 436.983 329.775 436.983Z" fill="#AFBDC7"/>
<path d="M566.099 379.822C566.987 379.822 567.707 379.191 567.707 378.413C567.707 377.634 566.987 377.003 566.099 377.003C565.211 377.003 564.491 377.634 564.491 378.413C564.491 379.191 565.211 379.822 566.099 379.822Z" fill="#AFBDC7"/>
<path d="M261.597 354.452C262.818 354.452 263.808 353.641 263.808 352.64C263.808 351.639 262.818 350.828 261.597 350.828C260.376 350.828 259.386 351.639 259.386 352.64C259.386 353.641 260.376 354.452 261.597 354.452Z" fill="#AFBDC7"/>
<path d="M410.484 466.838C410.484 466.838 410.119 473.145 411.096 476.36C413.837 485.375 412.898 493.076 408.457 496.379C403.821 499.828 404.239 488.034 405.168 482.504C406.101 476.955 410.484 466.838 410.484 466.838Z" fill="#AFBDC7"/>
<path d="M528.261 412.271C527.923 412.131 513.509 406.265 488.994 416.445C464.185 426.746 491.173 433.794 467.527 438.419C458.362 440.212 468.529 427.416 441.075 429.18C413.622 430.944 410.309 461.86 410.309 461.86C410.309 461.86 407.226 431.984 380.589 425.271C353.951 418.558 369.475 442.86 344.392 433.262C319.31 423.664 357.153 415.479 334.613 402.422C314.86 390.979 293.452 404.755 293.452 404.755C293.452 404.755 306.809 384.197 304.12 375.769C297.124 353.848 274.363 375.307 265.775 353.334C257.188 331.36 283.044 354.477 278.934 331.661C277.731 324.983 272.831 319.938 266.5 316.143L278.311 294.5C283.416 291.546 287.366 287.77 289.103 282.941C290.809 278.198 291.028 274.684 290.361 272L303.5 249.126C305.434 248.316 307.254 247.139 308.869 245.418C314.06 239.887 315.704 232.949 315.497 226L323.341 212.5C331.285 217.649 341.188 220.872 351.656 216.583C376.415 206.438 364.309 195.463 375.109 192.973C384.209 190.875 374.013 205.869 401.56 202.212C429.108 198.556 432.832 181.751 432.832 181.751C432.832 181.751 433.313 198.56 460.022 204.921C486.732 211.282 492.635 189.171 501.905 195.974C516.604 206.761 491.641 209.916 513.631 223.979C533.543 236.713 546.881 229.308 549.224 227.795C549.463 227.629 549.593 227.543 549.593 227.543C549.593 227.543 549.468 227.637 549.224 227.795C545.997 230.04 523.021 246.98 536.649 265.329C551.284 285.034 569.474 267.137 572.889 279.694C575.853 290.592 547.858 283.926 552.094 306.421C556.105 327.727 577.726 328.714 580.002 328.759C580.129 328.759 580.196 328.761 580.196 328.761C580.196 328.761 580.129 328.761 580.002 328.759C577.738 328.755 556.279 329.273 549.562 350.087C542.467 372.07 565.64 367.65 561.822 376.612C557.391 387.01 546.681 369.265 529.795 387.609C513.104 405.742 527.917 412.126 528.261 412.271Z" fill="#AFBDC7"/>
<path d="M290.968 410.049C290.968 410.049 284.537 414.376 270.899 439.778C270.527 440.47 270.271 441.214 269.799 441.778C262.876 450.061 256.372 458.144 250.818 452.135C244.185 444.958 251.894 437.821 261.412 430C270.816 422.272 290.968 410.049 290.968 410.049H290.968Z" fill="#AFBDC7"/>
<path d="M557.806 221.915C557.806 221.915 563.395 216.474 575.645 202.637C582.993 194.337 589.674 181.726 604.986 177.566C615.919 174.595 614.328 180.355 598.403 198.773C582.477 217.191 557.806 221.915 557.806 221.915Z" fill="#AFBDC7"/>
<path d="M434.683 172.374C434.683 172.374 436.109 162.835 434.958 157.809C431.73 143.712 434.269 132.136 441.878 127.741C449.822 123.153 447.581 141.028 445.346 149.305C443.103 157.611 434.683 172.374 434.683 172.374Z" fill="#AFBDC7"/>
<path d="M533.049 415.438C533.049 415.438 541.273 420.453 546.344 421.338C560.567 423.82 570.235 430.652 571.33 439.381C572.472 448.496 556.894 439.499 550.143 434.226C543.37 428.935 533.049 415.438 533.049 415.438Z" fill="#AFBDC7"/>
<path d="M581.56 274.222C583 274.222 584.167 273.287 584.167 272.133C584.167 270.979 583 270.044 581.56 270.044C580.121 270.044 578.954 270.979 578.954 272.133C578.954 273.287 580.121 274.222 581.56 274.222Z" fill="#AFBDC7"/>
<path d="M480.459 444.66C482.187 444.66 483.587 443.195 483.587 441.388C483.587 439.582 482.187 438.117 480.459 438.117C478.732 438.117 477.331 439.582 477.331 441.388C477.331 443.195 478.732 444.66 480.459 444.66Z" fill="#AFBDC7"/>
<path d="M470.343 445.689C471.529 445.689 472.49 444.726 472.49 443.538C472.49 442.35 471.529 441.387 470.343 441.387C469.157 441.387 468.196 442.35 468.196 443.538C468.196 444.726 469.157 445.689 470.343 445.689Z" fill="#AFBDC7"/>
<path d="M474.654 450.709C475.444 450.709 476.085 450.067 476.085 449.275C476.085 448.483 475.444 447.841 474.654 447.841C473.863 447.841 473.222 448.483 473.222 449.275C473.222 450.067 473.863 450.709 474.654 450.709Z" fill="#AFBDC7"/>
<path d="M414.51 468.924C415.301 468.924 415.942 468.282 415.942 467.49C415.942 466.698 415.301 466.056 414.51 466.056C413.72 466.056 413.079 466.698 413.079 467.49C413.079 468.282 413.72 468.924 414.51 468.924Z" fill="#AFBDC7"/>
<path d="M578.809 284.026C579.521 284.026 580.098 283.448 580.098 282.735C580.098 282.022 579.521 281.443 578.809 281.443C578.097 281.443 577.52 282.022 577.52 282.735C577.52 283.448 578.097 284.026 578.809 284.026Z" fill="#AFBDC7"/>
<path d="M383.137 191.049C383.991 191.049 384.684 190.355 384.684 189.499C384.684 188.643 383.991 187.95 383.137 187.95C382.283 187.95 381.59 188.643 381.59 189.499C381.59 190.355 382.283 191.049 383.137 191.049Z" fill="#AFBDC7"/>
<path d="M368.957 188.982C369.954 188.982 370.762 188.288 370.762 187.432C370.762 186.577 369.954 185.883 368.957 185.883C367.961 185.883 367.153 186.577 367.153 187.432C367.153 188.288 367.961 188.982 368.957 188.982Z" fill="#AFBDC7"/>
<path d="M260.165 340.329C260.877 340.329 261.454 339.867 261.454 339.296C261.454 338.726 260.877 338.263 260.165 338.263C259.453 338.263 258.876 338.726 258.876 339.296C258.876 339.867 259.453 340.329 260.165 340.329Z" fill="#AFBDC7"/>
<path d="M256.298 346.527C257.437 346.527 258.36 345.718 258.36 344.719C258.36 343.721 257.437 342.911 256.298 342.911C255.158 342.911 254.235 343.721 254.235 344.719C254.235 345.718 255.158 346.527 256.298 346.527Z" fill="#AFBDC7"/>
<path d="M543.748 218.942C544.46 218.942 545.038 218.711 545.038 218.425C545.038 218.14 544.46 217.909 543.748 217.909C543.037 217.909 542.459 218.14 542.459 218.425C542.459 218.711 543.037 218.942 543.748 218.942Z" fill="#AFBDC7"/>
<path d="M540.31 224.033C540.966 224.033 541.497 223.56 541.497 222.976C541.497 222.393 540.966 221.919 540.31 221.919C539.655 221.919 539.124 222.393 539.124 222.976C539.124 223.56 539.655 224.033 540.31 224.033Z" fill="#AFBDC7"/>
<path d="M329.775 436.983C331.276 436.983 332.493 435.763 332.493 434.26C332.493 432.756 331.276 431.537 329.775 431.537C328.274 431.537 327.057 432.756 327.057 434.26C327.057 435.763 328.274 436.983 329.775 436.983Z" fill="#AFBDC7"/>
<path d="M566.099 379.822C566.987 379.822 567.707 379.191 567.707 378.413C567.707 377.634 566.987 377.003 566.099 377.003C565.211 377.003 564.491 377.634 564.491 378.413C564.491 379.191 565.211 379.822 566.099 379.822Z" fill="#AFBDC7"/>
<path d="M261.597 354.452C262.818 354.452 263.808 353.641 263.808 352.64C263.808 351.639 262.818 350.828 261.597 350.828C260.376 350.828 259.386 351.639 259.386 352.64C259.386 353.641 260.376 354.452 261.597 354.452Z" fill="#AFBDC7"/>
<path d="M410.484 466.838C410.484 466.838 410.119 473.145 411.096 476.36C413.837 485.375 412.898 493.076 408.457 496.379C403.821 499.828 404.239 488.034 405.168 482.504C406.101 476.955 410.484 466.838 410.484 466.838Z" fill="#AFBDC7"/>
<path d="M452.5 196.5V366.5C452.5 368.709 450.709 370.5 448.5 370.5H237L332.365 194.594C333.064 193.304 334.414 192.5 335.881 192.5H448.5C450.709 192.5 452.5 194.291 452.5 196.5Z" fill="#D9BDC7" stroke="black" stroke-width="2" stroke-linecap="round" stroke-dasharray="10 10"/>
<path d="M375 275.708C375 279.735 378.265 283 382.292 283H431C435.418 283 439 279.418 439 275V265.5L434.618 259.863C431.575 255.949 425.742 255.716 422.398 259.375L412.199 270.53C409.489 273.493 405.003 273.989 401.712 271.689L396.49 268.04C393.863 266.205 390.395 266.113 387.676 267.808L375 275.708Z" fill="#DAB6C2"/>
<path d="M375 275.708V275.708C375 279.735 378.265 283 382.292 283H431C435.418 283 439 279.418 439 275V265.5M375 275.708V256C375 251.582 378.582 248 383 248H431C435.418 248 439 251.582 439 256V265.5M375 275.708L387.676 267.808C390.395 266.113 393.863 266.205 396.49 268.04L401.712 271.689C405.003 273.989 409.489 273.493 412.199 270.53L422.398 259.375C425.742 255.716 431.575 255.949 434.618 259.863L439 265.5" stroke="black" stroke-width="2" stroke-linejoin="round"/>
<path d="M357 248L305 248" stroke="black" stroke-width="2" stroke-linecap="round"/>
<path d="M357 260L305 260" stroke="black" stroke-width="2" stroke-linecap="round"/>
<path d="M357 272L305 272" stroke="black" stroke-width="2" stroke-linecap="round"/>
<path d="M357 284L305 284" stroke="black" stroke-width="2" stroke-linecap="round"/>
<path d="M305 304C305 299.582 308.582 296 313 296H431C435.418 296 439 299.582 439 304V349.541C439 353.959 435.418 357.541 431 357.541H313C308.582 357.541 305 353.959 305 349.541V304Z" fill="#DAB6C2" stroke="black" stroke-width="2" stroke-linejoin="round"/>
<ellipse cx="337" cy="327" rx="18" ry="18" fill="#EFD8E0"/>
<path d="M372 309H425" stroke="black" stroke-width="2" stroke-linecap="round"/>
<path d="M372 320H425" stroke="black" stroke-width="2" stroke-linecap="round"/>
<path d="M372 331H425" stroke="black" stroke-width="2" stroke-linecap="round"/>
<path d="M372 342H425" stroke="black" stroke-width="2" stroke-linecap="round"/>
<path d="M287 349.541V304C287 299.582 283.418 296 279 296H277.577L244 357.541H279C283.418 357.541 287 353.959 287 349.541Z" stroke="black" stroke-width="2" stroke-linejoin="round"/>
<path d="M273 320H264.5" stroke="black" stroke-width="2" stroke-linecap="round"/>
<path d="M273 331H258.5" stroke="black" stroke-width="2" stroke-linecap="round"/>
<path d="M273 342H252.5" stroke="black" stroke-width="2" stroke-linecap="round"/>
<path d="M465 469H184" stroke="black" stroke-width="4" stroke-linecap="round"/>
<path d="M242.616 456.877H255.882L270.588 414H323.235L337.941 456.877H350.861C351.939 456.877 352.986 457.261 353.81 457.955C355.983 459.785 355.982 463.15 353.791 464.958C352.975 465.632 351.951 466 350.893 466H337.941H255.882H242.59C241.743 466 240.913 465.764 240.192 465.318C237.332 463.546 237.329 459.381 240.174 457.585C240.904 457.124 241.752 456.877 242.616 456.877Z" fill="#DBE2E9"/>
<path d="M323.235 414L325.127 413.351L324.664 412H323.235V414ZM270.588 414V412H269.16L268.696 413.351L270.588 414ZM240.174 457.585L239.106 455.894L240.174 457.585ZM240.192 465.318L239.139 467.018L239.139 467.018L240.192 465.318ZM353.81 457.955L352.522 459.485V459.485L353.81 457.955ZM353.791 464.958L355.064 466.501L355.064 466.501L353.791 464.958ZM242.616 458.877H255.882V454.877H242.616V458.877ZM255.882 458.877H298.074V454.877H255.882V458.877ZM350.861 454.877H337.941V458.877H350.861V454.877ZM337.941 454.877H298.074V458.877H337.941V454.877ZM242.59 468H255.882V464H242.59V468ZM255.882 468H337.941V464H255.882V468ZM337.941 468H350.893V464H337.941V468ZM339.833 456.228L325.127 413.351L321.343 414.649L336.049 457.526L339.833 456.228ZM257.774 457.526L272.48 414.649L268.696 413.351L253.991 456.228L257.774 457.526ZM323.235 412H270.588V416H323.235V412ZM239.106 455.894C235.023 458.472 235.011 464.462 239.139 467.018L241.245 463.617C239.652 462.631 239.635 460.29 241.242 459.276L239.106 455.894ZM352.522 459.485C353.749 460.519 353.737 462.41 352.518 463.416L355.064 466.501C358.227 463.889 358.218 459.052 355.098 456.426L352.522 459.485ZM242.59 464C242.115 464 241.649 463.867 241.245 463.617L239.139 467.018C240.176 467.66 241.371 468 242.59 468V464ZM350.893 468C352.416 468 353.89 467.47 355.064 466.501L352.518 463.416C352.06 463.794 351.486 464 350.893 464V468ZM350.861 458.877C351.465 458.877 352.056 459.093 352.522 459.485L355.098 456.426C353.915 455.43 352.413 454.877 350.861 454.877V458.877ZM242.616 454.877C241.373 454.877 240.154 455.232 239.106 455.894L241.242 459.276C241.653 459.016 242.132 458.877 242.616 458.877V454.877Z" fill="black"/>
<path d="M467 405V385.143H229.5L214.5 413H459C463.418 413 467 409.418 467 405Z" fill="#DBE2E9"/>
<path d="M467 385.143H469C469 384.038 468.105 383.143 467 383.143V385.143ZM465 370.5C465 371.605 465.895 372.5 467 372.5C468.105 372.5 469 371.605 469 370.5H465ZM229.5 385.143L227.741 384.191L227.739 384.195L229.5 385.143ZM338.732 183.194L336.972 182.242V182.242L338.732 183.194ZM214.5 413L212.739 412.052C212.405 412.672 212.422 413.421 212.783 414.026C213.144 414.63 213.796 415 214.5 415V413ZM465 385.143V405H469V385.143H465ZM465 187V264.591H469V187H465ZM465 264.591V370.5H469V264.591H465ZM345.768 181H459V177H345.768V181ZM467 383.143H229.5V387.143H467V383.143ZM336.972 182.242L227.741 384.191L231.259 386.094L340.491 184.145L336.972 182.242ZM459 411H214.5V415H459V411ZM227.739 384.195L212.739 412.052L216.261 413.948L231.261 386.091L227.739 384.195ZM465 405C465 408.314 462.314 411 459 411V415C464.523 415 469 410.523 469 405H465ZM345.768 177C342.096 177 338.719 179.013 336.972 182.242L340.491 184.145C341.539 182.208 343.565 181 345.768 181V177ZM469 187C469 181.477 464.523 177 459 177V181C462.314 181 465 183.686 465 187H469Z" fill="black"/>
<path d="M272 416H322L324.5 424H269.29L272 416Z" fill="#A2A9AF"/>
<ellipse cx="296" cy="399" rx="4.00002" ry="3.99998" fill="black"/>
<path d="M337 224C337 219.582 340.582 216 345 216H361.206H403C407.418 216 411 219.582 411 224V228C411 232.418 407.418 236 403 236H353.488H345C340.582 236 337 232.418 337 228V224Z" stroke="black" stroke-width="2" stroke-linejoin="round"/>
<path d="M439 234L434.784 229.05M434.784 229.05C436.748 227.743 438.028 225.61 438.028 223.2C438.028 219.224 434.544 216 430.247 216C425.95 216 422.467 219.224 422.467 223.2C422.467 227.176 425.95 230.4 430.247 230.4C431.94 230.4 433.507 229.9 434.784 229.05Z" stroke="black" stroke-width="2" stroke-linecap="round" stroke-linejoin="round"/>
<path d="M332 597H312C309.791 597 308 598.791 308 601V655C308 657.209 309.791 659 312 659H332M332 597H366C368.209 597 370 598.791 370 601V615M332 597V615M332 659H366C368.209 659 370 657.209 370 655V641M332 659V641M332 615H370M332 615V641M370 615V641M332 641H370" stroke="black" stroke-width="2" stroke-linejoin="round"/>
<path d="M332 479.196C332 476.326 334.239 474 337 474C339.761 474 342 476.326 342 479.196L342 527L332 527L332 479.196Z" fill="#CEACB7"/>
<path d="M337 479L337 484M337 576L345 576M337 576L329 576M337 576L337 529M337 487L337 492M337 495L337 501M337 504L337 509M337 512L337 517M337 520L337 525" stroke="#F2E2E7" stroke-width="2" stroke-linecap="round" stroke-linejoin="round"/>
<circle cx="173" cy="628" r="4" fill="#85B0EB"/>
<path fill-rule="evenodd" clip-rule="evenodd" d="M166 594C166 593.448 165.552 593 165 593C164.448 593 164 593.448 164 594V614.697L157.516 624.423C156.481 625.976 156.397 627.977 157.299 629.612L172.124 656.483C172.3 656.802 172.636 657 173 657C173.364 657 173.7 656.802 173.875 656.483L188.701 629.612C189.603 627.977 189.519 625.976 188.484 624.423L182 614.697V594C182 593.448 181.552 593 181 593C180.448 593 180 593.448 180 594V614H166V594ZM159.18 625.532L165.535 616H180.465L186.819 625.532C187.441 626.464 187.491 627.665 186.95 628.645L174 652.117V633.917C173.675 633.972 173.341 634 173 634C172.659 634 172.325 633.972 172 633.917V652.117L159.05 628.645C158.509 627.665 158.559 626.464 159.18 625.532Z" fill="black"/>
<path d="M273 474C275.761 474 278 476.239 278 479L278 519C278 526.18 272.18 532 265 532L251 532L251 527L251 522L265 522C266.657 522 268 520.657 268 519L268 479C268 476.239 270.239 474 273 474Z" fill="#CEACB7"/>
<path d="M273 479L273 484M173 581L181 581M173 581L165 581M173 581L173 535C173 530.582 176.582 527 181 527L249 527M273 488L273 493M273 496L273 501M273 504L273 509M273 512L273 517.5M273 521L273 523C273 525.209 271.209 527 269 527V527M266 527L261 527M258 527L253 527" stroke="#F2E2E7" stroke-width="2" stroke-linecap="round" stroke-linejoin="round"/>
<path d="M628 250L647 231M647 231V239M647 231H639" stroke="#F0F0F0" stroke-width="2" stroke-linecap="round" stroke-linejoin="round"/>
<path fill-rule="evenodd" clip-rule="evenodd" d="M634.343 238H611C608.239 238 606 240.239 606 243V268C606 270.761 608.239 273 611 273H636C638.761 273 641 270.761 641 268V243C641 242.888 640.996 242.778 640.989 242.668L639 244.657V268C639 269.657 637.657 271 636 271H611C609.343 271 608 269.657 608 268V243C608 241.343 609.343 240 611 240H632.343L634.343 238Z" fill="black"/>
<path fill-rule="evenodd" clip-rule="evenodd" d="M627 208C624.239 208 622 210.239 622 213V231.067H624V213C624 211.343 625.343 210 627 210H665C666.657 210 668 211.343 668 213V251C668 252.657 666.657 254 665 254H647.417V256H665C667.761 256 670 253.761 670 251V213C670 210.239 667.761 208 665 208H627Z" fill="black"/>
<path d="M480.074 245C477.272 245 475 242.761 475 240C475 237.239 477.271 235 480.074 235L544 235L544 245L480.074 245Z" fill="#CEACB7"/>
<path d="M480 240H485M585 240V248M585 240V232M585 240H546M488 240H493M496 240H501M504 240H509M512 240H517M520 240H525M528 240H533M536 240H542" stroke="#F2E2E7" stroke-width="2" stroke-linecap="round" stroke-linejoin="round"/>
<path fill-rule="evenodd" clip-rule="evenodd" d="M620.707 403.707C621.098 403.317 621.098 402.683 620.707 402.293C620.317 401.902 619.683 401.902 619.293 402.293L616.424 405.162C617.047 405.448 617.555 405.942 617.86 406.554L620.707 403.707ZM612.172 412.242V410.889H610.697L608.336 413.249C607.946 413.64 607.946 414.273 608.336 414.664C608.727 415.054 609.36 415.054 609.751 414.664L612.172 412.242ZM602.446 421.968C602.837 421.577 602.837 420.944 602.446 420.554C602.056 420.163 601.423 420.163 601.032 420.554L597.38 424.206C596.989 424.596 596.989 425.23 597.38 425.62C597.77 426.011 598.404 426.011 598.794 425.62L602.446 421.968ZM591.49 432.924C591.88 432.534 591.88 431.901 591.49 431.51C591.099 431.12 590.466 431.12 590.076 431.51L586.423 435.162C586.033 435.553 586.033 436.186 586.423 436.577C586.814 436.967 587.447 436.967 587.838 436.577L591.49 432.924ZM580.533 443.881C580.924 443.491 580.924 442.857 580.533 442.467C580.143 442.076 579.51 442.076 579.119 442.467L577.293 444.293C576.902 444.683 576.902 445.317 577.293 445.707C577.683 446.098 578.317 446.098 578.707 445.707L580.533 443.881Z" fill="#F0F0F0"/>
<path d="M575 398V444C575 446.209 576.791 448 579 448H625" stroke="black" stroke-width="2" stroke-linecap="round" stroke-linejoin="round"/>
<path fill-rule="evenodd" clip-rule="evenodd" d="M572 406H563C562.448 406 562 406.448 562 407C562 407.552 562.448 408 563 408H572V406ZM615 445V411C615 409.343 613.657 408 612 408H578V406H612C614.761 406 617 408.239 617 411V445H615ZM615 451V460C615 460.552 615.448 461 616 461C616.552 461 617 460.552 617 460V451H615Z" fill="black"/>
<path d="M480 332C477.239 332 475 329.761 475 327C475 324.239 477.239 322 480 322L543 322L543 332L480 332Z" fill="#CEACB7"/>
<path d="M480 327L485 327M594.967 390L603 390M594.967 390L586.935 390M594.967 390L594.967 335C594.967 330.582 591.386 327 586.967 327L545 327M488 327L493 327M496 327L501 327M504 327L509 327M512 327L517 327M520 327L525 327M528 327L533 327M536 327L541 327" stroke="#F2E2E7" stroke-width="2" stroke-linecap="round" stroke-linejoin="round"/>
<path d="M468 22H460C457.791 22 456 23.7909 456 26V34V44V54V72.5323C456 73.4306 457.093 73.8733 457.718 73.2284L472 58.5V26C472 23.7909 470.209 22 468 22Z" fill="#DAB6C2"/>
<path d="M456 34V26C456 23.7909 457.791 22 460 22H468C470.209 22 472 23.7909 472 26V58.5L457.718 73.2284C457.093 73.8733 456 73.4306 456 72.5323V54M456 34H462M456 34V44M456 44H464M456 44V54M456 54H462" stroke="black" stroke-width="2" stroke-linecap="round" stroke-linejoin="round"/>
<path fill-rule="evenodd" clip-rule="evenodd" d="M457 58H456C455.448 58 455 58.4477 455 59V74C455 75.1046 455.895 76 457 76H476H486H496H504C506.761 76 509 73.7614 509 71V63C509 60.2386 506.761 58 504 58H472.5V58.5L471.091 60H504C505.657 60 507 61.3431 507 63V71C507 72.6569 505.657 74 504 74H497V69C497 68.4477 496.552 68 496 68C495.448 68 495 68.4477 495 69V74H487V67C487 66.4477 486.552 66 486 66C485.448 66 485 66.4477 485 67V74H477V69C477 68.4477 476.552 68 476 68C475.448 68 475 68.4477 475 69V74H457V72.4749V60V58Z" fill="black"/>
<path d="M391 137.5C389.343 137.5 388 138.843 388 140.5V167C388 169.761 385.761 172 383 172C380.239 172 378 169.761 378 167V140.5C378 133.32 383.82 127.5 391 127.5H405V137.5H391Z" fill="#CEACB7"/>
<path d="M383 167V162M475 90H483M475 90H467M475 90V125C475 129.418 471.418 133 467 133H407M383 159V154M383 151V146M383 143V138M383 135V135C383 133.895 383.895 133 385 133H387M390 133H395M398 133H403" stroke="#F2E2E7" stroke-width="2" stroke-linecap="round" stroke-linejoin="round"/>
</svg>
