<svg width="152" height="272" viewBox="0 0 152 272" fill="none" xmlns="http://www.w3.org/2000/svg">
<path d="M0 0H83C104.539 0 122 17.4609 122 39C122 60.5391 104.539 78 83 78H0V0Z" fill="#DDEBF4" fill-opacity="0.8"/>
<path d="M0 218H125C139.912 218 152 230.088 152 245C152 259.912 139.912 272 125 272H0V218Z" fill="#DAB6C2" fill-opacity="0.3"/>
<path d="M91 140C91 126.745 101.745 116 115 116H128C141.255 116 152 126.745 152 140C152 153.255 141.255 164 128 164H115C101.745 164 91 153.255 91 140Z" fill="#DDEBF4" fill-opacity="0.8"/>
</svg>
