<svg width="364" height="370" viewBox="0 0 364 370" fill="none" xmlns="http://www.w3.org/2000/svg">
<path d="M280.261 285.271C279.924 285.131 265.509 279.265 240.994 289.445C216.185 299.746 243.173 306.794 219.527 311.419C210.362 313.212 220.529 300.416 193.076 302.18C165.622 303.944 162.31 334.86 162.31 334.86C162.31 334.86 159.226 304.984 132.589 298.271C105.951 291.558 121.475 315.86 96.3924 306.262C71.3101 296.664 109.153 288.479 86.6128 275.422C66.8605 263.979 45.4526 277.755 45.4526 277.755C45.4526 277.755 58.8096 257.197 56.1199 248.769C49.1243 226.848 26.3627 248.307 17.7756 226.334C9.18851 204.36 35.0437 227.477 30.9341 204.661C29.7312 197.983 24.8306 192.938 18.5002 189.143L30.3109 167.5C35.416 164.546 39.3658 160.77 41.1029 155.941C42.8091 151.198 43.028 147.684 42.3609 145L55.5001 122.126C57.4343 121.316 59.2542 120.139 60.8696 118.418C66.0605 112.887 67.7042 105.949 67.4968 99L75.3411 85.5C83.2853 90.6492 93.1882 93.8719 103.656 89.5827C128.415 79.4382 116.309 68.463 127.109 65.9732C136.209 63.8754 126.013 78.8689 153.56 75.2124C181.108 71.5559 184.832 54.7515 184.832 54.7515C184.832 54.7515 185.313 71.5598 212.023 77.9208C238.732 84.2818 244.635 62.1712 253.905 68.9742C268.604 79.7614 243.641 82.9158 265.631 96.9786C285.544 109.713 298.881 102.308 301.224 100.795C301.463 100.629 301.593 100.543 301.593 100.543C301.593 100.543 301.469 100.637 301.224 100.795C297.997 103.04 275.021 119.98 288.649 138.329C303.284 158.034 321.475 140.137 324.889 152.694C327.853 163.592 299.858 156.926 304.094 179.421C308.105 200.727 329.726 201.714 332.002 201.759C332.129 201.759 332.196 201.761 332.196 201.761C332.196 201.761 332.129 201.761 332.002 201.759C329.738 201.755 308.28 202.273 301.562 223.087C294.467 245.07 317.64 240.65 313.822 249.612C309.391 260.01 298.681 242.265 281.795 260.609C265.104 278.742 279.917 285.126 280.261 285.271Z" fill="#AFBDC7"/>
<path d="M42.9684 283.049C42.9684 283.049 36.5374 287.376 22.8992 312.778C22.5273 313.47 22.2712 314.214 21.7992 314.778C14.8763 323.061 8.37217 331.144 2.81837 325.135C-3.81542 317.958 3.89431 310.821 13.4121 303C22.8156 295.272 42.9684 283.049 42.9684 283.049H42.9684Z" fill="#AFBDC7"/>
<path d="M309.806 94.9151C309.806 94.9151 315.395 89.4743 327.645 75.6371C334.993 67.3365 341.674 54.726 356.986 50.5659C367.919 47.5954 366.328 53.355 350.403 71.7729C334.477 90.1908 309.806 94.9151 309.806 94.9151V94.9151Z" fill="#AFBDC7"/>
<path d="M186.682 45.3736C186.682 45.3736 188.109 35.8352 186.958 30.8089C183.73 16.7121 186.269 5.13556 193.877 0.741398C201.822 -3.84668 199.58 14.0276 197.345 22.3053C195.103 30.6111 186.682 45.3736 186.682 45.3736Z" fill="#AFBDC7"/>
<path d="M285.049 288.438C285.049 288.438 293.273 293.453 298.344 294.338C312.567 296.82 322.235 303.652 323.33 312.381C324.472 321.496 308.894 312.499 302.143 307.226C295.37 301.935 285.049 288.438 285.049 288.438Z" fill="#AFBDC7"/>
<path d="M333.56 147.222C335 147.222 336.167 146.287 336.167 145.133C336.167 143.979 335 143.044 333.56 143.044C332.121 143.044 330.954 143.979 330.954 145.133C330.954 146.287 332.121 147.222 333.56 147.222Z" fill="#AFBDC7"/>
<path d="M232.459 317.66C234.187 317.66 235.587 316.195 235.587 314.388C235.587 312.582 234.187 311.117 232.459 311.117C230.732 311.117 229.331 312.582 229.331 314.388C229.331 316.195 230.732 317.66 232.459 317.66Z" fill="#AFBDC7"/>
<path d="M222.343 318.689C223.529 318.689 224.49 317.726 224.49 316.538C224.49 315.35 223.529 314.387 222.343 314.387C221.157 314.387 220.196 315.35 220.196 316.538C220.196 317.726 221.157 318.689 222.343 318.689Z" fill="#AFBDC7"/>
<path d="M226.654 323.709C227.444 323.709 228.085 323.067 228.085 322.275C228.085 321.483 227.444 320.841 226.654 320.841C225.863 320.841 225.222 321.483 225.222 322.275C225.222 323.067 225.863 323.709 226.654 323.709Z" fill="#AFBDC7"/>
<path d="M166.51 341.924C167.301 341.924 167.942 341.282 167.942 340.49C167.942 339.698 167.301 339.056 166.51 339.056C165.72 339.056 165.079 339.698 165.079 340.49C165.079 341.282 165.72 341.924 166.51 341.924Z" fill="#AFBDC7"/>
<path d="M330.809 157.026C331.521 157.026 332.098 156.448 332.098 155.735C332.098 155.022 331.521 154.443 330.809 154.443C330.097 154.443 329.52 155.022 329.52 155.735C329.52 156.448 330.097 157.026 330.809 157.026Z" fill="#AFBDC7"/>
<path d="M135.137 64.0489C135.991 64.0489 136.684 63.3552 136.684 62.4993C136.684 61.6435 135.991 60.9497 135.137 60.9497C134.283 60.9497 133.59 61.6435 133.59 62.4993C133.59 63.3552 134.283 64.0489 135.137 64.0489Z" fill="#AFBDC7"/>
<path d="M120.957 61.9821C121.954 61.9821 122.762 61.2883 122.762 60.4324C122.762 59.5766 121.954 58.8828 120.957 58.8828C119.961 58.8828 119.153 59.5766 119.153 60.4324C119.153 61.2883 119.961 61.9821 120.957 61.9821Z" fill="#AFBDC7"/>
<path d="M12.1646 213.329C12.8765 213.329 13.4536 212.867 13.4536 212.296C13.4536 211.726 12.8765 211.263 12.1646 211.263C11.4527 211.263 10.8756 211.726 10.8756 212.296C10.8756 212.867 11.4527 213.329 12.1646 213.329Z" fill="#AFBDC7"/>
<path d="M8.29754 219.527C9.43659 219.527 10.36 218.718 10.36 217.719C10.36 216.721 9.43659 215.911 8.29754 215.911C7.15849 215.911 6.23511 216.721 6.23511 217.719C6.23511 218.718 7.15849 219.527 8.29754 219.527Z" fill="#AFBDC7"/>
<path d="M295.748 91.9418C296.46 91.9418 297.038 91.7105 297.038 91.4252C297.038 91.14 296.46 90.9087 295.748 90.9087C295.037 90.9087 294.459 91.14 294.459 91.4252C294.459 91.7105 295.037 91.9418 295.748 91.9418Z" fill="#AFBDC7"/>
<path d="M292.31 97.0335C292.966 97.0335 293.497 96.5602 293.497 95.9765C293.497 95.3927 292.966 94.9194 292.31 94.9194C291.655 94.9194 291.123 95.3927 291.123 95.9765C291.123 96.5602 291.655 97.0335 292.31 97.0335Z" fill="#AFBDC7"/>
<path d="M81.7749 309.983C83.276 309.983 84.493 308.763 84.493 307.26C84.493 305.756 83.276 304.537 81.7749 304.537C80.2737 304.537 79.0568 305.756 79.0568 307.26C79.0568 308.763 80.2737 309.983 81.7749 309.983Z" fill="#AFBDC7"/>
<path d="M318.099 252.822C318.987 252.822 319.707 252.191 319.707 251.413C319.707 250.634 318.987 250.003 318.099 250.003C317.211 250.003 316.491 250.634 316.491 251.413C316.491 252.191 317.211 252.822 318.099 252.822Z" fill="#AFBDC7"/>
<path d="M13.5971 227.452C14.8182 227.452 15.8081 226.641 15.8081 225.64C15.8081 224.639 14.8182 223.828 13.5971 223.828C12.3761 223.828 11.3862 224.639 11.3862 225.64C11.3862 226.641 12.3761 227.452 13.5971 227.452Z" fill="#AFBDC7"/>
<path d="M162.484 339.838C162.484 339.838 162.119 346.145 163.096 349.36C165.837 358.375 164.898 366.076 160.457 369.379C155.821 372.828 156.239 361.034 157.168 355.504C158.101 349.955 162.484 339.838 162.484 339.838V339.838Z" fill="#AFBDC7"/>
</svg>
