<svg width="100" height="100" viewBox="0 0 100 100" fill="none" xmlns="http://www.w3.org/2000/svg">
<circle cx="5.55556" cy="5.55556" r="5.55556" fill="#ABC7D8"/>
<circle cx="27.7777" cy="5.55556" r="5.55556" fill="#ABC7D8"/>
<circle cx="50.0001" cy="5.55556" r="5.55556" fill="#ABC7D8"/>
<circle cx="72.2221" cy="5.55556" r="5.55556" fill="#ABC7D8"/>
<circle cx="94.4445" cy="5.55556" r="5.55556" fill="#ABC7D8"/>
<circle cx="5.55556" cy="27.778" r="5.55556" fill="#ABC7D8"/>
<circle cx="27.7777" cy="27.778" r="5.55556" fill="#ABC7D8"/>
<circle cx="50.0001" cy="27.778" r="5.55556" fill="#ABC7D8"/>
<circle cx="72.2221" cy="27.778" r="5.55556" fill="#ABC7D8"/>
<circle cx="94.4445" cy="27.778" r="5.55556" fill="#ABC7D8"/>
<circle cx="5.55556" cy="50.0001" r="5.55556" fill="#ABC7D8"/>
<circle cx="27.7777" cy="49.9999" r="5.55556" fill="#ABC7D8"/>
<circle cx="50.0001" cy="49.9999" r="5.55556" fill="#ABC7D8"/>
<circle cx="72.2221" cy="49.9999" r="5.55556" fill="#ABC7D8"/>
<circle cx="94.4445" cy="49.9999" r="5.55556" fill="#ABC7D8"/>
<circle cx="5.55556" cy="72.2221" r="5.55556" fill="#ABC7D8"/>
<circle cx="27.7777" cy="72.2221" r="5.55556" fill="#ABC7D8"/>
<circle cx="50.0001" cy="72.2221" r="5.55556" fill="#ABC7D8"/>
<circle cx="72.2221" cy="72.2221" r="5.55556" fill="#ABC7D8"/>
<circle cx="94.4445" cy="72.2221" r="5.55556" fill="#ABC7D8"/>
<circle cx="5.55556" cy="94.4445" r="5.55556" fill="#ABC7D8"/>
<circle cx="27.7777" cy="94.4445" r="5.55556" fill="#ABC7D8"/>
<circle cx="50.0001" cy="94.4445" r="5.55556" fill="#ABC7D8"/>
<circle cx="72.2221" cy="94.4445" r="5.55556" fill="#ABC7D8"/>
<circle cx="94.4445" cy="94.4445" r="5.55556" fill="#ABC7D8"/>
</svg>
