<svg xmlns="http://www.w3.org/2000/svg" fill="none" viewBox="0 0 1202 696">
  <path fill="#FFDEEA" d="M894.873 220.779a2 2 0 01.354.032c36.792 6.665 50.597 34.924 52.44 57.538 1.39 17.048-1.429 40.904-12.169 51.124-1.248 1.187-.968 3.585.58 4.34 20.184 9.857 25.54 38.582 25.54 62.58 0 17.033-11.897 40.582-22.051 51.908-10.811 9.422-27.472 26.845-46.259 26.845H383.44c-1.654 0-3.106-1.124-3.554-2.752l-64.143-234.621c-.663-2.409 5.253-16.994 7.701-16.994h571.429zM979.75 220.291c.33-.258.743-.38 1.162-.374l61.018.862 75.02.379c17.66 0 32.72 2.925 48.58 15.068.11.089.22.194.32.306 13.46 16.126 20.32 23.993 26.54 41.126 5.53 15.235 9.61 57.684 9.61 77.254 0 19.57-9.68 61.05-17.47 75.365-7.8 14.316-18.74 23.541-31.34 32.888-13.82 7.611-18.52 11.981-36.24 11.981H975.801c-2.039 0-3.692-1.69-3.692-3.775l.17-51.908V236.75c0-2.026 1.645-11.906 7.471-16.459z"/>
  <path fill="#D9BDC7" d="M887.903 222.521c.118 0 .239.011.355.032 36.791 6.666 50.597 34.924 52.44 57.539 1.389 17.047-1.429 40.903-12.17 51.123-1.247 1.187-.961 3.56.622 4.239 20.353 8.742 27.241 28.238 27.241 52.228 0 17.033-10.154 40.582-20.309 51.907-10.811 9.423-29.214 25.104-48.001 25.104h-495.93c-1.654 0-3.106-1.125-3.554-2.753l-64.143-234.621c-.663-2.408 1.108-4.798 3.555-4.798h559.894zM984.682 222.521h65.958l75.02.379c17.72 0 31.31 10.003 35 12.834 5.21 5.193 16.92 17.156 24.71 31.471 7.8 14.315 13.55 57.683 13.55 77.253s-5.75 61.051-13.55 75.366c-7.79 14.315-10.87 23.54-23.46 32.888-13.83 7.61-18.53 11.981-36.25 11.981H984.512c-2.039 0-3.692-1.69-3.692-3.775l.169-51.908V226.297c0-2.085 1.654-3.776 3.693-3.776z"/>
  <path fill="#fff" d="M385.765 257.296a2 2 0 011.925-2.542h29.212a2 2 0 011.925 1.458l32.892 116.764c.539 1.914 3.238 1.954 3.833.057l36.686-116.878a2 2 0 011.908-1.401h19.421c.86 0 1.624.55 1.896 1.365l38.109 113.855c.626 1.872 3.297 1.801 3.824-.101l31.466-113.653a2 2 0 011.927-1.466h29.176a2 2 0 011.92 2.562l-50.26 171.618a2 2 0 01-1.919 1.438h-25.411a2 2 0 01-1.897-1.367L505.62 318.907c-.609-1.824-3.19-1.822-3.795.003l-36.54 110.092a2.001 2.001 0 01-1.898 1.37h-27.399a2 2 0 01-1.925-1.458l-48.298-171.618zM643.431 256.754a2 2 0 012-2h108.395a2 2 0 012 2v27.109a2 2 0 01-2 2h-75.529a2 2 0 00-2 2v33.382a2 2 0 002 2h57.717a2 2 0 012 2v27.109a2 2 0 01-2 2h-57.717a2 2 0 00-2 2v40.908a2 2 0 002 2h78.038a2 2 0 012 2v27.11a2 2 0 01-2 2H645.431a2 2 0 01-2-2V256.754zM886.918 331.829c-1.405 1.022-1.156 3.344.458 3.987 19.404 7.728 29.105 22.605 29.105 44.63 0 15.722-5.101 28.015-15.303 36.88-10.203 8.697-24.169 13.046-41.898 13.046h-71.258a2 2 0 01-2-2V256.754a2 2 0 012-2h64.233c33.451 0 50.177 14.133 50.177 42.399 0 15.588-5.171 27.147-15.514 34.676zm-68.783-10.082a2 2 0 002 2h27.354c7.861 0 13.715-1.589 17.561-4.767 3.847-3.345 5.771-8.447 5.771-15.304 0-7.192-1.924-12.377-5.771-15.555-3.846-3.178-9.7-4.766-17.561-4.766h-27.354a2 2 0 00-2 2v36.392zm36.378 80.024c9.367 0 16.475-1.84 21.325-5.519 5.018-3.847 7.527-10.286 7.527-19.318 0-8.865-2.593-15.137-7.777-18.816-5.018-3.847-12.043-5.771-21.075-5.771h-34.378a2 2 0 00-2 2v45.424a2 2 0 002 2h34.378zM1011.62 256.754c0-1.105.89-2 2-2h63.73c16.72 0 31.61 3.512 44.65 10.537 13.22 7.025 23.5 17.144 30.86 30.357 7.36 13.213 11.04 28.851 11.04 46.915 0 18.063-3.68 33.702-11.04 46.915-7.36 13.213-17.64 23.332-30.86 30.357-13.04 7.024-27.93 10.537-44.65 10.537h-63.73c-1.11 0-2-.896-2-2V256.754zm65.73 145.017c16.72 0 29.43-5.185 38.13-15.555 8.87-10.537 13.3-25.088 13.3-43.653 0-18.565-4.43-33.033-13.3-43.403-8.7-10.537-21.41-15.805-38.13-15.805h-31.62c-1.11 0-2 .895-2 2v114.416c0 1.105.89 2 2 2h31.62z"/>
  <path stroke="#FFDEEA" stroke-linecap="round" stroke-linejoin="round" stroke-opacity=".6" stroke-width="6" d="M1196.31 149.35H216.319c-2.642 0-4.558 2.515-3.857 5.062l107.187 389.23a4 4 0 003.857 2.938h872.804"/>
  <path stroke="#FFDEEA" stroke-linecap="round" stroke-linejoin="round" stroke-opacity=".4" stroke-width="6" d="M1198.05 76.175H111.804c-2.647 0-4.564 2.526-3.852 5.076L257.536 616.83a4.001 4.001 0 003.853 2.924h936.661"/>
  <path stroke="#FFDEEA" stroke-linecap="round" stroke-linejoin="round" stroke-opacity=".2" stroke-width="6" d="M1198.05 3H7.271C4.623 3 2.706 5.526 3.42 8.077l190.567 681.927a4 4 0 003.852 2.923H1198.05"/>
</svg>
